<svg version="1.1" xmlns="http://www.w3.org/2000/svg" xmlns:xlink="http://www.w3.org/1999/xlink" width="808.2236328125" height="780"><defs/><g><path fill="#ffffff" stroke="none" paint-order="stroke fill markers" d=" M 193.16000000000003 499.85 C 193.16000000000003 494.96227952000004 197.117802368 491 202 491 C 206.882197632 491 210.83999999999997 494.96227952000004 210.83999999999997 499.85 C 210.83999999999997 504.73772048 206.882197632 508.70000000000005 202 508.70000000000005 C 197.117802368 508.70000000000005 193.16000000000003 504.73772048 193.16000000000003 499.85 Z"/></g><g><path fill="none" stroke="#000000" paint-order="fill stroke markers" d=" M 193.16000000000003 499.85 C 193.16000000000003 494.96227952000004 197.117802368 491 202 491 C 206.882197632 491 210.83999999999997 494.96227952000004 210.83999999999997 499.85 C 210.83999999999997 504.73772048 206.882197632 508.70000000000005 202 508.70000000000005 C 197.117802368 508.70000000000005 193.16000000000003 504.73772048 193.16000000000003 499.85 Z" stroke-miterlimit="10" stroke-dasharray=""/></g><g><path fill="none" stroke="#000000" paint-order="fill stroke markers" d=" M 202 508.70000000000005 L 202 526.3" stroke-miterlimit="10" stroke-dasharray=""/></g><g><path fill="none" stroke="#000000" paint-order="fill stroke markers" d=" M 192.64 515.3 L 211.36 515.3" stroke-miterlimit="10" stroke-dasharray=""/></g><g><path fill="none" stroke="#000000" paint-order="fill stroke markers" d=" M 202 526.3 L 189 544" stroke-miterlimit="10" stroke-dasharray=""/></g><g><path fill="none" stroke="#000000" paint-order="fill stroke markers" d=" M 202 526.3 L 215 544" stroke-miterlimit="10" stroke-dasharray=""/></g><g><g><path fill="none" stroke="none"/><text fill="#000000" stroke="none" font-family="Arial" font-size="13px" font-style="normal" font-weight="bold" text-decoration="undefined" x="328.5" y="708.5" text-anchor="middle" dominant-baseline="central" transform="matrix(1 0 0 1 -126 -150)">Customer</text></g></g><g><path fill="#C0C0C0" stroke="none" paint-order="stroke fill markers" d=" M 253 206 C 253 190.53602560000002 288.81721600000003 178 333 178 C 377.18278399999997 178 413 190.53602560000002 413 206 C 413 221.46397439999998 377.18278399999997 234 333 234 C 288.81721600000003 234 253 221.46397439999998 253 206 Z" fill-opacity="0.2"/></g><g><path fill="#ffffff" stroke="none" paint-order="stroke fill markers" d=" M 246 199 C 246 183.53602560000002 281.81721600000003 171 326 171 C 370.18278399999997 171 406 183.53602560000002 406 199 C 406 214.46397439999998 370.18278399999997 227 326 227 C 281.81721600000003 227 246 214.46397439999998 246 199 Z"/></g><g><path fill="none" stroke="#000000" paint-order="fill stroke markers" d=" M 246 199 C 246 183.53602560000002 281.81721600000003 171 326 171 C 370.18278399999997 171 406 183.53602560000002 406 199 C 406 214.46397439999998 370.18278399999997 227 326 227 C 281.81721600000003 227 246 214.46397439999998 246 199 Z" stroke-miterlimit="10" stroke-dasharray=""/></g><g><g><path fill="none" stroke="none"/><text fill="#000000" stroke="none" font-family="Arial" font-size="13px" font-style="normal" font-weight="bold" text-decoration="undefined" x="452" y="350" text-anchor="middle" dominant-baseline="central" transform="matrix(1 0 0 1 -126 -150)">EZElectronics</text></g></g><g><path fill="#ffffff" stroke="none" paint-order="stroke fill markers" d=" M 90.175869140625 163.85000000000002 C 90.175869140625 158.96227952000004 94.13367150862499 155 99.015869140625 155 C 103.89806677262501 155 107.855869140625 158.96227952000004 107.855869140625 163.85000000000002 C 107.855869140625 168.73772048 103.89806677262501 172.7 99.015869140625 172.7 C 94.13367150862499 172.7 90.175869140625 168.73772048 90.175869140625 163.85000000000002 Z"/></g><g><path fill="none" stroke="#000000" paint-order="fill stroke markers" d=" M 90.175869140625 163.85000000000002 C 90.175869140625 158.96227952000004 94.13367150862499 155 99.015869140625 155 C 103.89806677262501 155 107.855869140625 158.96227952000004 107.855869140625 163.85000000000002 C 107.855869140625 168.73772048 103.89806677262501 172.7 99.015869140625 172.7 C 94.13367150862499 172.7 90.175869140625 168.73772048 90.175869140625 163.85000000000002 Z" stroke-miterlimit="10" stroke-dasharray=""/></g><g><path fill="none" stroke="#000000" paint-order="fill stroke markers" d=" M 99.015869140625 172.7 L 99.015869140625 190.3" stroke-miterlimit="10" stroke-dasharray=""/></g><g><path fill="none" stroke="#000000" paint-order="fill stroke markers" d=" M 89.65586914062499 179.3 L 108.37586914062501 179.3" stroke-miterlimit="10" stroke-dasharray=""/></g><g><path fill="none" stroke="#000000" paint-order="fill stroke markers" d=" M 99.015869140625 190.3 L 86.015869140625 208" stroke-miterlimit="10" stroke-dasharray=""/></g><g><path fill="none" stroke="#000000" paint-order="fill stroke markers" d=" M 99.015869140625 190.3 L 112.015869140625 208" stroke-miterlimit="10" stroke-dasharray=""/></g><g><g><path fill="none" stroke="none"/><text fill="#000000" stroke="none" font-family="Arial" font-size="13px" font-style="normal" font-weight="bold" text-decoration="undefined" x="225.515869140625" y="372.5" text-anchor="middle" dominant-baseline="central" transform="matrix(1 0 0 1 -126 -150)">Inventory</text></g></g><g><path fill="none" stroke="#000000" paint-order="fill stroke markers" d=" M 245 197 L 157 195" stroke-miterlimit="10" stroke-dasharray=""/></g><g><path fill="#ffffff" stroke="none" paint-order="stroke fill markers" d=" M 210.17586914062503 43.849999999999994 C 210.17586914062503 38.96227952000001 214.133671508625 35 219.015869140625 35 C 223.898066772625 35 227.85586914062497 38.96227952000001 227.85586914062497 43.849999999999994 C 227.85586914062497 48.73772047999998 223.898066772625 52.69999999999999 219.015869140625 52.69999999999999 C 214.133671508625 52.69999999999999 210.17586914062503 48.73772047999998 210.17586914062503 43.849999999999994 Z"/></g><g><path fill="none" stroke="#000000" paint-order="fill stroke markers" d=" M 210.17586914062503 43.849999999999994 C 210.17586914062503 38.96227952000001 214.133671508625 35 219.015869140625 35 C 223.898066772625 35 227.85586914062497 38.96227952000001 227.85586914062497 43.849999999999994 C 227.85586914062497 48.73772047999998 223.898066772625 52.69999999999999 219.015869140625 52.69999999999999 C 214.133671508625 52.69999999999999 210.17586914062503 48.73772047999998 210.17586914062503 43.849999999999994 Z" stroke-miterlimit="10" stroke-dasharray=""/></g><g><path fill="none" stroke="#000000" paint-order="fill stroke markers" d=" M 219.015869140625 52.69999999999999 L 219.015869140625 70.30000000000001" stroke-miterlimit="10" stroke-dasharray=""/></g><g><path fill="none" stroke="#000000" paint-order="fill stroke markers" d=" M 209.655869140625 59.30000000000001 L 228.375869140625 59.30000000000001" stroke-miterlimit="10" stroke-dasharray=""/></g><g><path fill="none" stroke="#000000" paint-order="fill stroke markers" d=" M 219.015869140625 70.30000000000001 L 206.015869140625 88" stroke-miterlimit="10" stroke-dasharray=""/></g><g><path fill="none" stroke="#000000" paint-order="fill stroke markers" d=" M 219.015869140625 70.30000000000001 L 232.015869140625 88" stroke-miterlimit="10" stroke-dasharray=""/></g><g><g><path fill="none" stroke="none"/><text fill="#000000" stroke="none" font-family="Arial" font-size="13px" font-style="normal" font-weight="bold" text-decoration="undefined" x="345.515869140625" y="252.5" text-anchor="middle" dominant-baseline="central" transform="matrix(1 0 0 1 -126 -150)">Shipping service</text></g></g><g><path fill="#ffffff" stroke="none" paint-order="stroke fill markers" d=" M 385.471279296875 19.849999999999994 C 385.471279296875 14.96227952000001 389.42908166487496 11 394.311279296875 11 C 399.19347692887504 11 403.15127929687503 14.96227952000001 403.15127929687503 19.849999999999994 C 403.15127929687503 24.73772047999998 399.19347692887504 28.69999999999999 394.311279296875 28.69999999999999 C 389.42908166487496 28.69999999999999 385.471279296875 24.73772047999998 385.471279296875 19.849999999999994 Z"/></g><g><path fill="none" stroke="#000000" paint-order="fill stroke markers" d=" M 385.471279296875 19.849999999999994 C 385.471279296875 14.96227952000001 389.42908166487496 11 394.311279296875 11 C 399.19347692887504 11 403.15127929687503 14.96227952000001 403.15127929687503 19.849999999999994 C 403.15127929687503 24.73772047999998 399.19347692887504 28.69999999999999 394.311279296875 28.69999999999999 C 389.42908166487496 28.69999999999999 385.471279296875 24.73772047999998 385.471279296875 19.849999999999994 Z" stroke-miterlimit="10" stroke-dasharray=""/></g><g><path fill="none" stroke="#000000" paint-order="fill stroke markers" d=" M 394.311279296875 28.69999999999999 L 394.311279296875 46.30000000000001" stroke-miterlimit="10" stroke-dasharray=""/></g><g><path fill="none" stroke="#000000" paint-order="fill stroke markers" d=" M 384.951279296875 35.30000000000001 L 403.671279296875 35.30000000000001" stroke-miterlimit="10" stroke-dasharray=""/></g><g><path fill="none" stroke="#000000" paint-order="fill stroke markers" d=" M 394.311279296875 46.30000000000001 L 381.311279296875 64" stroke-miterlimit="10" stroke-dasharray=""/></g><g><path fill="none" stroke="#000000" paint-order="fill stroke markers" d=" M 394.311279296875 46.30000000000001 L 407.311279296875 64" stroke-miterlimit="10" stroke-dasharray=""/></g><g><g><path fill="none" stroke="none"/><text fill="#000000" stroke="none" font-family="Arial" font-size="13px" font-style="normal" font-weight="bold" text-decoration="undefined" x="520.811279296875" y="228.5" text-anchor="middle" dominant-baseline="central" transform="matrix(1 0 0 1 -126 -150)">Payment service</text></g></g><g><path fill="#ffffff" stroke="none" paint-order="stroke fill markers" d=" M 519.71810546875 67.85 C 519.71810546875 62.96227952000001 523.67590783675 59 528.55810546875 59 C 533.44030310075 59 537.39810546875 62.96227952000001 537.39810546875 67.85 C 537.39810546875 72.73772047999998 533.44030310075 76.69999999999999 528.55810546875 76.69999999999999 C 523.67590783675 76.69999999999999 519.71810546875 72.73772047999998 519.71810546875 67.85 Z"/></g><g><path fill="none" stroke="#000000" paint-order="fill stroke markers" d=" M 519.71810546875 67.85 C 519.71810546875 62.96227952000001 523.67590783675 59 528.55810546875 59 C 533.44030310075 59 537.39810546875 62.96227952000001 537.39810546875 67.85 C 537.39810546875 72.73772047999998 533.44030310075 76.69999999999999 528.55810546875 76.69999999999999 C 523.67590783675 76.69999999999999 519.71810546875 72.73772047999998 519.71810546875 67.85 Z" stroke-miterlimit="10" stroke-dasharray=""/></g><g><path fill="none" stroke="#000000" paint-order="fill stroke markers" d=" M 528.55810546875 76.69999999999999 L 528.55810546875 94.30000000000001" stroke-miterlimit="10" stroke-dasharray=""/></g><g><path fill="none" stroke="#000000" paint-order="fill stroke markers" d=" M 519.19810546875 83.30000000000001 L 537.91810546875 83.30000000000001" stroke-miterlimit="10" stroke-dasharray=""/></g><g><path fill="none" stroke="#000000" paint-order="fill stroke markers" d=" M 528.55810546875 94.30000000000001 L 515.55810546875 112" stroke-miterlimit="10" stroke-dasharray=""/></g><g><path fill="none" stroke="#000000" paint-order="fill stroke markers" d=" M 528.55810546875 94.30000000000001 L 541.55810546875 112" stroke-miterlimit="10" stroke-dasharray=""/></g><g><g><path fill="none" stroke="none"/><text fill="#000000" stroke="none" font-family="Arial" font-size="13px" font-style="normal" font-weight="bold" text-decoration="undefined" x="655.05810546875" y="276.5" text-anchor="middle" dominant-baseline="central" transform="matrix(1 0 0 1 -126 -150)">Email service</text></g></g><g><path fill="#ffffff" stroke="none" paint-order="stroke fill markers" d=" M 714.77181640625 371.85 C 714.77181640625 366.96227952000004 718.72961877425 363 723.61181640625 363 C 728.49401403825 363 732.45181640625 366.96227952000004 732.45181640625 371.85 C 732.45181640625 376.73772048 728.49401403825 380.70000000000005 723.61181640625 380.70000000000005 C 718.72961877425 380.70000000000005 714.77181640625 376.73772048 714.77181640625 371.85 Z"/></g><g><path fill="none" stroke="#000000" paint-order="fill stroke markers" d=" M 714.77181640625 371.85 C 714.77181640625 366.96227952000004 718.72961877425 363 723.61181640625 363 C 728.49401403825 363 732.45181640625 366.96227952000004 732.45181640625 371.85 C 732.45181640625 376.73772048 728.49401403825 380.70000000000005 723.61181640625 380.70000000000005 C 718.72961877425 380.70000000000005 714.77181640625 376.73772048 714.77181640625 371.85 Z" stroke-miterlimit="10" stroke-dasharray=""/></g><g><path fill="none" stroke="#000000" paint-order="fill stroke markers" d=" M 723.61181640625 380.70000000000005 L 723.61181640625 398.29999999999995" stroke-miterlimit="10" stroke-dasharray=""/></g><g><path fill="none" stroke="#000000" paint-order="fill stroke markers" d=" M 714.25181640625 387.29999999999995 L 732.97181640625 387.29999999999995" stroke-miterlimit="10" stroke-dasharray=""/></g><g><path fill="none" stroke="#000000" paint-order="fill stroke markers" d=" M 723.61181640625 398.29999999999995 L 710.61181640625 416" stroke-miterlimit="10" stroke-dasharray=""/></g><g><path fill="none" stroke="#000000" paint-order="fill stroke markers" d=" M 723.61181640625 398.29999999999995 L 736.61181640625 416" stroke-miterlimit="10" stroke-dasharray=""/></g><g><g><path fill="none" stroke="none"/><text fill="#000000" stroke="none" font-family="Arial" font-size="13px" font-style="normal" font-weight="bold" text-decoration="undefined" x="850.11181640625" y="580.5" text-anchor="middle" dominant-baseline="central" transform="matrix(1 0 0 1 -126 -150)">Google authentication</text></g></g><g><path fill="#ffffff" stroke="none" paint-order="stroke fill markers" d=" M 490.72542968749997 371.85 C 490.72542968749997 366.96227952000004 494.68323205549996 363 499.5654296875 363 C 504.44762731950004 363 508.40542968750003 366.96227952000004 508.40542968750003 371.85 C 508.40542968750003 376.73772048 504.44762731950004 380.70000000000005 499.5654296875 380.70000000000005 C 494.68323205549996 380.70000000000005 490.72542968749997 376.73772048 490.72542968749997 371.85 Z"/></g><g><path fill="none" stroke="#000000" paint-order="fill stroke markers" d=" M 490.72542968749997 371.85 C 490.72542968749997 366.96227952000004 494.68323205549996 363 499.5654296875 363 C 504.44762731950004 363 508.40542968750003 366.96227952000004 508.40542968750003 371.85 C 508.40542968750003 376.73772048 504.44762731950004 380.70000000000005 499.5654296875 380.70000000000005 C 494.68323205549996 380.70000000000005 490.72542968749997 376.73772048 490.72542968749997 371.85 Z" stroke-miterlimit="10" stroke-dasharray=""/></g><g><path fill="none" stroke="#000000" paint-order="fill stroke markers" d=" M 499.5654296875 380.70000000000005 L 499.5654296875 398.29999999999995" stroke-miterlimit="10" stroke-dasharray=""/></g><g><path fill="none" stroke="#000000" paint-order="fill stroke markers" d=" M 490.2054296875 387.29999999999995 L 508.9254296875 387.29999999999995" stroke-miterlimit="10" stroke-dasharray=""/></g><g><path fill="none" stroke="#000000" paint-order="fill stroke markers" d=" M 499.5654296875 398.29999999999995 L 486.5654296875 416" stroke-miterlimit="10" stroke-dasharray=""/></g><g><path fill="none" stroke="#000000" paint-order="fill stroke markers" d=" M 499.5654296875 398.29999999999995 L 512.5654296875 416" stroke-miterlimit="10" stroke-dasharray=""/></g><g><g><path fill="none" stroke="none"/><text fill="#000000" stroke="none" font-family="Arial" font-size="13px" font-style="normal" font-weight="bold" text-decoration="undefined" x="626.0654296875" y="580.5" text-anchor="middle" dominant-baseline="central" transform="matrix(1 0 0 1 -126 -150)">Facebook authentication</text></g></g><g><path fill="none" stroke="#000000" paint-order="fill stroke markers" d=" M 339 170 L 375 91" stroke-miterlimit="10" stroke-dasharray=""/></g><g><path fill="none" stroke="#000000" paint-order="fill stroke markers" d=" M 384 170 L 481 122" stroke-miterlimit="10" stroke-dasharray=""/></g><g><path fill="none" stroke="#000000" paint-order="fill stroke markers" d=" M 301 170 L 254 115" stroke-miterlimit="10" stroke-dasharray=""/></g><g><path fill="#ffffff" stroke="none" paint-order="stroke fill markers" d=" M 329.254970703125 699.85 C 329.254970703125 694.96227952 333.212773071125 691 338.094970703125 691 C 342.977168335125 691 346.934970703125 694.96227952 346.934970703125 699.85 C 346.934970703125 704.73772048 342.977168335125 708.7 338.094970703125 708.7 C 333.212773071125 708.7 329.254970703125 704.73772048 329.254970703125 699.85 Z"/></g><g><path fill="none" stroke="#000000" paint-order="fill stroke markers" d=" M 329.254970703125 699.85 C 329.254970703125 694.96227952 333.212773071125 691 338.094970703125 691 C 342.977168335125 691 346.934970703125 694.96227952 346.934970703125 699.85 C 346.934970703125 704.73772048 342.977168335125 708.7 338.094970703125 708.7 C 333.212773071125 708.7 329.254970703125 704.73772048 329.254970703125 699.85 Z" stroke-miterlimit="10" stroke-dasharray=""/></g><g><path fill="none" stroke="#000000" paint-order="fill stroke markers" d=" M 338.094970703125 708.7 L 338.094970703125 726.3" stroke-miterlimit="10" stroke-dasharray=""/></g><g><path fill="none" stroke="#000000" paint-order="fill stroke markers" d=" M 328.734970703125 715.3 L 347.454970703125 715.3" stroke-miterlimit="10" stroke-dasharray=""/></g><g><path fill="none" stroke="#000000" paint-order="fill stroke markers" d=" M 338.094970703125 726.3 L 325.094970703125 744" stroke-miterlimit="10" stroke-dasharray=""/></g><g><path fill="none" stroke="#000000" paint-order="fill stroke markers" d=" M 338.094970703125 726.3 L 351.094970703125 744" stroke-miterlimit="10" stroke-dasharray=""/></g><g><g><path fill="none" stroke="none"/><text fill="#000000" stroke="none" font-family="Arial" font-size="13px" font-style="normal" font-weight="bold" text-decoration="undefined" x="464.594970703125" y="908.5" text-anchor="middle" dominant-baseline="central" transform="matrix(1 0 0 1 -126 -150)">Manager</text></g></g><g><path fill="#ffffff" stroke="none" paint-order="stroke fill markers" d=" M 332.866787109375 499.85 C 332.866787109375 494.96227952000004 336.824589477375 491 341.706787109375 491 C 346.588984741375 491 350.546787109375 494.96227952000004 350.546787109375 499.85 C 350.546787109375 504.73772048 346.588984741375 508.70000000000005 341.706787109375 508.70000000000005 C 336.824589477375 508.70000000000005 332.866787109375 504.73772048 332.866787109375 499.85 Z"/></g><g><path fill="none" stroke="#000000" paint-order="fill stroke markers" d=" M 332.866787109375 499.85 C 332.866787109375 494.96227952000004 336.824589477375 491 341.706787109375 491 C 346.588984741375 491 350.546787109375 494.96227952000004 350.546787109375 499.85 C 350.546787109375 504.73772048 346.588984741375 508.70000000000005 341.706787109375 508.70000000000005 C 336.824589477375 508.70000000000005 332.866787109375 504.73772048 332.866787109375 499.85 Z" stroke-miterlimit="10" stroke-dasharray=""/></g><g><path fill="none" stroke="#000000" paint-order="fill stroke markers" d=" M 341.706787109375 508.70000000000005 L 341.706787109375 526.3" stroke-miterlimit="10" stroke-dasharray=""/></g><g><path fill="none" stroke="#000000" paint-order="fill stroke markers" d=" M 332.346787109375 515.3 L 351.066787109375 515.3" stroke-miterlimit="10" stroke-dasharray=""/></g><g><path fill="none" stroke="#000000" paint-order="fill stroke markers" d=" M 341.706787109375 526.3 L 328.706787109375 544" stroke-miterlimit="10" stroke-dasharray=""/></g><g><path fill="none" stroke="#000000" paint-order="fill stroke markers" d=" M 341.706787109375 526.3 L 354.706787109375 544" stroke-miterlimit="10" stroke-dasharray=""/></g><g><g><path fill="none" stroke="none"/><text fill="#000000" stroke="none" font-family="Arial" font-size="13px" font-style="normal" font-weight="bold" text-decoration="undefined" x="468.206787109375" y="708.5" text-anchor="middle" dominant-baseline="central" transform="matrix(1 0 0 1 -126 -150)">Employee</text></g></g><g><path fill="none" stroke="#000000" paint-order="fill stroke markers" d=" M 339 689 L 340 571" stroke-miterlimit="10" stroke-dasharray=""/></g><g><path fill="#FFFFFF" stroke="none" paint-order="stroke fill markers" d=" M 348.24649066588836 591.3959650837468 L 340 571 L 331.40902425127985 591.2532746904026"/></g><g><path fill="none" stroke="#000000" paint-order="fill stroke markers" d=" M 348.24649066588836 591.3959650837468 L 340 571 L 331.40902425127985 591.2532746904026 L 348.24649066588836 591.3959650837468" stroke-miterlimit="10" stroke-dasharray=""/></g><g><path fill="#ffffff" stroke="none" paint-order="stroke fill markers" d=" M 585.846767578125 163.85000000000002 C 585.846767578125 158.96227952000004 589.804569946125 155 594.686767578125 155 C 599.568965210125 155 603.526767578125 158.96227952000004 603.526767578125 163.85000000000002 C 603.526767578125 168.73772048 599.568965210125 172.7 594.686767578125 172.7 C 589.804569946125 172.7 585.846767578125 168.73772048 585.846767578125 163.85000000000002 Z"/></g><g><path fill="none" stroke="#000000" paint-order="fill stroke markers" d=" M 585.846767578125 163.85000000000002 C 585.846767578125 158.96227952000004 589.804569946125 155 594.686767578125 155 C 599.568965210125 155 603.526767578125 158.96227952000004 603.526767578125 163.85000000000002 C 603.526767578125 168.73772048 599.568965210125 172.7 594.686767578125 172.7 C 589.804569946125 172.7 585.846767578125 168.73772048 585.846767578125 163.85000000000002 Z" stroke-miterlimit="10" stroke-dasharray=""/></g><g><path fill="none" stroke="#000000" paint-order="fill stroke markers" d=" M 594.686767578125 172.7 L 594.686767578125 190.3" stroke-miterlimit="10" stroke-dasharray=""/></g><g><path fill="none" stroke="#000000" paint-order="fill stroke markers" d=" M 585.326767578125 179.3 L 604.046767578125 179.3" stroke-miterlimit="10" stroke-dasharray=""/></g><g><path fill="none" stroke="#000000" paint-order="fill stroke markers" d=" M 594.686767578125 190.3 L 581.686767578125 208" stroke-miterlimit="10" stroke-dasharray=""/></g><g><path fill="none" stroke="#000000" paint-order="fill stroke markers" d=" M 594.686767578125 190.3 L 607.686767578125 208" stroke-miterlimit="10" stroke-dasharray=""/></g><g><g><path fill="none" stroke="none"/><text fill="#000000" stroke="none" font-family="Arial" font-size="13px" font-style="normal" font-weight="bold" text-decoration="undefined" x="721.186767578125" y="372.5" text-anchor="middle" dominant-baseline="central" transform="matrix(1 0 0 1 -126 -150)">External authentication provider</text></g></g><g><path fill="none" stroke="#000000" paint-order="fill stroke markers" d=" M 407 197 L 489 196" stroke-miterlimit="10" stroke-dasharray=""/></g><g><path fill="none" stroke="#000000" paint-order="fill stroke markers" d=" M 518 361 L 575 235" stroke-miterlimit="10" stroke-dasharray=""/></g><g><path fill="#FFFFFF" stroke="none" paint-order="stroke fill markers" d=" M 574.2931938614689 256.9886430932546 L 575 235 L 558.9518939461293 250.04853122679145"/></g><g><path fill="none" stroke="#000000" paint-order="fill stroke markers" d=" M 574.2931938614689 256.9886430932546 L 575 235 L 558.9518939461293 250.04853122679145 L 574.2931938614689 256.9886430932546" stroke-miterlimit="10" stroke-dasharray=""/></g><g><path fill="none" stroke="#000000" paint-order="fill stroke markers" d=" M 698 361 L 619 235" stroke-miterlimit="10" stroke-dasharray=""/></g><g><path fill="#FFFFFF" stroke="none" paint-order="stroke fill markers" d=" M 636.9299326626262 247.7482357490631 L 619 235 L 622.6640130256338 256.69274091828845"/></g><g><path fill="none" stroke="#000000" paint-order="fill stroke markers" d=" M 636.9299326626262 247.7482357490631 L 619 235 L 622.6640130256338 256.69274091828845 L 636.9299326626262 247.7482357490631" stroke-miterlimit="10" stroke-dasharray=""/></g><g><path fill="#ffffff" stroke="none" paint-order="stroke fill markers" d=" M 32.163173828125 499.85 C 32.163173828125 494.96227952000004 36.120976196124985 491 41.003173828125 491 C 45.885371460125015 491 49.843173828125 494.96227952000004 49.843173828125 499.85 C 49.843173828125 504.73772048 45.885371460125015 508.70000000000005 41.003173828125 508.70000000000005 C 36.120976196124985 508.70000000000005 32.163173828125 504.73772048 32.163173828125 499.85 Z"/></g><g><path fill="none" stroke="#000000" paint-order="fill stroke markers" d=" M 32.163173828125 499.85 C 32.163173828125 494.96227952000004 36.120976196124985 491 41.003173828125 491 C 45.885371460125015 491 49.843173828125 494.96227952000004 49.843173828125 499.85 C 49.843173828125 504.73772048 45.885371460125015 508.70000000000005 41.003173828125 508.70000000000005 C 36.120976196124985 508.70000000000005 32.163173828125 504.73772048 32.163173828125 499.85 Z" stroke-miterlimit="10" stroke-dasharray=""/></g><g><path fill="none" stroke="#000000" paint-order="fill stroke markers" d=" M 41.003173828125 508.70000000000005 L 41.003173828125 526.3" stroke-miterlimit="10" stroke-dasharray=""/></g><g><path fill="none" stroke="#000000" paint-order="fill stroke markers" d=" M 31.643173828124986 515.3 L 50.363173828125014 515.3" stroke-miterlimit="10" stroke-dasharray=""/></g><g><path fill="none" stroke="#000000" paint-order="fill stroke markers" d=" M 41.003173828125 526.3 L 28.003173828125 544" stroke-miterlimit="10" stroke-dasharray=""/></g><g><path fill="none" stroke="#000000" paint-order="fill stroke markers" d=" M 41.003173828125 526.3 L 54.003173828125 544" stroke-miterlimit="10" stroke-dasharray=""/></g><g><g><path fill="none" stroke="none"/><text fill="#000000" stroke="none" font-family="Arial" font-size="13px" font-style="normal" font-weight="bold" text-decoration="undefined" x="167.503173828125" y="708.5" text-anchor="middle" dominant-baseline="central" transform="matrix(1 0 0 1 -126 -150)">Supplier</text></g></g><g><path fill="#ffffff" stroke="none" paint-order="stroke fill markers" d=" M 194.74862304687503 323.85 C 194.74862304687503 318.96227952000004 198.706425414875 315 203.588623046875 315 C 208.470820678875 315 212.42862304687497 318.96227952000004 212.42862304687497 323.85 C 212.42862304687497 328.73772048 208.470820678875 332.7 203.588623046875 332.7 C 198.706425414875 332.7 194.74862304687503 328.73772048 194.74862304687503 323.85 Z"/></g><g><path fill="none" stroke="#000000" paint-order="fill stroke markers" d=" M 194.74862304687503 323.85 C 194.74862304687503 318.96227952000004 198.706425414875 315 203.588623046875 315 C 208.470820678875 315 212.42862304687497 318.96227952000004 212.42862304687497 323.85 C 212.42862304687497 328.73772048 208.470820678875 332.7 203.588623046875 332.7 C 198.706425414875 332.7 194.74862304687503 328.73772048 194.74862304687503 323.85 Z" stroke-miterlimit="10" stroke-dasharray=""/></g><g><path fill="none" stroke="#000000" paint-order="fill stroke markers" d=" M 203.588623046875 332.7 L 203.588623046875 350.3" stroke-miterlimit="10" stroke-dasharray=""/></g><g><path fill="none" stroke="#000000" paint-order="fill stroke markers" d=" M 194.228623046875 339.3 L 212.948623046875 339.3" stroke-miterlimit="10" stroke-dasharray=""/></g><g><path fill="none" stroke="#000000" paint-order="fill stroke markers" d=" M 203.588623046875 350.3 L 190.588623046875 368" stroke-miterlimit="10" stroke-dasharray=""/></g><g><path fill="none" stroke="#000000" paint-order="fill stroke markers" d=" M 203.588623046875 350.3 L 216.588623046875 368" stroke-miterlimit="10" stroke-dasharray=""/></g><g><g><path fill="none" stroke="none"/><text fill="#000000" stroke="none" font-family="Arial" font-size="13px" font-style="normal" font-weight="bold" text-decoration="undefined" x="330.088623046875" y="532.5" text-anchor="middle" dominant-baseline="central" transform="matrix(1 0 0 1 -126 -150)">User</text></g></g><g><path fill="none" stroke="#000000" paint-order="fill stroke markers" d=" M 73 495 L 177 382" stroke-miterlimit="10" stroke-dasharray=""/></g><g><path fill="#FFFFFF" stroke="none" paint-order="stroke fill markers" d=" M 169.43045890676223 402.65676759896826 L 177 382 L 157.04098571587633 391.2540666091263"/></g><g><path fill="none" stroke="#000000" paint-order="fill stroke markers" d=" M 169.43045890676223 402.65676759896826 L 177 382 L 157.04098571587633 391.2540666091263 L 169.43045890676223 402.65676759896826" stroke-miterlimit="10" stroke-dasharray=""/></g><g><path fill="none" stroke="#000000" paint-order="fill stroke markers" d=" M 202 489 L 203 395" stroke-miterlimit="10" stroke-dasharray=""/></g><g><path fill="#FFFFFF" stroke="none" paint-order="stroke fill markers" d=" M 211.20234425701472 415.41375880844623 L 203 395 L 194.36522596280264 415.23464052872066"/></g><g><path fill="none" stroke="#000000" paint-order="fill stroke markers" d=" M 211.20234425701472 415.41375880844623 L 203 395 L 194.36522596280264 415.23464052872066 L 211.20234425701472 415.41375880844623" stroke-miterlimit="10" stroke-dasharray=""/></g><g><path fill="none" stroke="#000000" paint-order="fill stroke markers" d=" M 309 489 L 230 389" stroke-miterlimit="10" stroke-dasharray=""/></g><g><path fill="#FFFFFF" stroke="none" paint-order="stroke fill markers" d=" M 249.20592186393878 399.72998440615265 L 230 389 L 235.9933928533136 410.16788232454655"/></g><g><path fill="none" stroke="#000000" paint-order="fill stroke markers" d=" M 249.20592186393878 399.72998440615265 L 230 389 L 235.9933928533136 410.16788232454655 L 249.20592186393878 399.72998440615265" stroke-miterlimit="10" stroke-dasharray=""/></g><g><path fill="none" stroke="#000000" paint-order="fill stroke markers" d=" M 230 320 L 303 228" stroke-miterlimit="10" stroke-dasharray=""/></g></svg>