<svg version="1.1" xmlns="http://www.w3.org/2000/svg" xmlns:xlink="http://www.w3.org/1999/xlink" width="720.2236328125" height="556"><defs/><g><path fill="#ffffff" stroke="none" paint-order="stroke fill markers" d=" M 36.866787109375 180.85000000000002 C 36.866787109375 175.96227952000004 40.824589477375014 172 45.706787109375 172 C 50.588984741374986 172 54.546787109374975 175.96227952000004 54.546787109374975 180.85000000000002 C 54.546787109374975 185.73772048 50.588984741374986 189.7 45.706787109375 189.7 C 40.824589477375014 189.7 36.866787109375 185.73772048 36.866787109375 180.85000000000002 Z"/></g><g><path fill="none" stroke="#000000" paint-order="fill stroke markers" d=" M 36.866787109375 180.85000000000002 C 36.866787109375 175.96227952000004 40.824589477375014 172 45.706787109375 172 C 50.588984741374986 172 54.546787109374975 175.96227952000004 54.546787109374975 180.85000000000002 C 54.546787109374975 185.73772048 50.588984741374986 189.7 45.706787109375 189.7 C 40.824589477375014 189.7 36.866787109375 185.73772048 36.866787109375 180.85000000000002 Z" stroke-miterlimit="10" stroke-dasharray=""/></g><g><path fill="none" stroke="#000000" paint-order="fill stroke markers" d=" M 45.706787109375 189.7 L 45.706787109375 207.3" stroke-miterlimit="10" stroke-dasharray=""/></g><g><path fill="none" stroke="#000000" paint-order="fill stroke markers" d=" M 36.346787109374986 196.3 L 55.066787109375014 196.3" stroke-miterlimit="10" stroke-dasharray=""/></g><g><path fill="none" stroke="#000000" paint-order="fill stroke markers" d=" M 45.706787109375 207.3 L 32.706787109375 225" stroke-miterlimit="10" stroke-dasharray=""/></g><g><path fill="none" stroke="#000000" paint-order="fill stroke markers" d=" M 45.706787109375 207.3 L 58.706787109375 225" stroke-miterlimit="10" stroke-dasharray=""/></g><g><g><path fill="none" stroke="none"/><text fill="#000000" stroke="none" font-family="Arial" font-size="13px" font-style="normal" font-weight="bold" text-decoration="undefined" x="260.206787109375" y="381.5" text-anchor="middle" dominant-baseline="central" transform="matrix(1 0 0 1 -214 -142)">Supplier</text></g></g><g><path fill="#ffffff" stroke="none" paint-order="stroke fill markers" d=" M 36.498623046875 75.85 C 36.498623046875 70.96227952000001 40.456425414875014 67 45.338623046875 67 C 50.220820678874986 67 54.178623046874975 70.96227952000001 54.178623046874975 75.85 C 54.178623046874975 80.73772047999998 50.220820678874986 84.69999999999999 45.338623046875 84.69999999999999 C 40.456425414875014 84.69999999999999 36.498623046875 80.73772047999998 36.498623046875 75.85 Z"/></g><g><path fill="none" stroke="#000000" paint-order="fill stroke markers" d=" M 36.498623046875 75.85 C 36.498623046875 70.96227952000001 40.456425414875014 67 45.338623046875 67 C 50.220820678874986 67 54.178623046874975 70.96227952000001 54.178623046874975 75.85 C 54.178623046874975 80.73772047999998 50.220820678874986 84.69999999999999 45.338623046875 84.69999999999999 C 40.456425414875014 84.69999999999999 36.498623046875 80.73772047999998 36.498623046875 75.85 Z" stroke-miterlimit="10" stroke-dasharray=""/></g><g><path fill="none" stroke="#000000" paint-order="fill stroke markers" d=" M 45.338623046875 84.69999999999999 L 45.338623046875 102.30000000000001" stroke-miterlimit="10" stroke-dasharray=""/></g><g><path fill="none" stroke="#000000" paint-order="fill stroke markers" d=" M 35.978623046874986 91.30000000000001 L 54.698623046875014 91.30000000000001" stroke-miterlimit="10" stroke-dasharray=""/></g><g><path fill="none" stroke="#000000" paint-order="fill stroke markers" d=" M 45.338623046875 102.30000000000001 L 32.338623046875 120" stroke-miterlimit="10" stroke-dasharray=""/></g><g><path fill="none" stroke="#000000" paint-order="fill stroke markers" d=" M 45.338623046875 102.30000000000001 L 58.338623046875 120" stroke-miterlimit="10" stroke-dasharray=""/></g><g><g><path fill="none" stroke="none"/><text fill="#000000" stroke="none" font-family="Arial" font-size="13px" font-style="normal" font-weight="bold" text-decoration="undefined" x="259.838623046875" y="276.5" text-anchor="middle" dominant-baseline="central" transform="matrix(1 0 0 1 -214 -142)">Customer</text></g></g><g><path fill="#C0C0C0" stroke="none" paint-order="stroke fill markers" d=" M 165 214 C 165 198.53602560000002 200.81721600000003 186 245 186 C 289.18278399999997 186 325 198.53602560000002 325 214 C 325 229.46397439999998 289.18278399999997 242 245 242 C 200.81721600000003 242 165 229.46397439999998 165 214 Z" fill-opacity="0.2"/></g><g><path fill="#ffffff" stroke="none" paint-order="stroke fill markers" d=" M 158 207 C 158 191.53602560000002 193.81721600000003 179 238 179 C 282.18278399999997 179 318 191.53602560000002 318 207 C 318 222.46397439999998 282.18278399999997 235 238 235 C 193.81721600000003 235 158 222.46397439999998 158 207 Z"/></g><g><path fill="none" stroke="#000000" paint-order="fill stroke markers" d=" M 158 207 C 158 191.53602560000002 193.81721600000003 179 238 179 C 282.18278399999997 179 318 191.53602560000002 318 207 C 318 222.46397439999998 282.18278399999997 235 238 235 C 193.81721600000003 235 158 222.46397439999998 158 207 Z" stroke-miterlimit="10" stroke-dasharray=""/></g><g><g><path fill="none" stroke="none"/><text fill="#000000" stroke="none" font-family="Arial" font-size="13px" font-style="normal" font-weight="bold" text-decoration="undefined" x="452" y="350" text-anchor="middle" dominant-baseline="central" transform="matrix(1 0 0 1 -214 -142)">EZElectronics</text></g></g><g><path fill="none" stroke="#000000" paint-order="fill stroke markers" d=" M 82 210 L 157 209" stroke-miterlimit="10" stroke-dasharray=""/></g><g><path fill="none" stroke="#000000" paint-order="fill stroke markers" d=" M 183 178 L 82 125" stroke-miterlimit="10" stroke-dasharray=""/></g><g><path fill="#ffffff" stroke="none" paint-order="stroke fill markers" d=" M 98.17586914062503 291.85 C 98.17586914062503 286.96227952000004 102.13367150862501 283 107.015869140625 283 C 111.89806677262499 283 115.85586914062497 286.96227952000004 115.85586914062497 291.85 C 115.85586914062497 296.73772048 111.89806677262499 300.7 107.015869140625 300.7 C 102.13367150862501 300.7 98.17586914062503 296.73772048 98.17586914062503 291.85 Z"/></g><g><path fill="none" stroke="#000000" paint-order="fill stroke markers" d=" M 98.17586914062503 291.85 C 98.17586914062503 286.96227952000004 102.13367150862501 283 107.015869140625 283 C 111.89806677262499 283 115.85586914062497 286.96227952000004 115.85586914062497 291.85 C 115.85586914062497 296.73772048 111.89806677262499 300.7 107.015869140625 300.7 C 102.13367150862501 300.7 98.17586914062503 296.73772048 98.17586914062503 291.85 Z" stroke-miterlimit="10" stroke-dasharray=""/></g><g><path fill="none" stroke="#000000" paint-order="fill stroke markers" d=" M 107.015869140625 300.7 L 107.015869140625 318.3" stroke-miterlimit="10" stroke-dasharray=""/></g><g><path fill="none" stroke="#000000" paint-order="fill stroke markers" d=" M 97.65586914062499 307.3 L 116.37586914062501 307.3" stroke-miterlimit="10" stroke-dasharray=""/></g><g><path fill="none" stroke="#000000" paint-order="fill stroke markers" d=" M 107.015869140625 318.3 L 94.015869140625 336" stroke-miterlimit="10" stroke-dasharray=""/></g><g><path fill="none" stroke="#000000" paint-order="fill stroke markers" d=" M 107.015869140625 318.3 L 120.015869140625 336" stroke-miterlimit="10" stroke-dasharray=""/></g><g><g><path fill="none" stroke="none"/><text fill="#000000" stroke="none" font-family="Arial" font-size="13px" font-style="normal" font-weight="bold" text-decoration="undefined" x="321.515869140625" y="492.5" text-anchor="middle" dominant-baseline="central" transform="matrix(1 0 0 1 -214 -142)">Inventory</text></g></g><g><path fill="none" stroke="#000000" paint-order="fill stroke markers" d=" M 205 236 L 154 281" stroke-miterlimit="10" stroke-dasharray=""/></g><g><path fill="#ffffff" stroke="none" paint-order="stroke fill markers" d=" M 186.17586914062503 27.849999999999994 C 186.17586914062503 22.96227952000001 190.133671508625 19 195.015869140625 19 C 199.898066772625 19 203.85586914062497 22.96227952000001 203.85586914062497 27.849999999999994 C 203.85586914062497 32.73772047999998 199.898066772625 36.69999999999999 195.015869140625 36.69999999999999 C 190.133671508625 36.69999999999999 186.17586914062503 32.73772047999998 186.17586914062503 27.849999999999994 Z"/></g><g><path fill="none" stroke="#000000" paint-order="fill stroke markers" d=" M 186.17586914062503 27.849999999999994 C 186.17586914062503 22.96227952000001 190.133671508625 19 195.015869140625 19 C 199.898066772625 19 203.85586914062497 22.96227952000001 203.85586914062497 27.849999999999994 C 203.85586914062497 32.73772047999998 199.898066772625 36.69999999999999 195.015869140625 36.69999999999999 C 190.133671508625 36.69999999999999 186.17586914062503 32.73772047999998 186.17586914062503 27.849999999999994 Z" stroke-miterlimit="10" stroke-dasharray=""/></g><g><path fill="none" stroke="#000000" paint-order="fill stroke markers" d=" M 195.015869140625 36.69999999999999 L 195.015869140625 54.30000000000001" stroke-miterlimit="10" stroke-dasharray=""/></g><g><path fill="none" stroke="#000000" paint-order="fill stroke markers" d=" M 185.655869140625 43.30000000000001 L 204.375869140625 43.30000000000001" stroke-miterlimit="10" stroke-dasharray=""/></g><g><path fill="none" stroke="#000000" paint-order="fill stroke markers" d=" M 195.015869140625 54.30000000000001 L 182.015869140625 72" stroke-miterlimit="10" stroke-dasharray=""/></g><g><path fill="none" stroke="#000000" paint-order="fill stroke markers" d=" M 195.015869140625 54.30000000000001 L 208.015869140625 72" stroke-miterlimit="10" stroke-dasharray=""/></g><g><g><path fill="none" stroke="none"/><text fill="#000000" stroke="none" font-family="Arial" font-size="13px" font-style="normal" font-weight="bold" text-decoration="undefined" x="409.515869140625" y="228.5" text-anchor="middle" dominant-baseline="central" transform="matrix(1 0 0 1 -214 -142)">Shipping service</text></g></g><g><path fill="#ffffff" stroke="none" paint-order="stroke fill markers" d=" M 321.47127929687497 19.849999999999994 C 321.47127929687497 14.96227952000001 325.42908166487496 11 330.311279296875 11 C 335.19347692887504 11 339.15127929687503 14.96227952000001 339.15127929687503 19.849999999999994 C 339.15127929687503 24.73772047999998 335.19347692887504 28.69999999999999 330.311279296875 28.69999999999999 C 325.42908166487496 28.69999999999999 321.47127929687497 24.73772047999998 321.47127929687497 19.849999999999994 Z"/></g><g><path fill="none" stroke="#000000" paint-order="fill stroke markers" d=" M 321.47127929687497 19.849999999999994 C 321.47127929687497 14.96227952000001 325.42908166487496 11 330.311279296875 11 C 335.19347692887504 11 339.15127929687503 14.96227952000001 339.15127929687503 19.849999999999994 C 339.15127929687503 24.73772047999998 335.19347692887504 28.69999999999999 330.311279296875 28.69999999999999 C 325.42908166487496 28.69999999999999 321.47127929687497 24.73772047999998 321.47127929687497 19.849999999999994 Z" stroke-miterlimit="10" stroke-dasharray=""/></g><g><path fill="none" stroke="#000000" paint-order="fill stroke markers" d=" M 330.311279296875 28.69999999999999 L 330.311279296875 46.30000000000001" stroke-miterlimit="10" stroke-dasharray=""/></g><g><path fill="none" stroke="#000000" paint-order="fill stroke markers" d=" M 320.951279296875 35.30000000000001 L 339.671279296875 35.30000000000001" stroke-miterlimit="10" stroke-dasharray=""/></g><g><path fill="none" stroke="#000000" paint-order="fill stroke markers" d=" M 330.311279296875 46.30000000000001 L 317.311279296875 64" stroke-miterlimit="10" stroke-dasharray=""/></g><g><path fill="none" stroke="#000000" paint-order="fill stroke markers" d=" M 330.311279296875 46.30000000000001 L 343.311279296875 64" stroke-miterlimit="10" stroke-dasharray=""/></g><g><g><path fill="none" stroke="none"/><text fill="#000000" stroke="none" font-family="Arial" font-size="13px" font-style="normal" font-weight="bold" text-decoration="undefined" x="544.811279296875" y="220.5" text-anchor="middle" dominant-baseline="central" transform="matrix(1 0 0 1 -214 -142)">Payment service</text></g></g><g><path fill="#ffffff" stroke="none" paint-order="stroke fill markers" d=" M 431.71810546874997 75.85 C 431.71810546874997 70.96227952000001 435.67590783674996 67 440.55810546875 67 C 445.44030310075004 67 449.39810546875003 70.96227952000001 449.39810546875003 75.85 C 449.39810546875003 80.73772047999998 445.44030310075004 84.69999999999999 440.55810546875 84.69999999999999 C 435.67590783674996 84.69999999999999 431.71810546874997 80.73772047999998 431.71810546874997 75.85 Z"/></g><g><path fill="none" stroke="#000000" paint-order="fill stroke markers" d=" M 431.71810546874997 75.85 C 431.71810546874997 70.96227952000001 435.67590783674996 67 440.55810546875 67 C 445.44030310075004 67 449.39810546875003 70.96227952000001 449.39810546875003 75.85 C 449.39810546875003 80.73772047999998 445.44030310075004 84.69999999999999 440.55810546875 84.69999999999999 C 435.67590783674996 84.69999999999999 431.71810546874997 80.73772047999998 431.71810546874997 75.85 Z" stroke-miterlimit="10" stroke-dasharray=""/></g><g><path fill="none" stroke="#000000" paint-order="fill stroke markers" d=" M 440.55810546875 84.69999999999999 L 440.55810546875 102.30000000000001" stroke-miterlimit="10" stroke-dasharray=""/></g><g><path fill="none" stroke="#000000" paint-order="fill stroke markers" d=" M 431.19810546875 91.30000000000001 L 449.91810546875 91.30000000000001" stroke-miterlimit="10" stroke-dasharray=""/></g><g><path fill="none" stroke="#000000" paint-order="fill stroke markers" d=" M 440.55810546875 102.30000000000001 L 427.55810546875 120" stroke-miterlimit="10" stroke-dasharray=""/></g><g><path fill="none" stroke="#000000" paint-order="fill stroke markers" d=" M 440.55810546875 102.30000000000001 L 453.55810546875 120" stroke-miterlimit="10" stroke-dasharray=""/></g><g><g><path fill="none" stroke="none"/><text fill="#000000" stroke="none" font-family="Arial" font-size="13px" font-style="normal" font-weight="bold" text-decoration="undefined" x="655.05810546875" y="276.5" text-anchor="middle" dominant-baseline="central" transform="matrix(1 0 0 1 -214 -142)">Email service</text></g></g><g><path fill="#ffffff" stroke="none" paint-order="stroke fill markers" d=" M 626.77181640625 379.85 C 626.77181640625 374.96227952000004 630.72961877425 371 635.61181640625 371 C 640.49401403825 371 644.45181640625 374.96227952000004 644.45181640625 379.85 C 644.45181640625 384.73772048 640.49401403825 388.70000000000005 635.61181640625 388.70000000000005 C 630.72961877425 388.70000000000005 626.77181640625 384.73772048 626.77181640625 379.85 Z"/></g><g><path fill="none" stroke="#000000" paint-order="fill stroke markers" d=" M 626.77181640625 379.85 C 626.77181640625 374.96227952000004 630.72961877425 371 635.61181640625 371 C 640.49401403825 371 644.45181640625 374.96227952000004 644.45181640625 379.85 C 644.45181640625 384.73772048 640.49401403825 388.70000000000005 635.61181640625 388.70000000000005 C 630.72961877425 388.70000000000005 626.77181640625 384.73772048 626.77181640625 379.85 Z" stroke-miterlimit="10" stroke-dasharray=""/></g><g><path fill="none" stroke="#000000" paint-order="fill stroke markers" d=" M 635.61181640625 388.70000000000005 L 635.61181640625 406.29999999999995" stroke-miterlimit="10" stroke-dasharray=""/></g><g><path fill="none" stroke="#000000" paint-order="fill stroke markers" d=" M 626.25181640625 395.29999999999995 L 644.97181640625 395.29999999999995" stroke-miterlimit="10" stroke-dasharray=""/></g><g><path fill="none" stroke="#000000" paint-order="fill stroke markers" d=" M 635.61181640625 406.29999999999995 L 622.61181640625 424" stroke-miterlimit="10" stroke-dasharray=""/></g><g><path fill="none" stroke="#000000" paint-order="fill stroke markers" d=" M 635.61181640625 406.29999999999995 L 648.61181640625 424" stroke-miterlimit="10" stroke-dasharray=""/></g><g><g><path fill="none" stroke="none"/><text fill="#000000" stroke="none" font-family="Arial" font-size="13px" font-style="normal" font-weight="bold" text-decoration="undefined" x="850.11181640625" y="580.5" text-anchor="middle" dominant-baseline="central" transform="matrix(1 0 0 1 -214 -142)">Google authentication</text></g></g><g><path fill="#ffffff" stroke="none" paint-order="stroke fill markers" d=" M 402.72542968749997 379.85 C 402.72542968749997 374.96227952000004 406.68323205549996 371 411.5654296875 371 C 416.44762731950004 371 420.40542968750003 374.96227952000004 420.40542968750003 379.85 C 420.40542968750003 384.73772048 416.44762731950004 388.70000000000005 411.5654296875 388.70000000000005 C 406.68323205549996 388.70000000000005 402.72542968749997 384.73772048 402.72542968749997 379.85 Z"/></g><g><path fill="none" stroke="#000000" paint-order="fill stroke markers" d=" M 402.72542968749997 379.85 C 402.72542968749997 374.96227952000004 406.68323205549996 371 411.5654296875 371 C 416.44762731950004 371 420.40542968750003 374.96227952000004 420.40542968750003 379.85 C 420.40542968750003 384.73772048 416.44762731950004 388.70000000000005 411.5654296875 388.70000000000005 C 406.68323205549996 388.70000000000005 402.72542968749997 384.73772048 402.72542968749997 379.85 Z" stroke-miterlimit="10" stroke-dasharray=""/></g><g><path fill="none" stroke="#000000" paint-order="fill stroke markers" d=" M 411.5654296875 388.70000000000005 L 411.5654296875 406.29999999999995" stroke-miterlimit="10" stroke-dasharray=""/></g><g><path fill="none" stroke="#000000" paint-order="fill stroke markers" d=" M 402.2054296875 395.29999999999995 L 420.9254296875 395.29999999999995" stroke-miterlimit="10" stroke-dasharray=""/></g><g><path fill="none" stroke="#000000" paint-order="fill stroke markers" d=" M 411.5654296875 406.29999999999995 L 398.5654296875 424" stroke-miterlimit="10" stroke-dasharray=""/></g><g><path fill="none" stroke="#000000" paint-order="fill stroke markers" d=" M 411.5654296875 406.29999999999995 L 424.5654296875 424" stroke-miterlimit="10" stroke-dasharray=""/></g><g><g><path fill="none" stroke="none"/><text fill="#000000" stroke="none" font-family="Arial" font-size="13px" font-style="normal" font-weight="bold" text-decoration="undefined" x="626.0654296875" y="580.5" text-anchor="middle" dominant-baseline="central" transform="matrix(1 0 0 1 -214 -142)">Facebook authentication</text></g></g><g><path fill="none" stroke="#000000" paint-order="fill stroke markers" d=" M 255 178 L 306 91" stroke-miterlimit="10" stroke-dasharray=""/></g><g><path fill="none" stroke="#000000" paint-order="fill stroke markers" d=" M 296 178 L 393 130" stroke-miterlimit="10" stroke-dasharray=""/></g><g><path fill="none" stroke="#000000" paint-order="fill stroke markers" d=" M 230 178 L 207 99" stroke-miterlimit="10" stroke-dasharray=""/></g><g><path fill="#ffffff" stroke="none" paint-order="stroke fill markers" d=" M 233.25497070312503 475.85 C 233.25497070312503 470.96227952000004 237.212773071125 467 242.094970703125 467 C 246.977168335125 467 250.93497070312497 470.96227952000004 250.93497070312497 475.85 C 250.93497070312497 480.73772048 246.977168335125 484.70000000000005 242.094970703125 484.70000000000005 C 237.212773071125 484.70000000000005 233.25497070312503 480.73772048 233.25497070312503 475.85 Z"/></g><g><path fill="none" stroke="#000000" paint-order="fill stroke markers" d=" M 233.25497070312503 475.85 C 233.25497070312503 470.96227952000004 237.212773071125 467 242.094970703125 467 C 246.977168335125 467 250.93497070312497 470.96227952000004 250.93497070312497 475.85 C 250.93497070312497 480.73772048 246.977168335125 484.70000000000005 242.094970703125 484.70000000000005 C 237.212773071125 484.70000000000005 233.25497070312503 480.73772048 233.25497070312503 475.85 Z" stroke-miterlimit="10" stroke-dasharray=""/></g><g><path fill="none" stroke="#000000" paint-order="fill stroke markers" d=" M 242.094970703125 484.70000000000005 L 242.094970703125 502.29999999999995" stroke-miterlimit="10" stroke-dasharray=""/></g><g><path fill="none" stroke="#000000" paint-order="fill stroke markers" d=" M 232.734970703125 491.29999999999995 L 251.454970703125 491.29999999999995" stroke-miterlimit="10" stroke-dasharray=""/></g><g><path fill="none" stroke="#000000" paint-order="fill stroke markers" d=" M 242.094970703125 502.29999999999995 L 229.094970703125 520" stroke-miterlimit="10" stroke-dasharray=""/></g><g><path fill="none" stroke="#000000" paint-order="fill stroke markers" d=" M 242.094970703125 502.29999999999995 L 255.094970703125 520" stroke-miterlimit="10" stroke-dasharray=""/></g><g><g><path fill="none" stroke="none"/><text fill="#000000" stroke="none" font-family="Arial" font-size="13px" font-style="normal" font-weight="bold" text-decoration="undefined" x="456.594970703125" y="676.5" text-anchor="middle" dominant-baseline="central" transform="matrix(1 0 0 1 -214 -142)">Manager</text></g></g><g><path fill="#ffffff" stroke="none" paint-order="stroke fill markers" d=" M 236.86678710937503 283.85 C 236.86678710937503 278.96227952000004 240.824589477375 275 245.706787109375 275 C 250.588984741375 275 254.54678710937497 278.96227952000004 254.54678710937497 283.85 C 254.54678710937497 288.73772048 250.588984741375 292.7 245.706787109375 292.7 C 240.824589477375 292.7 236.86678710937503 288.73772048 236.86678710937503 283.85 Z"/></g><g><path fill="none" stroke="#000000" paint-order="fill stroke markers" d=" M 236.86678710937503 283.85 C 236.86678710937503 278.96227952000004 240.824589477375 275 245.706787109375 275 C 250.588984741375 275 254.54678710937497 278.96227952000004 254.54678710937497 283.85 C 254.54678710937497 288.73772048 250.588984741375 292.7 245.706787109375 292.7 C 240.824589477375 292.7 236.86678710937503 288.73772048 236.86678710937503 283.85 Z" stroke-miterlimit="10" stroke-dasharray=""/></g><g><path fill="none" stroke="#000000" paint-order="fill stroke markers" d=" M 245.706787109375 292.7 L 245.706787109375 310.3" stroke-miterlimit="10" stroke-dasharray=""/></g><g><path fill="none" stroke="#000000" paint-order="fill stroke markers" d=" M 236.346787109375 299.3 L 255.066787109375 299.3" stroke-miterlimit="10" stroke-dasharray=""/></g><g><path fill="none" stroke="#000000" paint-order="fill stroke markers" d=" M 245.706787109375 310.3 L 232.706787109375 328" stroke-miterlimit="10" stroke-dasharray=""/></g><g><path fill="none" stroke="#000000" paint-order="fill stroke markers" d=" M 245.706787109375 310.3 L 258.706787109375 328" stroke-miterlimit="10" stroke-dasharray=""/></g><g><g><path fill="none" stroke="none"/><text fill="#000000" stroke="none" font-family="Arial" font-size="13px" font-style="normal" font-weight="bold" text-decoration="undefined" x="460.206787109375" y="484.5" text-anchor="middle" dominant-baseline="central" transform="matrix(1 0 0 1 -214 -142)">Employee</text></g></g><g><path fill="none" stroke="#000000" paint-order="fill stroke markers" d=" M 242 273 L 240 236" stroke-miterlimit="10" stroke-dasharray=""/></g><g><path fill="none" stroke="#000000" paint-order="fill stroke markers" d=" M 243 465 L 244 355" stroke-miterlimit="10" stroke-dasharray=""/></g><g><path fill="#FFFFFF" stroke="none" paint-order="stroke fill markers" d=" M 252.2339193679573 375.401043400816 L 244 355 L 235.3965440888278 375.2479763528239"/></g><g><path fill="none" stroke="#000000" paint-order="fill stroke markers" d=" M 252.2339193679573 375.401043400816 L 244 355 L 235.3965440888278 375.2479763528239 L 252.2339193679573 375.401043400816" stroke-miterlimit="10" stroke-dasharray=""/></g><g><path fill="#ffffff" stroke="none" paint-order="stroke fill markers" d=" M 497.84676757812497 171.85000000000002 C 497.84676757812497 166.96227952000004 501.80456994612496 163 506.686767578125 163 C 511.56896521012504 163 515.526767578125 166.96227952000004 515.526767578125 171.85000000000002 C 515.526767578125 176.73772048 511.56896521012504 180.7 506.686767578125 180.7 C 501.80456994612496 180.7 497.84676757812497 176.73772048 497.84676757812497 171.85000000000002 Z"/></g><g><path fill="none" stroke="#000000" paint-order="fill stroke markers" d=" M 497.84676757812497 171.85000000000002 C 497.84676757812497 166.96227952000004 501.80456994612496 163 506.686767578125 163 C 511.56896521012504 163 515.526767578125 166.96227952000004 515.526767578125 171.85000000000002 C 515.526767578125 176.73772048 511.56896521012504 180.7 506.686767578125 180.7 C 501.80456994612496 180.7 497.84676757812497 176.73772048 497.84676757812497 171.85000000000002 Z" stroke-miterlimit="10" stroke-dasharray=""/></g><g><path fill="none" stroke="#000000" paint-order="fill stroke markers" d=" M 506.686767578125 180.7 L 506.686767578125 198.3" stroke-miterlimit="10" stroke-dasharray=""/></g><g><path fill="none" stroke="#000000" paint-order="fill stroke markers" d=" M 497.326767578125 187.3 L 516.046767578125 187.3" stroke-miterlimit="10" stroke-dasharray=""/></g><g><path fill="none" stroke="#000000" paint-order="fill stroke markers" d=" M 506.686767578125 198.3 L 493.686767578125 216" stroke-miterlimit="10" stroke-dasharray=""/></g><g><path fill="none" stroke="#000000" paint-order="fill stroke markers" d=" M 506.686767578125 198.3 L 519.686767578125 216" stroke-miterlimit="10" stroke-dasharray=""/></g><g><g><path fill="none" stroke="none"/><text fill="#000000" stroke="none" font-family="Arial" font-size="13px" font-style="normal" font-weight="bold" text-decoration="undefined" x="721.186767578125" y="372.5" text-anchor="middle" dominant-baseline="central" transform="matrix(1 0 0 1 -214 -142)">External authentication provider</text></g></g><g><path fill="none" stroke="#000000" paint-order="fill stroke markers" d=" M 319 205 L 401 204" stroke-miterlimit="10" stroke-dasharray=""/></g><g><path fill="none" stroke="#000000" paint-order="fill stroke markers" d=" M 430 369 L 487 243" stroke-miterlimit="10" stroke-dasharray=""/></g><g><path fill="#FFFFFF" stroke="none" paint-order="stroke fill markers" d=" M 486.2931938614689 264.9886430932546 L 487 243 L 470.9518939461293 258.04853122679145"/></g><g><path fill="none" stroke="#000000" paint-order="fill stroke markers" d=" M 486.2931938614689 264.9886430932546 L 487 243 L 470.9518939461293 258.04853122679145 L 486.2931938614689 264.9886430932546" stroke-miterlimit="10" stroke-dasharray=""/></g><g><path fill="none" stroke="#000000" paint-order="fill stroke markers" d=" M 610 369 L 531 243" stroke-miterlimit="10" stroke-dasharray=""/></g><g><path fill="#FFFFFF" stroke="none" paint-order="stroke fill markers" d=" M 548.9299326626262 255.7482357490631 L 531 243 L 534.6640130256338 264.69274091828845"/></g><g><path fill="none" stroke="#000000" paint-order="fill stroke markers" d=" M 548.9299326626262 255.7482357490631 L 531 243 L 534.6640130256338 264.69274091828845 L 548.9299326626262 255.7482357490631" stroke-miterlimit="10" stroke-dasharray=""/></g></svg>