<svg version="1.1" xmlns="http://www.w3.org/2000/svg" xmlns:xlink="http://www.w3.org/1999/xlink" width="973" height="393"><defs/><g><path fill="#C0C0C0" stroke="none" paint-order="stroke fill markers" d=" M 297 179 L 438.9580078125 179 L 438.9580078125 213 L 297 213" fill-opacity="0.2"/></g><g><path fill="#C0C0C0" stroke="none" paint-order="stroke fill markers" d=" M 297 179 L 307 169 L 448.9580078125 169 L 438.9580078125 179" fill-opacity="0.2"/></g><g><path fill="#C0C0C0" stroke="none" paint-order="stroke fill markers" d=" M 448.9580078125 169 L 438.9580078125 179 L 438.9580078125 213 L 448.9580078125 203" fill-opacity="0.2"/></g><g><path fill="#ffffff" stroke="none" paint-order="stroke fill markers" d=" M 290 172 L 431.9580078125 172 L 431.9580078125 206 L 290 206"/></g><g><path fill="#ffffff" stroke="none" paint-order="stroke fill markers" d=" M 290 172 L 300 162 L 441.9580078125 162 L 431.9580078125 172"/></g><g><path fill="#ffffff" stroke="none" paint-order="stroke fill markers" d=" M 441.9580078125 162 L 431.9580078125 172 L 431.9580078125 206 L 441.9580078125 196"/></g><g><path fill="none" stroke="#000000" paint-order="fill stroke markers" d=" M 290 172 L 431.9580078125 172 L 431.9580078125 206 L 290 206 L 290 172" stroke-miterlimit="10" stroke-dasharray=""/></g><g><path fill="none" stroke="#000000" paint-order="fill stroke markers" d=" M 290 172 L 300 162 L 441.9580078125 162 L 431.9580078125 172 L 290 172" stroke-miterlimit="10" stroke-dasharray=""/></g><g><path fill="none" stroke="#000000" paint-order="fill stroke markers" d=" M 441.9580078125 162 L 431.9580078125 172 L 431.9580078125 206 L 441.9580078125 196 L 441.9580078125 162" stroke-miterlimit="10" stroke-dasharray=""/></g><g><g><path fill="none" stroke="none"/><text fill="#000000" stroke="none" font-family="Arial" font-size="13px" font-style="normal" font-weight="bold" text-decoration="undefined" x="519.97900390625" y="295.5" text-anchor="middle" dominant-baseline="central" transform="matrix(1 0 0 1 -158 -110)">EZElectronics server</text></g></g><g><path fill="#C0C0C0" stroke="none" paint-order="stroke fill markers" d=" M 593 179 L 710.3671875 179 L 710.3671875 213 L 593 213" fill-opacity="0.2"/></g><g><path fill="#C0C0C0" stroke="none" paint-order="stroke fill markers" d=" M 593 179 L 603 169 L 720.3671875 169 L 710.3671875 179" fill-opacity="0.2"/></g><g><path fill="#C0C0C0" stroke="none" paint-order="stroke fill markers" d=" M 720.3671875 169 L 710.3671875 179 L 710.3671875 213 L 720.3671875 203" fill-opacity="0.2"/></g><g><path fill="#ffffff" stroke="none" paint-order="stroke fill markers" d=" M 586 172 L 703.3671875 172 L 703.3671875 206 L 586 206"/></g><g><path fill="#ffffff" stroke="none" paint-order="stroke fill markers" d=" M 586 172 L 596 162 L 713.3671875 162 L 703.3671875 172"/></g><g><path fill="#ffffff" stroke="none" paint-order="stroke fill markers" d=" M 713.3671875 162 L 703.3671875 172 L 703.3671875 206 L 713.3671875 196"/></g><g><path fill="none" stroke="#000000" paint-order="fill stroke markers" d=" M 586 172 L 703.3671875 172 L 703.3671875 206 L 586 206 L 586 172" stroke-miterlimit="10" stroke-dasharray=""/></g><g><path fill="none" stroke="#000000" paint-order="fill stroke markers" d=" M 586 172 L 596 162 L 713.3671875 162 L 703.3671875 172 L 586 172" stroke-miterlimit="10" stroke-dasharray=""/></g><g><path fill="none" stroke="#000000" paint-order="fill stroke markers" d=" M 713.3671875 162 L 703.3671875 172 L 703.3671875 206 L 713.3671875 196 L 713.3671875 162" stroke-miterlimit="10" stroke-dasharray=""/></g><g><g><path fill="none" stroke="none"/><text fill="#000000" stroke="none" font-family="Arial" font-size="13px" font-style="normal" font-weight="bold" text-decoration="undefined" x="803.68359375" y="295.5" text-anchor="middle" dominant-baseline="central" transform="matrix(1 0 0 1 -158 -110)">EZElectronics PC</text></g></g><g><path fill="#C0C0C0" stroke="none" paint-order="stroke fill markers" d=" M 593 43 L 716.86083984375 43 L 716.86083984375 77 L 593 77" fill-opacity="0.2"/></g><g><path fill="#C0C0C0" stroke="none" paint-order="stroke fill markers" d=" M 593 43 L 603 33 L 726.86083984375 33 L 716.86083984375 43" fill-opacity="0.2"/></g><g><path fill="#C0C0C0" stroke="none" paint-order="stroke fill markers" d=" M 726.86083984375 33 L 716.86083984375 43 L 716.86083984375 77 L 726.86083984375 67" fill-opacity="0.2"/></g><g><path fill="#ffffff" stroke="none" paint-order="stroke fill markers" d=" M 586 36 L 709.86083984375 36 L 709.86083984375 70 L 586 70"/></g><g><path fill="#ffffff" stroke="none" paint-order="stroke fill markers" d=" M 586 36 L 596 26 L 719.86083984375 26 L 709.86083984375 36"/></g><g><path fill="#ffffff" stroke="none" paint-order="stroke fill markers" d=" M 719.86083984375 26 L 709.86083984375 36 L 709.86083984375 70 L 719.86083984375 60"/></g><g><path fill="none" stroke="#000000" paint-order="fill stroke markers" d=" M 586 36 L 709.86083984375 36 L 709.86083984375 70 L 586 70 L 586 36" stroke-miterlimit="10" stroke-dasharray=""/></g><g><path fill="none" stroke="#000000" paint-order="fill stroke markers" d=" M 586 36 L 596 26 L 719.86083984375 26 L 709.86083984375 36 L 586 36" stroke-miterlimit="10" stroke-dasharray=""/></g><g><path fill="none" stroke="#000000" paint-order="fill stroke markers" d=" M 719.86083984375 26 L 709.86083984375 36 L 709.86083984375 70 L 719.86083984375 60 L 719.86083984375 26" stroke-miterlimit="10" stroke-dasharray=""/></g><g><g><path fill="none" stroke="none"/><text fill="#000000" stroke="none" font-family="Arial" font-size="13px" font-style="normal" font-weight="bold" text-decoration="undefined" x="806.930419921875" y="159.5" text-anchor="middle" dominant-baseline="central" transform="matrix(1 0 0 1 -158 -110)">Customer device</text></g></g><g><path fill="#C0C0C0" stroke="none" paint-order="stroke fill markers" d=" M 877 17 L 905 17 L 917 29 L 917 67 L 877 67" fill-opacity="0.2"/></g><g><path fill="#ffffff" stroke="none" paint-order="stroke fill markers" d=" M 870 10 L 898 10 L 910 22 L 910 60 L 870 60"/></g><g><path fill="none" stroke="#000000" paint-order="fill stroke markers" d=" M 870 10 L 898 10 L 910 22 L 910 60 L 870 60 L 870 10" stroke-miterlimit="10" stroke-dasharray=""/></g><g><path fill="none" stroke="#000000" paint-order="fill stroke markers" d=" M 898 10 L 898 22 L 910 22 L 898 10" stroke-miterlimit="10" stroke-dasharray=""/></g><g><g><path fill="none" stroke="none"/><text fill="#000000" stroke="none" font-family="Arial" font-size="13px" font-style="normal" font-weight="bold" text-decoration="undefined" x="1048.5" y="183.5" text-anchor="middle" dominant-baseline="central" transform="matrix(1 0 0 1 -158 -110)">Customer Browser</text></g></g><g><path fill="none" stroke="#000000" paint-order="fill stroke markers" d=" M 817 47 L 722 48" stroke-miterlimit="10" stroke-dasharray="3"/></g><g><path fill="none" stroke="#000000" paint-order="fill stroke markers" d=" M 732.1178036167929 43.68374584019753 L 722 48 L 732.2064201338691 52.10231496242707" stroke-miterlimit="10" stroke-dasharray=""/></g><g><rect fill="#ffffff" stroke="none" x="901" y="180" width="52.76806640625" height="13" transform="matrix(1 0 0 1 -158 -110)"/></g><g><g><path fill="none" stroke="none"/><text fill="#000000" stroke="none" font-family="Arial" font-size="13px" font-style="normal" font-weight="normal" text-decoration="undefined" x="927.384033203125" y="186.5" text-anchor="middle" dominant-baseline="central" transform="matrix(1 0 0 1 -158 -110)">«deploy»</text></g></g><g><path fill="#C0C0C0" stroke="none" paint-order="stroke fill markers" d=" M 877.95458984375 97 L 905.95458984375 97 L 917.95458984375 109 L 917.95458984375 147 L 877.95458984375 147" fill-opacity="0.2"/></g><g><path fill="#ffffff" stroke="none" paint-order="stroke fill markers" d=" M 870.95458984375 90 L 898.95458984375 90 L 910.95458984375 102 L 910.95458984375 140 L 870.95458984375 140"/></g><g><path fill="none" stroke="#000000" paint-order="fill stroke markers" d=" M 870.95458984375 90 L 898.95458984375 90 L 910.95458984375 102 L 910.95458984375 140 L 870.95458984375 140 L 870.95458984375 90" stroke-miterlimit="10" stroke-dasharray=""/></g><g><path fill="none" stroke="#000000" paint-order="fill stroke markers" d=" M 898.95458984375 90 L 898.95458984375 102 L 910.95458984375 102 L 898.95458984375 90" stroke-miterlimit="10" stroke-dasharray=""/></g><g><g><path fill="none" stroke="none"/><text fill="#000000" stroke="none" font-family="Arial" font-size="13px" font-style="normal" font-weight="bold" text-decoration="undefined" x="1049.45458984375" y="263.5" text-anchor="middle" dominant-baseline="central" transform="matrix(1 0 0 1 -158 -110)">Manager Browser</text></g></g><g><path fill="none" stroke="#000000" paint-order="fill stroke markers" d=" M 819 144 L 715 168" stroke-miterlimit="10" stroke-dasharray="3"/></g><g><path fill="none" stroke="#000000" paint-order="fill stroke markers" d=" M 723.9558708199186 161.61310890519263 L 715 168 L 725.8489709920335 169.8165429843569" stroke-miterlimit="10" stroke-dasharray=""/></g><g><rect fill="#ffffff" stroke="none" x="905" y="289" width="52.76806640625" height="13" transform="matrix(1 0 0 1 -158 -110)"/></g><g><g><path fill="none" stroke="none"/><text fill="#000000" stroke="none" font-family="Arial" font-size="13px" font-style="normal" font-weight="normal" text-decoration="undefined" x="931.384033203125" y="295.5" text-anchor="middle" dominant-baseline="central" transform="matrix(1 0 0 1 -158 -110)">«deploy»</text></g></g><g><path fill="#C0C0C0" stroke="none" paint-order="stroke fill markers" d=" M 409.525390625 25 L 437.525390625 25 L 449.525390625 37 L 449.525390625 75 L 409.525390625 75" fill-opacity="0.2"/></g><g><path fill="#ffffff" stroke="none" paint-order="stroke fill markers" d=" M 402.525390625 18 L 430.525390625 18 L 442.525390625 30 L 442.525390625 68 L 402.525390625 68"/></g><g><path fill="none" stroke="#000000" paint-order="fill stroke markers" d=" M 402.525390625 18 L 430.525390625 18 L 442.525390625 30 L 442.525390625 68 L 402.525390625 68 L 402.525390625 18" stroke-miterlimit="10" stroke-dasharray=""/></g><g><path fill="none" stroke="#000000" paint-order="fill stroke markers" d=" M 430.525390625 18 L 430.525390625 30 L 442.525390625 30 L 430.525390625 18" stroke-miterlimit="10" stroke-dasharray=""/></g><g><g><path fill="none" stroke="none"/><text fill="#000000" stroke="none" font-family="Arial" font-size="13px" font-style="normal" font-weight="bold" text-decoration="undefined" x="581.025390625" y="191.5" text-anchor="middle" dominant-baseline="central" transform="matrix(1 0 0 1 -158 -110)">EZElectronics backend</text></g></g><g><path fill="none" stroke="#000000" paint-order="fill stroke markers" d=" M 405 94 L 376 161" stroke-miterlimit="10" stroke-dasharray="3"/></g><g><path fill="none" stroke="#000000" paint-order="fill stroke markers" d=" M 376.1736807079444 150.0013712212982 L 376 161 L 383.9000157995223 153.3456058131752" stroke-miterlimit="10" stroke-dasharray=""/></g><g><rect fill="#ffffff" stroke="none" x="549" y="242" width="52.76806640625" height="13" transform="matrix(1 0 0 1 -158 -110)"/></g><g><g><path fill="none" stroke="none"/><text fill="#000000" stroke="none" font-family="Arial" font-size="13px" font-style="normal" font-weight="normal" text-decoration="undefined" x="575.384033203125" y="248.5" text-anchor="middle" dominant-baseline="central" transform="matrix(1 0 0 1 -158 -110)">«deploy»</text></g></g><g><path fill="none" stroke="#000000" paint-order="fill stroke markers" d=" M 415 161 L 602 72" stroke-miterlimit="10" stroke-dasharray=""/></g><g><rect fill="#ffffff" stroke="none" x="634" y="206" width="50.95263671875" height="13" transform="matrix(1 0 0 1 -158 -110)"/></g><g><g><path fill="none" stroke="none"/><text fill="#000000" stroke="none" font-family="Arial" font-size="13px" font-style="normal" font-weight="normal" text-decoration="undefined" x="659.476318359375" y="212.5" text-anchor="middle" dominant-baseline="central" transform="matrix(1 0 0 1 -158 -110)">+internet</text></g></g><g><path fill="none" stroke="#000000" paint-order="fill stroke markers" d=" M 444 184 L 585 184" stroke-miterlimit="10" stroke-dasharray=""/></g><g><rect fill="#ffffff" stroke="none" x="647" y="273" width="50.95263671875" height="13" transform="matrix(1 0 0 1 -158 -110)"/></g><g><g><path fill="none" stroke="none"/><text fill="#000000" stroke="none" font-family="Arial" font-size="13px" font-style="normal" font-weight="normal" text-decoration="undefined" x="672.476318359375" y="279.5" text-anchor="middle" dominant-baseline="central" transform="matrix(1 0 0 1 -158 -110)">+internet</text></g></g><g><path fill="#C0C0C0" stroke="none" paint-order="stroke fill markers" d=" M 279.25634765625 17 L 307.25634765625 17 L 319.25634765625 29 L 319.25634765625 67 L 279.25634765625 67" fill-opacity="0.2"/></g><g><path fill="#ffffff" stroke="none" paint-order="stroke fill markers" d=" M 272.25634765625 10 L 300.25634765625 10 L 312.25634765625 22 L 312.25634765625 60 L 272.25634765625 60"/></g><g><path fill="none" stroke="#000000" paint-order="fill stroke markers" d=" M 272.25634765625 10 L 300.25634765625 10 L 312.25634765625 22 L 312.25634765625 60 L 272.25634765625 60 L 272.25634765625 10" stroke-miterlimit="10" stroke-dasharray=""/></g><g><path fill="none" stroke="#000000" paint-order="fill stroke markers" d=" M 300.25634765625 10 L 300.25634765625 22 L 312.25634765625 22 L 300.25634765625 10" stroke-miterlimit="10" stroke-dasharray=""/></g><g><g><path fill="none" stroke="none"/><text fill="#000000" stroke="none" font-family="Arial" font-size="13px" font-style="normal" font-weight="bold" text-decoration="undefined" x="450.75634765625" y="183.5" text-anchor="middle" dominant-baseline="central" transform="matrix(1 0 0 1 -158 -110)">Inventory</text></g></g><g><path fill="none" stroke="#000000" paint-order="fill stroke markers" d=" M 313 86 L 354 161" stroke-miterlimit="10" stroke-dasharray="3"/></g><g><path fill="none" stroke="#000000" paint-order="fill stroke markers" d=" M 345.4316200159389 154.10196662455587 L 354 161 L 352.81888658611496 150.06359423285966" stroke-miterlimit="10" stroke-dasharray=""/></g><g><rect fill="#ffffff" stroke="none" x="497" y="230" width="24.654296875" height="13" transform="matrix(1 0 0 1 -158 -110)"/></g><g><g><path fill="none" stroke="none"/><text fill="#000000" stroke="none" font-family="Arial" font-size="13px" font-style="normal" font-weight="normal" text-decoration="undefined" x="509.3271484375" y="236.5" text-anchor="middle" dominant-baseline="central" transform="matrix(1 0 0 1 -158 -110)">+file</text></g></g><g><rect fill="#ffffff" stroke="none" x="491" y="212" width="52.76806640625" height="13" transform="matrix(1 0 0 1 -158 -110)"/></g><g><g><path fill="none" stroke="none"/><text fill="#000000" stroke="none" font-family="Arial" font-size="13px" font-style="normal" font-weight="normal" text-decoration="undefined" x="517.384033203125" y="218.5" text-anchor="middle" dominant-baseline="central" transform="matrix(1 0 0 1 -158 -110)">«deploy»</text></g></g><g><path fill="#C0C0C0" stroke="none" paint-order="stroke fill markers" d=" M 585 299 L 690.0908203125 299 L 690.0908203125 333 L 585 333" fill-opacity="0.2"/></g><g><path fill="#C0C0C0" stroke="none" paint-order="stroke fill markers" d=" M 585 299 L 595 289 L 700.0908203125 289 L 690.0908203125 299" fill-opacity="0.2"/></g><g><path fill="#C0C0C0" stroke="none" paint-order="stroke fill markers" d=" M 700.0908203125 289 L 690.0908203125 299 L 690.0908203125 333 L 700.0908203125 323" fill-opacity="0.2"/></g><g><path fill="#ffffff" stroke="none" paint-order="stroke fill markers" d=" M 578 292 L 683.0908203125 292 L 683.0908203125 326 L 578 326"/></g><g><path fill="#ffffff" stroke="none" paint-order="stroke fill markers" d=" M 578 292 L 588 282 L 693.0908203125 282 L 683.0908203125 292"/></g><g><path fill="#ffffff" stroke="none" paint-order="stroke fill markers" d=" M 693.0908203125 282 L 683.0908203125 292 L 683.0908203125 326 L 693.0908203125 316"/></g><g><path fill="none" stroke="#000000" paint-order="fill stroke markers" d=" M 578 292 L 683.0908203125 292 L 683.0908203125 326 L 578 326 L 578 292" stroke-miterlimit="10" stroke-dasharray=""/></g><g><path fill="none" stroke="#000000" paint-order="fill stroke markers" d=" M 578 292 L 588 282 L 693.0908203125 282 L 683.0908203125 292 L 578 292" stroke-miterlimit="10" stroke-dasharray=""/></g><g><path fill="none" stroke="#000000" paint-order="fill stroke markers" d=" M 693.0908203125 282 L 683.0908203125 292 L 683.0908203125 326 L 693.0908203125 316 L 693.0908203125 282" stroke-miterlimit="10" stroke-dasharray=""/></g><g><g><path fill="none" stroke="none"/><text fill="#000000" stroke="none" font-family="Arial" font-size="13px" font-style="normal" font-weight="bold" text-decoration="undefined" x="789.54541015625" y="415.5" text-anchor="middle" dominant-baseline="central" transform="matrix(1 0 0 1 -158 -110)">Supplier device</text></g></g><g><path fill="none" stroke="#000000" paint-order="fill stroke markers" d=" M 584 281 L 420 208" stroke-miterlimit="10" stroke-dasharray=""/></g><g><rect fill="#ffffff" stroke="none" x="628" y="361" width="50.95263671875" height="13" transform="matrix(1 0 0 1 -158 -110)"/></g><g><g><path fill="none" stroke="none"/><text fill="#000000" stroke="none" font-family="Arial" font-size="13px" font-style="normal" font-weight="normal" text-decoration="undefined" x="653.476318359375" y="367.5" text-anchor="middle" dominant-baseline="central" transform="matrix(1 0 0 1 -158 -110)">+internet</text></g></g><g><path fill="#C0C0C0" stroke="none" paint-order="stroke fill markers" d=" M 877 273 L 905 273 L 917 285 L 917 323 L 877 323" fill-opacity="0.2"/></g><g><path fill="#ffffff" stroke="none" paint-order="stroke fill markers" d=" M 870 266 L 898 266 L 910 278 L 910 316 L 870 316"/></g><g><path fill="none" stroke="#000000" paint-order="fill stroke markers" d=" M 870 266 L 898 266 L 910 278 L 910 316 L 870 316 L 870 266" stroke-miterlimit="10" stroke-dasharray=""/></g><g><path fill="none" stroke="#000000" paint-order="fill stroke markers" d=" M 898 266 L 898 278 L 910 278 L 898 266" stroke-miterlimit="10" stroke-dasharray=""/></g><g><g><path fill="none" stroke="none"/><text fill="#000000" stroke="none" font-family="Arial" font-size="13px" font-style="normal" font-weight="bold" text-decoration="undefined" x="1048.5" y="439.5" text-anchor="middle" dominant-baseline="central" transform="matrix(1 0 0 1 -158 -110)">Supplier browser</text></g></g><g><path fill="none" stroke="#000000" paint-order="fill stroke markers" d=" M 817 303 L 695 304" stroke-miterlimit="10" stroke-dasharray="3"/></g><g><path fill="none" stroke="#000000" paint-order="fill stroke markers" d=" M 705.1278303940137 299.70732583229386 L 695 304 L 705.1968365637237 308.126078536905" stroke-miterlimit="10" stroke-dasharray=""/></g><g><rect fill="#ffffff" stroke="none" x="888" y="436" width="52.76806640625" height="13" transform="matrix(1 0 0 1 -158 -110)"/></g><g><g><path fill="none" stroke="none"/><text fill="#000000" stroke="none" font-family="Arial" font-size="13px" font-style="normal" font-weight="normal" text-decoration="undefined" x="914.384033203125" y="442.5" text-anchor="middle" dominant-baseline="central" transform="matrix(1 0 0 1 -158 -110)">«deploy»</text></g></g><g><path fill="#C0C0C0" stroke="none" paint-order="stroke fill markers" d=" M 73 67 L 222 67 L 222 101 L 73 101" fill-opacity="0.2"/></g><g><path fill="#C0C0C0" stroke="none" paint-order="stroke fill markers" d=" M 73 67 L 83 57 L 232 57 L 222 67" fill-opacity="0.2"/></g><g><path fill="#C0C0C0" stroke="none" paint-order="stroke fill markers" d=" M 232 57 L 222 67 L 222 101 L 232 91" fill-opacity="0.2"/></g><g><path fill="#ffffff" stroke="none" paint-order="stroke fill markers" d=" M 66 60 L 215 60 L 215 94 L 66 94"/></g><g><path fill="#ffffff" stroke="none" paint-order="stroke fill markers" d=" M 66 60 L 76 50 L 225 50 L 215 60"/></g><g><path fill="#ffffff" stroke="none" paint-order="stroke fill markers" d=" M 225 50 L 215 60 L 215 94 L 225 84"/></g><g><path fill="none" stroke="#000000" paint-order="fill stroke markers" d=" M 66 60 L 215 60 L 215 94 L 66 94 L 66 60" stroke-miterlimit="10" stroke-dasharray=""/></g><g><path fill="none" stroke="#000000" paint-order="fill stroke markers" d=" M 66 60 L 76 50 L 225 50 L 215 60 L 66 60" stroke-miterlimit="10" stroke-dasharray=""/></g><g><path fill="none" stroke="#000000" paint-order="fill stroke markers" d=" M 225 50 L 215 60 L 215 94 L 225 84 L 225 50" stroke-miterlimit="10" stroke-dasharray=""/></g><g><g><path fill="none" stroke="none"/><text fill="#000000" stroke="none" font-family="Arial" font-size="13px" font-style="normal" font-weight="bold" text-decoration="undefined" x="299.5" y="183.5" text-anchor="middle" dominant-baseline="central" transform="matrix(1 0 0 1 -158 -110)">Payment circuit server</text></g></g><g><path fill="none" stroke="#000000" paint-order="fill stroke markers" d=" M 321 161 L 193 96" stroke-miterlimit="10" stroke-dasharray=""/></g><g><rect fill="#ffffff" stroke="none" x="383" y="245" width="50.95263671875" height="13" transform="matrix(1 0 0 1 -158 -110)"/></g><g><g><path fill="none" stroke="none"/><text fill="#000000" stroke="none" font-family="Arial" font-size="13px" font-style="normal" font-weight="normal" text-decoration="undefined" x="408.476318359375" y="251.5" text-anchor="middle" dominant-baseline="central" transform="matrix(1 0 0 1 -158 -110)">+internet</text></g></g><g><path fill="#C0C0C0" stroke="none" paint-order="stroke fill markers" d=" M 33 171 L 227.65625 171 L 227.65625 205 L 33 205" fill-opacity="0.2"/></g><g><path fill="#C0C0C0" stroke="none" paint-order="stroke fill markers" d=" M 33 171 L 43 161 L 237.65625 161 L 227.65625 171" fill-opacity="0.2"/></g><g><path fill="#C0C0C0" stroke="none" paint-order="stroke fill markers" d=" M 237.65625 161 L 227.65625 171 L 227.65625 205 L 237.65625 195" fill-opacity="0.2"/></g><g><path fill="#ffffff" stroke="none" paint-order="stroke fill markers" d=" M 26 164 L 220.65625 164 L 220.65625 198 L 26 198"/></g><g><path fill="#ffffff" stroke="none" paint-order="stroke fill markers" d=" M 26 164 L 36 154 L 230.65625 154 L 220.65625 164"/></g><g><path fill="#ffffff" stroke="none" paint-order="stroke fill markers" d=" M 230.65625 154 L 220.65625 164 L 220.65625 198 L 230.65625 188"/></g><g><path fill="none" stroke="#000000" paint-order="fill stroke markers" d=" M 26 164 L 220.65625 164 L 220.65625 198 L 26 198 L 26 164" stroke-miterlimit="10" stroke-dasharray=""/></g><g><path fill="none" stroke="#000000" paint-order="fill stroke markers" d=" M 26 164 L 36 154 L 230.65625 154 L 220.65625 164 L 26 164" stroke-miterlimit="10" stroke-dasharray=""/></g><g><path fill="none" stroke="#000000" paint-order="fill stroke markers" d=" M 230.65625 154 L 220.65625 164 L 220.65625 198 L 230.65625 188 L 230.65625 154" stroke-miterlimit="10" stroke-dasharray=""/></g><g><g><path fill="none" stroke="none"/><text fill="#000000" stroke="none" font-family="Arial" font-size="13px" font-style="normal" font-weight="bold" text-decoration="undefined" x="282.328125" y="287.5" text-anchor="middle" dominant-baseline="central" transform="matrix(1 0 0 1 -158 -110)">Google authentication service</text></g></g><g><path fill="none" stroke="#000000" paint-order="fill stroke markers" d=" M 289 181 L 233 180" stroke-miterlimit="10" stroke-dasharray=""/></g><g><rect fill="#ffffff" stroke="none" x="393" y="299" width="50.95263671875" height="13" transform="matrix(1 0 0 1 -158 -110)"/></g><g><g><path fill="none" stroke="none"/><text fill="#000000" stroke="none" font-family="Arial" font-size="13px" font-style="normal" font-weight="normal" text-decoration="undefined" x="418.476318359375" y="305.5" text-anchor="middle" dominant-baseline="central" transform="matrix(1 0 0 1 -158 -110)">+internet</text></g></g><g><path fill="#C0C0C0" stroke="none" paint-order="stroke fill markers" d=" M 17 267 L 227.5634765625 267 L 227.5634765625 301 L 17 301" fill-opacity="0.2"/></g><g><path fill="#C0C0C0" stroke="none" paint-order="stroke fill markers" d=" M 17 267 L 27 257 L 237.5634765625 257 L 227.5634765625 267" fill-opacity="0.2"/></g><g><path fill="#C0C0C0" stroke="none" paint-order="stroke fill markers" d=" M 237.5634765625 257 L 227.5634765625 267 L 227.5634765625 301 L 237.5634765625 291" fill-opacity="0.2"/></g><g><path fill="#ffffff" stroke="none" paint-order="stroke fill markers" d=" M 10 260 L 220.5634765625 260 L 220.5634765625 294 L 10 294"/></g><g><path fill="#ffffff" stroke="none" paint-order="stroke fill markers" d=" M 10 260 L 20 250 L 230.5634765625 250 L 220.5634765625 260"/></g><g><path fill="#ffffff" stroke="none" paint-order="stroke fill markers" d=" M 230.5634765625 250 L 220.5634765625 260 L 220.5634765625 294 L 230.5634765625 284"/></g><g><path fill="none" stroke="#000000" paint-order="fill stroke markers" d=" M 10 260 L 220.5634765625 260 L 220.5634765625 294 L 10 294 L 10 260" stroke-miterlimit="10" stroke-dasharray=""/></g><g><path fill="none" stroke="#000000" paint-order="fill stroke markers" d=" M 10 260 L 20 250 L 230.5634765625 250 L 220.5634765625 260 L 10 260" stroke-miterlimit="10" stroke-dasharray=""/></g><g><path fill="none" stroke="#000000" paint-order="fill stroke markers" d=" M 230.5634765625 250 L 220.5634765625 260 L 220.5634765625 294 L 230.5634765625 284 L 230.5634765625 250" stroke-miterlimit="10" stroke-dasharray=""/></g><g><g><path fill="none" stroke="none"/><text fill="#000000" stroke="none" font-family="Arial" font-size="13px" font-style="normal" font-weight="bold" text-decoration="undefined" x="274.28173828125" y="383.5" text-anchor="middle" dominant-baseline="central" transform="matrix(1 0 0 1 -158 -110)">Facebook authentication service</text></g></g><g><path fill="none" stroke="#000000" paint-order="fill stroke markers" d=" M 299 208 L 184 249" stroke-miterlimit="10" stroke-dasharray=""/></g><g><rect fill="#ffffff" stroke="none" x="379" y="346" width="50.95263671875" height="13" transform="matrix(1 0 0 1 -158 -110)"/></g><g><g><path fill="none" stroke="none"/><text fill="#000000" stroke="none" font-family="Arial" font-size="13px" font-style="normal" font-weight="normal" text-decoration="undefined" x="404.476318359375" y="352.5" text-anchor="middle" dominant-baseline="central" transform="matrix(1 0 0 1 -158 -110)">+internet</text></g></g><g><path fill="#C0C0C0" stroke="none" paint-order="stroke fill markers" d=" M 193 347 L 347.970703125 347 L 347.970703125 381 L 193 381" fill-opacity="0.2"/></g><g><path fill="#C0C0C0" stroke="none" paint-order="stroke fill markers" d=" M 193 347 L 203 337 L 357.970703125 337 L 347.970703125 347" fill-opacity="0.2"/></g><g><path fill="#C0C0C0" stroke="none" paint-order="stroke fill markers" d=" M 357.970703125 337 L 347.970703125 347 L 347.970703125 381 L 357.970703125 371" fill-opacity="0.2"/></g><g><path fill="#ffffff" stroke="none" paint-order="stroke fill markers" d=" M 186 340 L 340.970703125 340 L 340.970703125 374 L 186 374"/></g><g><path fill="#ffffff" stroke="none" paint-order="stroke fill markers" d=" M 186 340 L 196 330 L 350.970703125 330 L 340.970703125 340"/></g><g><path fill="#ffffff" stroke="none" paint-order="stroke fill markers" d=" M 350.970703125 330 L 340.970703125 340 L 340.970703125 374 L 350.970703125 364"/></g><g><path fill="none" stroke="#000000" paint-order="fill stroke markers" d=" M 186 340 L 340.970703125 340 L 340.970703125 374 L 186 374 L 186 340" stroke-miterlimit="10" stroke-dasharray=""/></g><g><path fill="none" stroke="#000000" paint-order="fill stroke markers" d=" M 186 340 L 196 330 L 350.970703125 330 L 340.970703125 340 L 186 340" stroke-miterlimit="10" stroke-dasharray=""/></g><g><path fill="none" stroke="#000000" paint-order="fill stroke markers" d=" M 350.970703125 330 L 340.970703125 340 L 340.970703125 374 L 350.970703125 364 L 350.970703125 330" stroke-miterlimit="10" stroke-dasharray=""/></g><g><g><path fill="none" stroke="none"/><text fill="#000000" stroke="none" font-family="Arial" font-size="13px" font-style="normal" font-weight="bold" text-decoration="undefined" x="422.4853515625" y="463.5" text-anchor="middle" dominant-baseline="central" transform="matrix(1 0 0 1 -158 -110)">Email service provider</text></g></g><g><path fill="none" stroke="#000000" paint-order="fill stroke markers" d=" M 281 329 L 352 208" stroke-miterlimit="10" stroke-dasharray=""/></g><g><rect fill="#ffffff" stroke="none" x="436" y="364" width="50.95263671875" height="13" transform="matrix(1 0 0 1 -158 -110)"/></g><g><g><path fill="none" stroke="none"/><text fill="#000000" stroke="none" font-family="Arial" font-size="13px" font-style="normal" font-weight="normal" text-decoration="undefined" x="461.476318359375" y="370.5" text-anchor="middle" dominant-baseline="central" transform="matrix(1 0 0 1 -158 -110)">+internet</text></g></g><g><path fill="#C0C0C0" stroke="none" paint-order="stroke fill markers" d=" M 425 355 L 598.76611328125 355 L 598.76611328125 389 L 425 389" fill-opacity="0.2"/></g><g><path fill="#C0C0C0" stroke="none" paint-order="stroke fill markers" d=" M 425 355 L 435 345 L 608.76611328125 345 L 598.76611328125 355" fill-opacity="0.2"/></g><g><path fill="#C0C0C0" stroke="none" paint-order="stroke fill markers" d=" M 608.76611328125 345 L 598.76611328125 355 L 598.76611328125 389 L 608.76611328125 379" fill-opacity="0.2"/></g><g><path fill="#ffffff" stroke="none" paint-order="stroke fill markers" d=" M 418 348 L 591.76611328125 348 L 591.76611328125 382 L 418 382"/></g><g><path fill="#ffffff" stroke="none" paint-order="stroke fill markers" d=" M 418 348 L 428 338 L 601.76611328125 338 L 591.76611328125 348"/></g><g><path fill="#ffffff" stroke="none" paint-order="stroke fill markers" d=" M 601.76611328125 338 L 591.76611328125 348 L 591.76611328125 382 L 601.76611328125 372"/></g><g><path fill="none" stroke="#000000" paint-order="fill stroke markers" d=" M 418 348 L 591.76611328125 348 L 591.76611328125 382 L 418 382 L 418 348" stroke-miterlimit="10" stroke-dasharray=""/></g><g><path fill="none" stroke="#000000" paint-order="fill stroke markers" d=" M 418 348 L 428 338 L 601.76611328125 338 L 591.76611328125 348 L 418 348" stroke-miterlimit="10" stroke-dasharray=""/></g><g><path fill="none" stroke="#000000" paint-order="fill stroke markers" d=" M 601.76611328125 338 L 591.76611328125 348 L 591.76611328125 382 L 601.76611328125 372 L 601.76611328125 338" stroke-miterlimit="10" stroke-dasharray=""/></g><g><g><path fill="none" stroke="none"/><text fill="#000000" stroke="none" font-family="Arial" font-size="13px" font-style="normal" font-weight="bold" text-decoration="undefined" x="663.883056640625" y="471.5" text-anchor="middle" dominant-baseline="central" transform="matrix(1 0 0 1 -158 -110)">Shipment services servers</text></g></g><g><path fill="none" stroke="#000000" paint-order="fill stroke markers" d=" M 386 208 L 491 337" stroke-miterlimit="10" stroke-dasharray=""/></g><g><rect fill="#ffffff" stroke="none" x="582" y="366" width="50.95263671875" height="13" transform="matrix(1 0 0 1 -158 -110)"/></g><g><g><path fill="none" stroke="none"/><text fill="#000000" stroke="none" font-family="Arial" font-size="13px" font-style="normal" font-weight="normal" text-decoration="undefined" x="607.476318359375" y="372.5" text-anchor="middle" dominant-baseline="central" transform="matrix(1 0 0 1 -158 -110)">+internet</text></g></g><g><path fill="#C0C0C0" stroke="none" paint-order="stroke fill markers" d=" M 877 185 L 905 185 L 917 197 L 917 235 L 877 235" fill-opacity="0.2"/></g><g><path fill="#ffffff" stroke="none" paint-order="stroke fill markers" d=" M 870 178 L 898 178 L 910 190 L 910 228 L 870 228"/></g><g><path fill="none" stroke="#000000" paint-order="fill stroke markers" d=" M 870 178 L 898 178 L 910 190 L 910 228 L 870 228 L 870 178" stroke-miterlimit="10" stroke-dasharray=""/></g><g><path fill="none" stroke="#000000" paint-order="fill stroke markers" d=" M 898 178 L 898 190 L 910 190 L 898 178" stroke-miterlimit="10" stroke-dasharray=""/></g><g><g><path fill="none" stroke="none"/><text fill="#000000" stroke="none" font-family="Arial" font-size="13px" font-style="normal" font-weight="bold" text-decoration="undefined" x="1048.5" y="351.5" text-anchor="middle" dominant-baseline="central" transform="matrix(1 0 0 1 -158 -110)">Employee Browser</text></g></g><g><path fill="none" stroke="#000000" paint-order="fill stroke markers" d=" M 817 206 L 715 192" stroke-miterlimit="10" stroke-dasharray="3"/></g><g><path fill="none" stroke="#000000" paint-order="fill stroke markers" d=" M 725.6406899729293 189.21150275237676 L 715 192 L 724.4958693494764 197.55233872324754" stroke-miterlimit="10" stroke-dasharray=""/></g><g><rect fill="#ffffff" stroke="none" x="893" y="332" width="52.76806640625" height="13" transform="matrix(1 0 0 1 -158 -110)"/></g><g><g><path fill="none" stroke="none"/><text fill="#000000" stroke="none" font-family="Arial" font-size="13px" font-style="normal" font-weight="normal" text-decoration="undefined" x="919.384033203125" y="338.5" text-anchor="middle" dominant-baseline="central" transform="matrix(1 0 0 1 -158 -110)">«deploy»</text></g></g></svg>
