<svg version="1.1" xmlns="http://www.w3.org/2000/svg" xmlns:xlink="http://www.w3.org/1999/xlink" width="961.18994140625" height="393"><defs/><g><path fill="#C0C0C0" stroke="none" paint-order="stroke fill markers" d=" M 297 179 L 438.9580078125 179 L 438.9580078125 213 L 297 213" fill-opacity="0.2"/></g><g><path fill="#C0C0C0" stroke="none" paint-order="stroke fill markers" d=" M 297 179 L 307 169 L 448.9580078125 169 L 438.9580078125 179" fill-opacity="0.2"/></g><g><path fill="#C0C0C0" stroke="none" paint-order="stroke fill markers" d=" M 448.9580078125 169 L 438.9580078125 179 L 438.9580078125 213 L 448.9580078125 203" fill-opacity="0.2"/></g><g><path fill="#ffffff" stroke="none" paint-order="stroke fill markers" d=" M 290 172 L 431.9580078125 172 L 431.9580078125 206 L 290 206"/></g><g><path fill="#ffffff" stroke="none" paint-order="stroke fill markers" d=" M 290 172 L 300 162 L 441.9580078125 162 L 431.9580078125 172"/></g><g><path fill="#ffffff" stroke="none" paint-order="stroke fill markers" d=" M 441.9580078125 162 L 431.9580078125 172 L 431.9580078125 206 L 441.9580078125 196"/></g><g><path fill="none" stroke="#000000" paint-order="fill stroke markers" d=" M 290 172 L 431.9580078125 172 L 431.9580078125 206 L 290 206 L 290 172" stroke-miterlimit="10" stroke-dasharray=""/></g><g><path fill="none" stroke="#000000" paint-order="fill stroke markers" d=" M 290 172 L 300 162 L 441.9580078125 162 L 431.9580078125 172 L 290 172" stroke-miterlimit="10" stroke-dasharray=""/></g><g><path fill="none" stroke="#000000" paint-order="fill stroke markers" d=" M 441.9580078125 162 L 431.9580078125 172 L 431.9580078125 206 L 441.9580078125 196 L 441.9580078125 162" stroke-miterlimit="10" stroke-dasharray=""/></g><g><g><path fill="none" stroke="none"/><text fill="#000000" stroke="none" font-family="Arial" font-size="13px" font-style="normal" font-weight="bold" text-decoration="undefined" x="519.97900390625" y="295.5" text-anchor="middle" dominant-baseline="central" transform="matrix(1 0 0 1 -158 -110)">EZElectronics server</text></g></g><g><path fill="#C0C0C0" stroke="none" paint-order="stroke fill markers" d=" M 593 179 L 709.6435546875 179 L 709.6435546875 213 L 593 213" fill-opacity="0.2"/></g><g><path fill="#C0C0C0" stroke="none" paint-order="stroke fill markers" d=" M 593 179 L 603 169 L 719.6435546875 169 L 709.6435546875 179" fill-opacity="0.2"/></g><g><path fill="#C0C0C0" stroke="none" paint-order="stroke fill markers" d=" M 719.6435546875 169 L 709.6435546875 179 L 709.6435546875 213 L 719.6435546875 203" fill-opacity="0.2"/></g><g><path fill="#ffffff" stroke="none" paint-order="stroke fill markers" d=" M 586 172 L 702.6435546875 172 L 702.6435546875 206 L 586 206"/></g><g><path fill="#ffffff" stroke="none" paint-order="stroke fill markers" d=" M 586 172 L 596 162 L 712.6435546875 162 L 702.6435546875 172"/></g><g><path fill="#ffffff" stroke="none" paint-order="stroke fill markers" d=" M 712.6435546875 162 L 702.6435546875 172 L 702.6435546875 206 L 712.6435546875 196"/></g><g><path fill="none" stroke="#000000" paint-order="fill stroke markers" d=" M 586 172 L 702.6435546875 172 L 702.6435546875 206 L 586 206 L 586 172" stroke-miterlimit="10" stroke-dasharray=""/></g><g><path fill="none" stroke="#000000" paint-order="fill stroke markers" d=" M 586 172 L 596 162 L 712.6435546875 162 L 702.6435546875 172 L 586 172" stroke-miterlimit="10" stroke-dasharray=""/></g><g><path fill="none" stroke="#000000" paint-order="fill stroke markers" d=" M 712.6435546875 162 L 702.6435546875 172 L 702.6435546875 206 L 712.6435546875 196 L 712.6435546875 162" stroke-miterlimit="10" stroke-dasharray=""/></g><g><g><path fill="none" stroke="none"/><text fill="#000000" stroke="none" font-family="Arial" font-size="13px" font-style="normal" font-weight="bold" text-decoration="undefined" x="803.32177734375" y="295.5" text-anchor="middle" dominant-baseline="central" transform="matrix(1 0 0 1 -158 -110)">Manager PC</text></g></g><g><path fill="#C0C0C0" stroke="none" paint-order="stroke fill markers" d=" M 593 75 L 716.86083984375 75 L 716.86083984375 109 L 593 109" fill-opacity="0.2"/></g><g><path fill="#C0C0C0" stroke="none" paint-order="stroke fill markers" d=" M 593 75 L 603 65 L 726.86083984375 65 L 716.86083984375 75" fill-opacity="0.2"/></g><g><path fill="#C0C0C0" stroke="none" paint-order="stroke fill markers" d=" M 726.86083984375 65 L 716.86083984375 75 L 716.86083984375 109 L 726.86083984375 99" fill-opacity="0.2"/></g><g><path fill="#ffffff" stroke="none" paint-order="stroke fill markers" d=" M 586 68 L 709.86083984375 68 L 709.86083984375 102 L 586 102"/></g><g><path fill="#ffffff" stroke="none" paint-order="stroke fill markers" d=" M 586 68 L 596 58 L 719.86083984375 58 L 709.86083984375 68"/></g><g><path fill="#ffffff" stroke="none" paint-order="stroke fill markers" d=" M 719.86083984375 58 L 709.86083984375 68 L 709.86083984375 102 L 719.86083984375 92"/></g><g><path fill="none" stroke="#000000" paint-order="fill stroke markers" d=" M 586 68 L 709.86083984375 68 L 709.86083984375 102 L 586 102 L 586 68" stroke-miterlimit="10" stroke-dasharray=""/></g><g><path fill="none" stroke="#000000" paint-order="fill stroke markers" d=" M 586 68 L 596 58 L 719.86083984375 58 L 709.86083984375 68 L 586 68" stroke-miterlimit="10" stroke-dasharray=""/></g><g><path fill="none" stroke="#000000" paint-order="fill stroke markers" d=" M 719.86083984375 58 L 709.86083984375 68 L 709.86083984375 102 L 719.86083984375 92 L 719.86083984375 58" stroke-miterlimit="10" stroke-dasharray=""/></g><g><g><path fill="none" stroke="none"/><text fill="#000000" stroke="none" font-family="Arial" font-size="13px" font-style="normal" font-weight="bold" text-decoration="undefined" x="806.930419921875" y="191.5" text-anchor="middle" dominant-baseline="central" transform="matrix(1 0 0 1 -158 -110)">Customer device</text></g></g><g><path fill="#C0C0C0" stroke="none" paint-order="stroke fill markers" d=" M 860.154052734375 49 L 888.154052734375 49 L 900.154052734375 61 L 900.154052734375 99 L 860.154052734375 99" fill-opacity="0.2"/></g><g><path fill="#ffffff" stroke="none" paint-order="stroke fill markers" d=" M 853.154052734375 42 L 881.154052734375 42 L 893.154052734375 54 L 893.154052734375 92 L 853.154052734375 92"/></g><g><path fill="none" stroke="#000000" paint-order="fill stroke markers" d=" M 853.154052734375 42 L 881.154052734375 42 L 893.154052734375 54 L 893.154052734375 92 L 853.154052734375 92 L 853.154052734375 42" stroke-miterlimit="10" stroke-dasharray=""/></g><g><path fill="none" stroke="#000000" paint-order="fill stroke markers" d=" M 881.154052734375 42 L 881.154052734375 54 L 893.154052734375 54 L 881.154052734375 42" stroke-miterlimit="10" stroke-dasharray=""/></g><g><g><path fill="none" stroke="none"/><text fill="#000000" stroke="none" font-family="Arial" font-size="13px" font-style="normal" font-weight="bold" text-decoration="undefined" x="1031.654052734375" y="215.5" text-anchor="middle" dominant-baseline="central" transform="matrix(1 0 0 1 -158 -110)">Customer Browser</text></g></g><g><path fill="none" stroke="#000000" paint-order="fill stroke markers" d=" M 809 79 L 722 80" stroke-miterlimit="10" stroke-dasharray="3"/></g><g><path fill="none" stroke="#000000" paint-order="fill stroke markers" d=" M 732.1136215231649 75.67395565369748 L 722 80 L 732.2103856543683 84.09243506839985" stroke-miterlimit="10" stroke-dasharray=""/></g><g><rect fill="#ffffff" stroke="none" x="897" y="212" width="52.76806640625" height="13" transform="matrix(1 0 0 1 -158 -110)"/></g><g><g><path fill="none" stroke="none"/><text fill="#000000" stroke="none" font-family="Arial" font-size="13px" font-style="normal" font-weight="normal" text-decoration="undefined" x="923.384033203125" y="218.5" text-anchor="middle" dominant-baseline="central" transform="matrix(1 0 0 1 -158 -110)">«deploy»</text></g></g><g><path fill="#C0C0C0" stroke="none" paint-order="stroke fill markers" d=" M 861 153 L 889 153 L 901 165 L 901 203 L 861 203" fill-opacity="0.2"/></g><g><path fill="#ffffff" stroke="none" paint-order="stroke fill markers" d=" M 854 146 L 882 146 L 894 158 L 894 196 L 854 196"/></g><g><path fill="none" stroke="#000000" paint-order="fill stroke markers" d=" M 854 146 L 882 146 L 894 158 L 894 196 L 854 196 L 854 146" stroke-miterlimit="10" stroke-dasharray=""/></g><g><path fill="none" stroke="#000000" paint-order="fill stroke markers" d=" M 882 146 L 882 158 L 894 158 L 882 146" stroke-miterlimit="10" stroke-dasharray=""/></g><g><g><path fill="none" stroke="none"/><text fill="#000000" stroke="none" font-family="Arial" font-size="13px" font-style="normal" font-weight="bold" text-decoration="undefined" x="1032.5" y="319.5" text-anchor="middle" dominant-baseline="central" transform="matrix(1 0 0 1 -158 -110)">Manager Browser</text></g></g><g><path fill="none" stroke="#000000" paint-order="fill stroke markers" d=" M 809 183 L 715 184" stroke-miterlimit="10" stroke-dasharray="3"/></g><g><path fill="none" stroke="#000000" paint-order="fill stroke markers" d=" M 725.1173202643603 179.68261298140135 L 715 184 L 725.2068794042232 188.10117212850736" stroke-miterlimit="10" stroke-dasharray=""/></g><g><rect fill="#ffffff" stroke="none" x="894" y="316" width="52.76806640625" height="13" transform="matrix(1 0 0 1 -158 -110)"/></g><g><g><path fill="none" stroke="none"/><text fill="#000000" stroke="none" font-family="Arial" font-size="13px" font-style="normal" font-weight="normal" text-decoration="undefined" x="920.384033203125" y="322.5" text-anchor="middle" dominant-baseline="central" transform="matrix(1 0 0 1 -158 -110)">«deploy»</text></g></g><g><path fill="#C0C0C0" stroke="none" paint-order="stroke fill markers" d=" M 409.525390625 25 L 437.525390625 25 L 449.525390625 37 L 449.525390625 75 L 409.525390625 75" fill-opacity="0.2"/></g><g><path fill="#ffffff" stroke="none" paint-order="stroke fill markers" d=" M 402.525390625 18 L 430.525390625 18 L 442.525390625 30 L 442.525390625 68 L 402.525390625 68"/></g><g><path fill="none" stroke="#000000" paint-order="fill stroke markers" d=" M 402.525390625 18 L 430.525390625 18 L 442.525390625 30 L 442.525390625 68 L 402.525390625 68 L 402.525390625 18" stroke-miterlimit="10" stroke-dasharray=""/></g><g><path fill="none" stroke="#000000" paint-order="fill stroke markers" d=" M 430.525390625 18 L 430.525390625 30 L 442.525390625 30 L 430.525390625 18" stroke-miterlimit="10" stroke-dasharray=""/></g><g><g><path fill="none" stroke="none"/><text fill="#000000" stroke="none" font-family="Arial" font-size="13px" font-style="normal" font-weight="bold" text-decoration="undefined" x="581.025390625" y="191.5" text-anchor="middle" dominant-baseline="central" transform="matrix(1 0 0 1 -158 -110)">EZElectronics backend</text></g></g><g><path fill="none" stroke="#000000" paint-order="fill stroke markers" d=" M 405 94 L 376 161" stroke-miterlimit="10" stroke-dasharray="3"/></g><g><path fill="none" stroke="#000000" paint-order="fill stroke markers" d=" M 376.1736807079444 150.0013712212982 L 376 161 L 383.9000157995223 153.3456058131752" stroke-miterlimit="10" stroke-dasharray=""/></g><g><rect fill="#ffffff" stroke="none" x="549" y="242" width="52.76806640625" height="13" transform="matrix(1 0 0 1 -158 -110)"/></g><g><g><path fill="none" stroke="none"/><text fill="#000000" stroke="none" font-family="Arial" font-size="13px" font-style="normal" font-weight="normal" text-decoration="undefined" x="575.384033203125" y="248.5" text-anchor="middle" dominant-baseline="central" transform="matrix(1 0 0 1 -158 -110)">«deploy»</text></g></g><g><path fill="none" stroke="#000000" paint-order="fill stroke markers" d=" M 429 161 L 587 104" stroke-miterlimit="10" stroke-dasharray=""/></g><g><rect fill="#ffffff" stroke="none" x="635" y="221" width="50.95263671875" height="13" transform="matrix(1 0 0 1 -158 -110)"/></g><g><g><path fill="none" stroke="none"/><text fill="#000000" stroke="none" font-family="Arial" font-size="13px" font-style="normal" font-weight="normal" text-decoration="undefined" x="660.476318359375" y="227.5" text-anchor="middle" dominant-baseline="central" transform="matrix(1 0 0 1 -158 -110)">+internet</text></g></g><g><path fill="none" stroke="#000000" paint-order="fill stroke markers" d=" M 444 184 L 585 184" stroke-miterlimit="10" stroke-dasharray=""/></g><g><rect fill="#ffffff" stroke="none" x="647" y="273" width="50.95263671875" height="13" transform="matrix(1 0 0 1 -158 -110)"/></g><g><g><path fill="none" stroke="none"/><text fill="#000000" stroke="none" font-family="Arial" font-size="13px" font-style="normal" font-weight="normal" text-decoration="undefined" x="672.476318359375" y="279.5" text-anchor="middle" dominant-baseline="central" transform="matrix(1 0 0 1 -158 -110)">+internet</text></g></g><g><path fill="#C0C0C0" stroke="none" paint-order="stroke fill markers" d=" M 279.25634765625 17 L 307.25634765625 17 L 319.25634765625 29 L 319.25634765625 67 L 279.25634765625 67" fill-opacity="0.2"/></g><g><path fill="#ffffff" stroke="none" paint-order="stroke fill markers" d=" M 272.25634765625 10 L 300.25634765625 10 L 312.25634765625 22 L 312.25634765625 60 L 272.25634765625 60"/></g><g><path fill="none" stroke="#000000" paint-order="fill stroke markers" d=" M 272.25634765625 10 L 300.25634765625 10 L 312.25634765625 22 L 312.25634765625 60 L 272.25634765625 60 L 272.25634765625 10" stroke-miterlimit="10" stroke-dasharray=""/></g><g><path fill="none" stroke="#000000" paint-order="fill stroke markers" d=" M 300.25634765625 10 L 300.25634765625 22 L 312.25634765625 22 L 300.25634765625 10" stroke-miterlimit="10" stroke-dasharray=""/></g><g><g><path fill="none" stroke="none"/><text fill="#000000" stroke="none" font-family="Arial" font-size="13px" font-style="normal" font-weight="bold" text-decoration="undefined" x="450.75634765625" y="183.5" text-anchor="middle" dominant-baseline="central" transform="matrix(1 0 0 1 -158 -110)">Inventory</text></g></g><g><path fill="none" stroke="#000000" paint-order="fill stroke markers" d=" M 313 86 L 354 161" stroke-miterlimit="10" stroke-dasharray="3"/></g><g><path fill="none" stroke="#000000" paint-order="fill stroke markers" d=" M 345.4316200159389 154.10196662455587 L 354 161 L 352.81888658611496 150.06359423285966" stroke-miterlimit="10" stroke-dasharray=""/></g><g><rect fill="#ffffff" stroke="none" x="497" y="230" width="24.654296875" height="13" transform="matrix(1 0 0 1 -158 -110)"/></g><g><g><path fill="none" stroke="none"/><text fill="#000000" stroke="none" font-family="Arial" font-size="13px" font-style="normal" font-weight="normal" text-decoration="undefined" x="509.3271484375" y="236.5" text-anchor="middle" dominant-baseline="central" transform="matrix(1 0 0 1 -158 -110)">+file</text></g></g><g><rect fill="#ffffff" stroke="none" x="491" y="212" width="52.76806640625" height="13" transform="matrix(1 0 0 1 -158 -110)"/></g><g><g><path fill="none" stroke="none"/><text fill="#000000" stroke="none" font-family="Arial" font-size="13px" font-style="normal" font-weight="normal" text-decoration="undefined" x="517.384033203125" y="218.5" text-anchor="middle" dominant-baseline="central" transform="matrix(1 0 0 1 -158 -110)">«deploy»</text></g></g><g><path fill="#C0C0C0" stroke="none" paint-order="stroke fill markers" d=" M 593 283 L 698.0908203125 283 L 698.0908203125 317 L 593 317" fill-opacity="0.2"/></g><g><path fill="#C0C0C0" stroke="none" paint-order="stroke fill markers" d=" M 593 283 L 603 273 L 708.0908203125 273 L 698.0908203125 283" fill-opacity="0.2"/></g><g><path fill="#C0C0C0" stroke="none" paint-order="stroke fill markers" d=" M 708.0908203125 273 L 698.0908203125 283 L 698.0908203125 317 L 708.0908203125 307" fill-opacity="0.2"/></g><g><path fill="#ffffff" stroke="none" paint-order="stroke fill markers" d=" M 586 276 L 691.0908203125 276 L 691.0908203125 310 L 586 310"/></g><g><path fill="#ffffff" stroke="none" paint-order="stroke fill markers" d=" M 586 276 L 596 266 L 701.0908203125 266 L 691.0908203125 276"/></g><g><path fill="#ffffff" stroke="none" paint-order="stroke fill markers" d=" M 701.0908203125 266 L 691.0908203125 276 L 691.0908203125 310 L 701.0908203125 300"/></g><g><path fill="none" stroke="#000000" paint-order="fill stroke markers" d=" M 586 276 L 691.0908203125 276 L 691.0908203125 310 L 586 310 L 586 276" stroke-miterlimit="10" stroke-dasharray=""/></g><g><path fill="none" stroke="#000000" paint-order="fill stroke markers" d=" M 586 276 L 596 266 L 701.0908203125 266 L 691.0908203125 276 L 586 276" stroke-miterlimit="10" stroke-dasharray=""/></g><g><path fill="none" stroke="#000000" paint-order="fill stroke markers" d=" M 701.0908203125 266 L 691.0908203125 276 L 691.0908203125 310 L 701.0908203125 300 L 701.0908203125 266" stroke-miterlimit="10" stroke-dasharray=""/></g><g><g><path fill="none" stroke="none"/><text fill="#000000" stroke="none" font-family="Arial" font-size="13px" font-style="normal" font-weight="bold" text-decoration="undefined" x="797.54541015625" y="399.5" text-anchor="middle" dominant-baseline="central" transform="matrix(1 0 0 1 -158 -110)">Supplier device</text></g></g><g><path fill="none" stroke="#000000" paint-order="fill stroke markers" d=" M 585 266 L 430 208" stroke-miterlimit="10" stroke-dasharray=""/></g><g><rect fill="#ffffff" stroke="none" x="634" y="355" width="50.95263671875" height="13" transform="matrix(1 0 0 1 -158 -110)"/></g><g><g><path fill="none" stroke="none"/><text fill="#000000" stroke="none" font-family="Arial" font-size="13px" font-style="normal" font-weight="normal" text-decoration="undefined" x="659.476318359375" y="361.5" text-anchor="middle" dominant-baseline="central" transform="matrix(1 0 0 1 -158 -110)">+internet</text></g></g><g><path fill="#C0C0C0" stroke="none" paint-order="stroke fill markers" d=" M 879.094970703125 257 L 907.094970703125 257 L 919.094970703125 269 L 919.094970703125 307 L 879.094970703125 307" fill-opacity="0.2"/></g><g><path fill="#ffffff" stroke="none" paint-order="stroke fill markers" d=" M 872.094970703125 250 L 900.094970703125 250 L 912.094970703125 262 L 912.094970703125 300 L 872.094970703125 300"/></g><g><path fill="none" stroke="#000000" paint-order="fill stroke markers" d=" M 872.094970703125 250 L 900.094970703125 250 L 912.094970703125 262 L 912.094970703125 300 L 872.094970703125 300 L 872.094970703125 250" stroke-miterlimit="10" stroke-dasharray=""/></g><g><path fill="none" stroke="#000000" paint-order="fill stroke markers" d=" M 900.094970703125 250 L 900.094970703125 262 L 912.094970703125 262 L 900.094970703125 250" stroke-miterlimit="10" stroke-dasharray=""/></g><g><g><path fill="none" stroke="none"/><text fill="#000000" stroke="none" font-family="Arial" font-size="13px" font-style="normal" font-weight="bold" text-decoration="undefined" x="1050.594970703125" y="423.5" text-anchor="middle" dominant-baseline="central" transform="matrix(1 0 0 1 -158 -110)">Supplier browser</text></g></g><g><path fill="none" stroke="#000000" paint-order="fill stroke markers" d=" M 833 287 L 703 288" stroke-miterlimit="10" stroke-dasharray="3"/></g><g><path fill="none" stroke="#000000" paint-order="fill stroke markers" d=" M 713.1299942522701 283.7124346711711 L 703 288 L 713.1947541479561 292.13122111036563" stroke-miterlimit="10" stroke-dasharray=""/></g><g><rect fill="#ffffff" stroke="none" x="900" y="420" width="52.76806640625" height="13" transform="matrix(1 0 0 1 -158 -110)"/></g><g><g><path fill="none" stroke="none"/><text fill="#000000" stroke="none" font-family="Arial" font-size="13px" font-style="normal" font-weight="normal" text-decoration="undefined" x="926.384033203125" y="426.5" text-anchor="middle" dominant-baseline="central" transform="matrix(1 0 0 1 -158 -110)">«deploy»</text></g></g><g><path fill="#C0C0C0" stroke="none" paint-order="stroke fill markers" d=" M 73 67 L 222 67 L 222 101 L 73 101" fill-opacity="0.2"/></g><g><path fill="#C0C0C0" stroke="none" paint-order="stroke fill markers" d=" M 73 67 L 83 57 L 232 57 L 222 67" fill-opacity="0.2"/></g><g><path fill="#C0C0C0" stroke="none" paint-order="stroke fill markers" d=" M 232 57 L 222 67 L 222 101 L 232 91" fill-opacity="0.2"/></g><g><path fill="#ffffff" stroke="none" paint-order="stroke fill markers" d=" M 66 60 L 215 60 L 215 94 L 66 94"/></g><g><path fill="#ffffff" stroke="none" paint-order="stroke fill markers" d=" M 66 60 L 76 50 L 225 50 L 215 60"/></g><g><path fill="#ffffff" stroke="none" paint-order="stroke fill markers" d=" M 225 50 L 215 60 L 215 94 L 225 84"/></g><g><path fill="none" stroke="#000000" paint-order="fill stroke markers" d=" M 66 60 L 215 60 L 215 94 L 66 94 L 66 60" stroke-miterlimit="10" stroke-dasharray=""/></g><g><path fill="none" stroke="#000000" paint-order="fill stroke markers" d=" M 66 60 L 76 50 L 225 50 L 215 60 L 66 60" stroke-miterlimit="10" stroke-dasharray=""/></g><g><path fill="none" stroke="#000000" paint-order="fill stroke markers" d=" M 225 50 L 215 60 L 215 94 L 225 84 L 225 50" stroke-miterlimit="10" stroke-dasharray=""/></g><g><g><path fill="none" stroke="none"/><text fill="#000000" stroke="none" font-family="Arial" font-size="13px" font-style="normal" font-weight="bold" text-decoration="undefined" x="299.5" y="183.5" text-anchor="middle" dominant-baseline="central" transform="matrix(1 0 0 1 -158 -110)">Payment circuit server</text></g></g><g><path fill="none" stroke="#000000" paint-order="fill stroke markers" d=" M 321 161 L 193 96" stroke-miterlimit="10" stroke-dasharray=""/></g><g><rect fill="#ffffff" stroke="none" x="383" y="245" width="50.95263671875" height="13" transform="matrix(1 0 0 1 -158 -110)"/></g><g><g><path fill="none" stroke="none"/><text fill="#000000" stroke="none" font-family="Arial" font-size="13px" font-style="normal" font-weight="normal" text-decoration="undefined" x="408.476318359375" y="251.5" text-anchor="middle" dominant-baseline="central" transform="matrix(1 0 0 1 -158 -110)">+internet</text></g></g><g><path fill="#C0C0C0" stroke="none" paint-order="stroke fill markers" d=" M 33 171 L 227.65625 171 L 227.65625 205 L 33 205" fill-opacity="0.2"/></g><g><path fill="#C0C0C0" stroke="none" paint-order="stroke fill markers" d=" M 33 171 L 43 161 L 237.65625 161 L 227.65625 171" fill-opacity="0.2"/></g><g><path fill="#C0C0C0" stroke="none" paint-order="stroke fill markers" d=" M 237.65625 161 L 227.65625 171 L 227.65625 205 L 237.65625 195" fill-opacity="0.2"/></g><g><path fill="#ffffff" stroke="none" paint-order="stroke fill markers" d=" M 26 164 L 220.65625 164 L 220.65625 198 L 26 198"/></g><g><path fill="#ffffff" stroke="none" paint-order="stroke fill markers" d=" M 26 164 L 36 154 L 230.65625 154 L 220.65625 164"/></g><g><path fill="#ffffff" stroke="none" paint-order="stroke fill markers" d=" M 230.65625 154 L 220.65625 164 L 220.65625 198 L 230.65625 188"/></g><g><path fill="none" stroke="#000000" paint-order="fill stroke markers" d=" M 26 164 L 220.65625 164 L 220.65625 198 L 26 198 L 26 164" stroke-miterlimit="10" stroke-dasharray=""/></g><g><path fill="none" stroke="#000000" paint-order="fill stroke markers" d=" M 26 164 L 36 154 L 230.65625 154 L 220.65625 164 L 26 164" stroke-miterlimit="10" stroke-dasharray=""/></g><g><path fill="none" stroke="#000000" paint-order="fill stroke markers" d=" M 230.65625 154 L 220.65625 164 L 220.65625 198 L 230.65625 188 L 230.65625 154" stroke-miterlimit="10" stroke-dasharray=""/></g><g><g><path fill="none" stroke="none"/><text fill="#000000" stroke="none" font-family="Arial" font-size="13px" font-style="normal" font-weight="bold" text-decoration="undefined" x="282.328125" y="287.5" text-anchor="middle" dominant-baseline="central" transform="matrix(1 0 0 1 -158 -110)">Google authentication service</text></g></g><g><path fill="none" stroke="#000000" paint-order="fill stroke markers" d=" M 289 181 L 233 180" stroke-miterlimit="10" stroke-dasharray=""/></g><g><rect fill="#ffffff" stroke="none" x="393" y="299" width="50.95263671875" height="13" transform="matrix(1 0 0 1 -158 -110)"/></g><g><g><path fill="none" stroke="none"/><text fill="#000000" stroke="none" font-family="Arial" font-size="13px" font-style="normal" font-weight="normal" text-decoration="undefined" x="418.476318359375" y="305.5" text-anchor="middle" dominant-baseline="central" transform="matrix(1 0 0 1 -158 -110)">+internet</text></g></g><g><path fill="#C0C0C0" stroke="none" paint-order="stroke fill markers" d=" M 17 267 L 227.5634765625 267 L 227.5634765625 301 L 17 301" fill-opacity="0.2"/></g><g><path fill="#C0C0C0" stroke="none" paint-order="stroke fill markers" d=" M 17 267 L 27 257 L 237.5634765625 257 L 227.5634765625 267" fill-opacity="0.2"/></g><g><path fill="#C0C0C0" stroke="none" paint-order="stroke fill markers" d=" M 237.5634765625 257 L 227.5634765625 267 L 227.5634765625 301 L 237.5634765625 291" fill-opacity="0.2"/></g><g><path fill="#ffffff" stroke="none" paint-order="stroke fill markers" d=" M 10 260 L 220.5634765625 260 L 220.5634765625 294 L 10 294"/></g><g><path fill="#ffffff" stroke="none" paint-order="stroke fill markers" d=" M 10 260 L 20 250 L 230.5634765625 250 L 220.5634765625 260"/></g><g><path fill="#ffffff" stroke="none" paint-order="stroke fill markers" d=" M 230.5634765625 250 L 220.5634765625 260 L 220.5634765625 294 L 230.5634765625 284"/></g><g><path fill="none" stroke="#000000" paint-order="fill stroke markers" d=" M 10 260 L 220.5634765625 260 L 220.5634765625 294 L 10 294 L 10 260" stroke-miterlimit="10" stroke-dasharray=""/></g><g><path fill="none" stroke="#000000" paint-order="fill stroke markers" d=" M 10 260 L 20 250 L 230.5634765625 250 L 220.5634765625 260 L 10 260" stroke-miterlimit="10" stroke-dasharray=""/></g><g><path fill="none" stroke="#000000" paint-order="fill stroke markers" d=" M 230.5634765625 250 L 220.5634765625 260 L 220.5634765625 294 L 230.5634765625 284 L 230.5634765625 250" stroke-miterlimit="10" stroke-dasharray=""/></g><g><g><path fill="none" stroke="none"/><text fill="#000000" stroke="none" font-family="Arial" font-size="13px" font-style="normal" font-weight="bold" text-decoration="undefined" x="274.28173828125" y="383.5" text-anchor="middle" dominant-baseline="central" transform="matrix(1 0 0 1 -158 -110)">Facebook authentication service</text></g></g><g><path fill="none" stroke="#000000" paint-order="fill stroke markers" d=" M 299 208 L 184 249" stroke-miterlimit="10" stroke-dasharray=""/></g><g><rect fill="#ffffff" stroke="none" x="379" y="346" width="50.95263671875" height="13" transform="matrix(1 0 0 1 -158 -110)"/></g><g><g><path fill="none" stroke="none"/><text fill="#000000" stroke="none" font-family="Arial" font-size="13px" font-style="normal" font-weight="normal" text-decoration="undefined" x="404.476318359375" y="352.5" text-anchor="middle" dominant-baseline="central" transform="matrix(1 0 0 1 -158 -110)">+internet</text></g></g><g><path fill="#C0C0C0" stroke="none" paint-order="stroke fill markers" d=" M 193 347 L 347.970703125 347 L 347.970703125 381 L 193 381" fill-opacity="0.2"/></g><g><path fill="#C0C0C0" stroke="none" paint-order="stroke fill markers" d=" M 193 347 L 203 337 L 357.970703125 337 L 347.970703125 347" fill-opacity="0.2"/></g><g><path fill="#C0C0C0" stroke="none" paint-order="stroke fill markers" d=" M 357.970703125 337 L 347.970703125 347 L 347.970703125 381 L 357.970703125 371" fill-opacity="0.2"/></g><g><path fill="#ffffff" stroke="none" paint-order="stroke fill markers" d=" M 186 340 L 340.970703125 340 L 340.970703125 374 L 186 374"/></g><g><path fill="#ffffff" stroke="none" paint-order="stroke fill markers" d=" M 186 340 L 196 330 L 350.970703125 330 L 340.970703125 340"/></g><g><path fill="#ffffff" stroke="none" paint-order="stroke fill markers" d=" M 350.970703125 330 L 340.970703125 340 L 340.970703125 374 L 350.970703125 364"/></g><g><path fill="none" stroke="#000000" paint-order="fill stroke markers" d=" M 186 340 L 340.970703125 340 L 340.970703125 374 L 186 374 L 186 340" stroke-miterlimit="10" stroke-dasharray=""/></g><g><path fill="none" stroke="#000000" paint-order="fill stroke markers" d=" M 186 340 L 196 330 L 350.970703125 330 L 340.970703125 340 L 186 340" stroke-miterlimit="10" stroke-dasharray=""/></g><g><path fill="none" stroke="#000000" paint-order="fill stroke markers" d=" M 350.970703125 330 L 340.970703125 340 L 340.970703125 374 L 350.970703125 364 L 350.970703125 330" stroke-miterlimit="10" stroke-dasharray=""/></g><g><g><path fill="none" stroke="none"/><text fill="#000000" stroke="none" font-family="Arial" font-size="13px" font-style="normal" font-weight="bold" text-decoration="undefined" x="422.4853515625" y="463.5" text-anchor="middle" dominant-baseline="central" transform="matrix(1 0 0 1 -158 -110)">Email service provider</text></g></g><g><path fill="none" stroke="#000000" paint-order="fill stroke markers" d=" M 281 329 L 352 208" stroke-miterlimit="10" stroke-dasharray=""/></g><g><rect fill="#ffffff" stroke="none" x="436" y="364" width="50.95263671875" height="13" transform="matrix(1 0 0 1 -158 -110)"/></g><g><g><path fill="none" stroke="none"/><text fill="#000000" stroke="none" font-family="Arial" font-size="13px" font-style="normal" font-weight="normal" text-decoration="undefined" x="461.476318359375" y="370.5" text-anchor="middle" dominant-baseline="central" transform="matrix(1 0 0 1 -158 -110)">+internet</text></g></g><g><path fill="#C0C0C0" stroke="none" paint-order="stroke fill markers" d=" M 425 355 L 598.76611328125 355 L 598.76611328125 389 L 425 389" fill-opacity="0.2"/></g><g><path fill="#C0C0C0" stroke="none" paint-order="stroke fill markers" d=" M 425 355 L 435 345 L 608.76611328125 345 L 598.76611328125 355" fill-opacity="0.2"/></g><g><path fill="#C0C0C0" stroke="none" paint-order="stroke fill markers" d=" M 608.76611328125 345 L 598.76611328125 355 L 598.76611328125 389 L 608.76611328125 379" fill-opacity="0.2"/></g><g><path fill="#ffffff" stroke="none" paint-order="stroke fill markers" d=" M 418 348 L 591.76611328125 348 L 591.76611328125 382 L 418 382"/></g><g><path fill="#ffffff" stroke="none" paint-order="stroke fill markers" d=" M 418 348 L 428 338 L 601.76611328125 338 L 591.76611328125 348"/></g><g><path fill="#ffffff" stroke="none" paint-order="stroke fill markers" d=" M 601.76611328125 338 L 591.76611328125 348 L 591.76611328125 382 L 601.76611328125 372"/></g><g><path fill="none" stroke="#000000" paint-order="fill stroke markers" d=" M 418 348 L 591.76611328125 348 L 591.76611328125 382 L 418 382 L 418 348" stroke-miterlimit="10" stroke-dasharray=""/></g><g><path fill="none" stroke="#000000" paint-order="fill stroke markers" d=" M 418 348 L 428 338 L 601.76611328125 338 L 591.76611328125 348 L 418 348" stroke-miterlimit="10" stroke-dasharray=""/></g><g><path fill="none" stroke="#000000" paint-order="fill stroke markers" d=" M 601.76611328125 338 L 591.76611328125 348 L 591.76611328125 382 L 601.76611328125 372 L 601.76611328125 338" stroke-miterlimit="10" stroke-dasharray=""/></g><g><g><path fill="none" stroke="none"/><text fill="#000000" stroke="none" font-family="Arial" font-size="13px" font-style="normal" font-weight="bold" text-decoration="undefined" x="663.883056640625" y="471.5" text-anchor="middle" dominant-baseline="central" transform="matrix(1 0 0 1 -158 -110)">Shipment services servers</text></g></g><g><path fill="none" stroke="#000000" paint-order="fill stroke markers" d=" M 386 208 L 491 337" stroke-miterlimit="10" stroke-dasharray=""/></g><g><rect fill="#ffffff" stroke="none" x="582" y="366" width="50.95263671875" height="13" transform="matrix(1 0 0 1 -158 -110)"/></g><g><g><path fill="none" stroke="none"/><text fill="#000000" stroke="none" font-family="Arial" font-size="13px" font-style="normal" font-weight="normal" text-decoration="undefined" x="607.476318359375" y="372.5" text-anchor="middle" dominant-baseline="central" transform="matrix(1 0 0 1 -158 -110)">+internet</text></g></g></svg>