<svg version="1.1" xmlns="http://www.w3.org/2000/svg" xmlns:xlink="http://www.w3.org/1999/xlink" width="1662" height="1004"><defs/><g><path fill="#ffffff" stroke="none" paint-order="stroke fill markers" d=" M 527.498623046875 519.85 C 527.498623046875 514.96227952 531.456425414875 511 536.338623046875 511 C 541.220820678875 511 545.178623046875 514.96227952 545.178623046875 519.85 C 545.178623046875 524.73772048 541.220820678875 528.7 536.338623046875 528.7 C 531.456425414875 528.7 527.498623046875 524.73772048 527.498623046875 519.85 Z"/></g><g><path fill="none" stroke="#000000" paint-order="fill stroke markers" d=" M 527.498623046875 519.85 C 527.498623046875 514.96227952 531.456425414875 511 536.338623046875 511 C 541.220820678875 511 545.178623046875 514.96227952 545.178623046875 519.85 C 545.178623046875 524.73772048 541.220820678875 528.7 536.338623046875 528.7 C 531.456425414875 528.7 527.498623046875 524.73772048 527.498623046875 519.85 Z" stroke-miterlimit="10" stroke-dasharray=""/></g><g><path fill="none" stroke="#000000" paint-order="fill stroke markers" d=" M 536.338623046875 528.7 L 536.338623046875 546.3" stroke-miterlimit="10" stroke-dasharray=""/></g><g><path fill="none" stroke="#000000" paint-order="fill stroke markers" d=" M 526.978623046875 535.3 L 545.698623046875 535.3" stroke-miterlimit="10" stroke-dasharray=""/></g><g><path fill="none" stroke="#000000" paint-order="fill stroke markers" d=" M 536.338623046875 546.3 L 523.338623046875 564" stroke-miterlimit="10" stroke-dasharray=""/></g><g><path fill="none" stroke="#000000" paint-order="fill stroke markers" d=" M 536.338623046875 546.3 L 549.338623046875 564" stroke-miterlimit="10" stroke-dasharray=""/></g><g><g><path fill="none" stroke="none"/><text fill="#000000" stroke="none" font-family="Arial" font-size="13px" font-style="normal" font-weight="bold" text-decoration="undefined" x="686.838623046875" y="568.5" text-anchor="middle" dominant-baseline="central" transform="matrix(1 0 0 1 -150 10)">Customer</text></g></g><g><path fill="#ffffff" stroke="none" paint-order="stroke fill markers" d=" M 1144.88998046875 523.85 C 1144.88998046875 518.96227952 1148.84778283675 515 1153.72998046875 515 C 1158.61217810075 515 1162.56998046875 518.96227952 1162.56998046875 523.85 C 1162.56998046875 528.73772048 1158.61217810075 532.7 1153.72998046875 532.7 C 1148.84778283675 532.7 1144.88998046875 528.73772048 1144.88998046875 523.85 Z"/></g><g><path fill="none" stroke="#000000" paint-order="fill stroke markers" d=" M 1144.88998046875 523.85 C 1144.88998046875 518.96227952 1148.84778283675 515 1153.72998046875 515 C 1158.61217810075 515 1162.56998046875 518.96227952 1162.56998046875 523.85 C 1162.56998046875 528.73772048 1158.61217810075 532.7 1153.72998046875 532.7 C 1148.84778283675 532.7 1144.88998046875 528.73772048 1144.88998046875 523.85 Z" stroke-miterlimit="10" stroke-dasharray=""/></g><g><path fill="none" stroke="#000000" paint-order="fill stroke markers" d=" M 1153.72998046875 532.7 L 1153.72998046875 550.3" stroke-miterlimit="10" stroke-dasharray=""/></g><g><path fill="none" stroke="#000000" paint-order="fill stroke markers" d=" M 1144.36998046875 539.3 L 1163.08998046875 539.3" stroke-miterlimit="10" stroke-dasharray=""/></g><g><path fill="none" stroke="#000000" paint-order="fill stroke markers" d=" M 1153.72998046875 550.3 L 1140.72998046875 568" stroke-miterlimit="10" stroke-dasharray=""/></g><g><path fill="none" stroke="#000000" paint-order="fill stroke markers" d=" M 1153.72998046875 550.3 L 1166.72998046875 568" stroke-miterlimit="10" stroke-dasharray=""/></g><g><g><path fill="none" stroke="none"/><text fill="#000000" stroke="none" font-family="Arial" font-size="13px" font-style="normal" font-weight="bold" text-decoration="undefined" x="1304.22998046875" y="572.5" text-anchor="middle" dominant-baseline="central" transform="matrix(1 0 0 1 -150 10)">Manager</text></g></g><g><path fill="#C0C0C0" stroke="none" paint-order="stroke fill markers" d=" M 964 398.5 C 964 388.835016 1001.3842192 381 1047.5 381 C 1093.6157808 381 1131 388.835016 1131 398.5 C 1131 408.164984 1093.6157808 416 1047.5 416 C 1001.3842192 416 964 408.164984 964 398.5 Z" fill-opacity="0.2"/></g><g><path fill="#ffffff" stroke="none" paint-order="stroke fill markers" d=" M 957 391.5 C 957 381.835016 994.3842192 374 1040.5 374 C 1086.6157808 374 1124 381.835016 1124 391.5 C 1124 401.164984 1086.6157808 409 1040.5 409 C 994.3842192 409 957 401.164984 957 391.5 Z"/></g><g><path fill="none" stroke="#000000" paint-order="fill stroke markers" d=" M 957 391.5 C 957 381.835016 994.3842192 374 1040.5 374 C 1086.6157808 374 1124 381.835016 1124 391.5 C 1124 401.164984 1086.6157808 409 1040.5 409 C 994.3842192 409 957 401.164984 957 391.5 Z" stroke-miterlimit="10" stroke-dasharray=""/></g><g><g><path fill="none" stroke="none"/><text fill="#000000" stroke="none" font-family="Arial" font-size="13px" font-style="normal" font-weight="bold" text-decoration="undefined" x="1190.5" y="382.5" text-anchor="middle" dominant-baseline="central" transform="matrix(1 0 0 1 -150 10)">User Registration</text></g></g><g><path fill="none" stroke="#000000" paint-order="fill stroke markers" d=" M 573 538 L 980 410" stroke-miterlimit="10" stroke-dasharray=""/></g><g><path fill="none" stroke="#000000" paint-order="fill stroke markers" d=" M 971.5683512263286 417.06450981720917 L 980 410 L 969.0425611780461 409.0332867730612" stroke-miterlimit="10" stroke-dasharray=""/></g><g><path fill="#C0C0C0" stroke="none" paint-order="stroke fill markers" d=" M 756 398.5 C 756 388.835016 778.8334752 381 807 381 C 835.1665248 381 858 388.835016 858 398.5 C 858 408.164984 835.1665248 416 807 416 C 778.8334752 416 756 408.164984 756 398.5 Z" fill-opacity="0.2"/></g><g><path fill="#ffffff" stroke="none" paint-order="stroke fill markers" d=" M 749 391.5 C 749 381.835016 771.8334752 374 800 374 C 828.1665248 374 851 381.835016 851 391.5 C 851 401.164984 828.1665248 409 800 409 C 771.8334752 409 749 401.164984 749 391.5 Z"/></g><g><path fill="none" stroke="#000000" paint-order="fill stroke markers" d=" M 749 391.5 C 749 381.835016 771.8334752 374 800 374 C 828.1665248 374 851 381.835016 851 391.5 C 851 401.164984 828.1665248 409 800 409 C 771.8334752 409 749 401.164984 749 391.5 Z" stroke-miterlimit="10" stroke-dasharray=""/></g><g><g><path fill="none" stroke="none"/><text fill="#000000" stroke="none" font-family="Arial" font-size="13px" font-style="normal" font-weight="bold" text-decoration="undefined" x="950" y="382.5" text-anchor="middle" dominant-baseline="central" transform="matrix(1 0 0 1 -150 10)">Login</text></g></g><g><path fill="none" stroke="#000000" paint-order="fill stroke markers" d=" M 573 528 L 768 410" stroke-miterlimit="10" stroke-dasharray=""/></g><g><path fill="none" stroke="#000000" paint-order="fill stroke markers" d=" M 761.4846549669442 418.862859532918 L 768 410 L 757.125967268926 411.65994342178624" stroke-miterlimit="10" stroke-dasharray=""/></g><g><path fill="#C0C0C0" stroke="none" paint-order="stroke fill markers" d=" M 1041 962.5 C 1041 952.835016 1093.1588208 945 1157.5 945 C 1221.8411792 945 1274 952.835016 1274 962.5 C 1274 972.164984 1221.8411792 980 1157.5 980 C 1093.1588208 980 1041 972.164984 1041 962.5 Z" fill-opacity="0.2"/></g><g><path fill="#ffffff" stroke="none" paint-order="stroke fill markers" d=" M 1034 955.5 C 1034 945.835016 1086.1588208 938 1150.5 938 C 1214.8411792 938 1267 945.835016 1267 955.5 C 1267 965.164984 1214.8411792 973 1150.5 973 C 1086.1588208 973 1034 965.164984 1034 955.5 Z"/></g><g><path fill="none" stroke="#000000" paint-order="fill stroke markers" d=" M 1034 955.5 C 1034 945.835016 1086.1588208 938 1150.5 938 C 1214.8411792 938 1267 945.835016 1267 955.5 C 1267 965.164984 1214.8411792 973 1150.5 973 C 1086.1588208 973 1034 965.164984 1034 955.5 Z" stroke-miterlimit="10" stroke-dasharray=""/></g><g><g><path fill="none" stroke="none"/><text fill="#000000" stroke="none" font-family="Arial" font-size="13px" font-style="normal" font-weight="bold" text-decoration="undefined" x="1300.5" y="946.5" text-anchor="middle" dominant-baseline="central" transform="matrix(1 0 0 1 -150 10)">Authorize &amp; Authenticate</text></g></g><g><path fill="#C0C0C0" stroke="none" paint-order="stroke fill markers" d=" M 884 758.5 C 884 748.835016 914.8923488 741 953 741 C 991.1076512 741 1022 748.835016 1022 758.5 C 1022 768.164984 991.1076512 776 953 776 C 914.8923488 776 884 768.164984 884 758.5 Z" fill-opacity="0.2"/></g><g><path fill="#ffffff" stroke="none" paint-order="stroke fill markers" d=" M 877 751.5 C 877 741.835016 907.8923488 734 946 734 C 984.1076512 734 1015 741.835016 1015 751.5 C 1015 761.164984 984.1076512 769 946 769 C 907.8923488 769 877 761.164984 877 751.5 Z"/></g><g><path fill="none" stroke="#000000" paint-order="fill stroke markers" d=" M 877 751.5 C 877 741.835016 907.8923488 734 946 734 C 984.1076512 734 1015 741.835016 1015 751.5 C 1015 761.164984 984.1076512 769 946 769 C 907.8923488 769 877 761.164984 877 751.5 Z" stroke-miterlimit="10" stroke-dasharray=""/></g><g><g><path fill="none" stroke="none"/><text fill="#000000" stroke="none" font-family="Arial" font-size="13px" font-style="normal" font-weight="bold" text-decoration="undefined" x="1096" y="742.5" text-anchor="middle" dominant-baseline="central" transform="matrix(1 0 0 1 -150 10)">Add a product</text></g></g><g><path fill="none" stroke="#000000" paint-order="fill stroke markers" d=" M 1121 584 L 965 733" stroke-miterlimit="10" stroke-dasharray=""/></g><g><path fill="none" stroke="#000000" paint-order="fill stroke markers" d=" M 969.4415898462696 722.9365870780578 L 965 733 L 975.2565858185324 729.0247707805609" stroke-miterlimit="10" stroke-dasharray=""/></g><g><path fill="none" stroke="#000000" paint-order="fill stroke markers" d=" M 965 770 L 1132 937" stroke-miterlimit="10" stroke-dasharray="3"/></g><g><path fill="none" stroke="#000000" paint-order="fill stroke markers" d=" M 1121.837325142376 932.790482243984 L 1132 937 L 1127.7904822439841 926.8373251423759" stroke-miterlimit="10" stroke-dasharray=""/></g><g><rect fill="#ffffff" stroke="none" x="1192" y="815" width="55.65625" height="13" transform="matrix(1 0 0 1 -150 10)"/></g><g><g><path fill="none" stroke="none"/><text fill="#000000" stroke="none" font-family="Arial" font-size="13px" font-style="normal" font-weight="normal" text-decoration="undefined" x="1219.828125" y="821.5" text-anchor="middle" dominant-baseline="central" transform="matrix(1 0 0 1 -150 10)">«include»</text></g></g><g><path fill="#C0C0C0" stroke="none" paint-order="stroke fill markers" d=" M 1036 758.5 C 1036 748.835016 1066.2207760000001 741 1103.5 741 C 1140.7792239999999 741 1171 748.835016 1171 758.5 C 1171 768.164984 1140.7792239999999 776 1103.5 776 C 1066.2207760000001 776 1036 768.164984 1036 758.5 Z" fill-opacity="0.2"/></g><g><path fill="#ffffff" stroke="none" paint-order="stroke fill markers" d=" M 1029 751.5 C 1029 741.835016 1059.2207760000001 734 1096.5 734 C 1133.7792239999999 734 1164 741.835016 1164 751.5 C 1164 761.164984 1133.7792239999999 769 1096.5 769 C 1059.2207760000001 769 1029 761.164984 1029 751.5 Z"/></g><g><path fill="none" stroke="#000000" paint-order="fill stroke markers" d=" M 1029 751.5 C 1029 741.835016 1059.2207760000001 734 1096.5 734 C 1133.7792239999999 734 1164 741.835016 1164 751.5 C 1164 761.164984 1133.7792239999999 769 1096.5 769 C 1059.2207760000001 769 1029 761.164984 1029 751.5 Z" stroke-miterlimit="10" stroke-dasharray=""/></g><g><g><path fill="none" stroke="none"/><text fill="#000000" stroke="none" font-family="Arial" font-size="13px" font-style="normal" font-weight="bold" text-decoration="undefined" x="1246.5" y="742.5" text-anchor="middle" dominant-baseline="central" transform="matrix(1 0 0 1 -150 10)">Sell a product</text></g></g><g><path fill="none" stroke="#000000" paint-order="fill stroke markers" d=" M 1101 770 L 1145 937" stroke-miterlimit="10" stroke-dasharray="3"/></g><g><path fill="none" stroke="#000000" paint-order="fill stroke markers" d=" M 1138.3401693651467 928.2451924113052 L 1145 937 L 1146.4813724104908 926.1002047825917" stroke-miterlimit="10" stroke-dasharray=""/></g><g><rect fill="#ffffff" stroke="none" x="1275" y="829" width="55.65625" height="13" transform="matrix(1 0 0 1 -150 10)"/></g><g><g><path fill="none" stroke="none"/><text fill="#000000" stroke="none" font-family="Arial" font-size="13px" font-style="normal" font-weight="normal" text-decoration="undefined" x="1302.828125" y="835.5" text-anchor="middle" dominant-baseline="central" transform="matrix(1 0 0 1 -150 10)">«include»</text></g></g><g><path fill="#C0C0C0" stroke="none" paint-order="stroke fill markers" d=" M 1180 758.5 C 1180 748.835016 1215.3695008 741 1259 741 C 1302.6304992 741 1338 748.835016 1338 758.5 C 1338 768.164984 1302.6304992 776 1259 776 C 1215.3695008 776 1180 768.164984 1180 758.5 Z" fill-opacity="0.2"/></g><g><path fill="#ffffff" stroke="none" paint-order="stroke fill markers" d=" M 1173 751.5 C 1173 741.835016 1208.3695008 734 1252 734 C 1295.6304992 734 1331 741.835016 1331 751.5 C 1331 761.164984 1295.6304992 769 1252 769 C 1208.3695008 769 1173 761.164984 1173 751.5 Z"/></g><g><path fill="none" stroke="#000000" paint-order="fill stroke markers" d=" M 1173 751.5 C 1173 741.835016 1208.3695008 734 1252 734 C 1295.6304992 734 1331 741.835016 1331 751.5 C 1331 761.164984 1295.6304992 769 1252 769 C 1208.3695008 769 1173 761.164984 1173 751.5 Z" stroke-miterlimit="10" stroke-dasharray=""/></g><g><g><path fill="none" stroke="none"/><text fill="#000000" stroke="none" font-family="Arial" font-size="13px" font-style="normal" font-weight="bold" text-decoration="undefined" x="1402" y="742.5" text-anchor="middle" dominant-baseline="central" transform="matrix(1 0 0 1 -150 10)">Delete a product</text></g></g><g><path fill="none" stroke="#000000" paint-order="fill stroke markers" d=" M 1174 595 L 1243 733" stroke-miterlimit="10" stroke-dasharray=""/></g><g><path fill="none" stroke="#000000" paint-order="fill stroke markers" d=" M 1234.6900064950473 725.7927808450386 L 1243 733 L 1242.2202207790026 722.0276737030609" stroke-miterlimit="10" stroke-dasharray=""/></g><g><path fill="none" stroke="#000000" paint-order="fill stroke markers" d=" M 1243 770 L 1159 937" stroke-miterlimit="10" stroke-dasharray="3"/></g><g><path fill="none" stroke="#000000" paint-order="fill stroke markers" d=" M 1159.8060264988726 926.029570597141 L 1159 937 L 1167.3272118264588 929.8126817798789" stroke-miterlimit="10" stroke-dasharray=""/></g><g><rect fill="#ffffff" stroke="none" x="1350" y="850" width="55.65625" height="13" transform="matrix(1 0 0 1 -150 10)"/></g><g><g><path fill="none" stroke="none"/><text fill="#000000" stroke="none" font-family="Arial" font-size="13px" font-style="normal" font-weight="normal" text-decoration="undefined" x="1377.828125" y="856.5" text-anchor="middle" dominant-baseline="central" transform="matrix(1 0 0 1 -150 10)">«include»</text></g></g><g><path fill="#C0C0C0" stroke="none" paint-order="stroke fill markers" d=" M 708 758.5 C 708 748.835016 744.7126464 741 790 741 C 835.2873536 741 872 748.835016 872 758.5 C 872 768.164984 835.2873536 776 790 776 C 744.7126464 776 708 768.164984 708 758.5 Z" fill-opacity="0.2"/></g><g><path fill="#ffffff" stroke="none" paint-order="stroke fill markers" d=" M 701 751.5 C 701 741.835016 737.7126464 734 783 734 C 828.2873536 734 865 741.835016 865 751.5 C 865 761.164984 828.2873536 769 783 769 C 737.7126464 769 701 761.164984 701 751.5 Z"/></g><g><path fill="none" stroke="#000000" paint-order="fill stroke markers" d=" M 701 751.5 C 701 741.835016 737.7126464 734 783 734 C 828.2873536 734 865 741.835016 865 751.5 C 865 761.164984 828.2873536 769 783 769 C 737.7126464 769 701 761.164984 701 751.5 Z" stroke-miterlimit="10" stroke-dasharray=""/></g><g><g><path fill="none" stroke="none"/><text fill="#000000" stroke="none" font-family="Arial" font-size="13px" font-style="normal" font-weight="bold" text-decoration="undefined" x="933" y="742.5" text-anchor="middle" dominant-baseline="central" transform="matrix(1 0 0 1 -150 10)">Search a product</text></g></g><g><path fill="#ffffff" stroke="none" paint-order="stroke fill markers" d=" M 483.41634765624997 923.85 C 483.41634765624997 918.96227952 487.37415002424996 915 492.25634765625 915 C 497.13854528825004 915 501.09634765625003 918.96227952 501.09634765625003 923.85 C 501.09634765625003 928.73772048 497.13854528825004 932.7 492.25634765625 932.7 C 487.37415002424996 932.7 483.41634765624997 928.73772048 483.41634765624997 923.85 Z"/></g><g><path fill="none" stroke="#000000" paint-order="fill stroke markers" d=" M 483.41634765624997 923.85 C 483.41634765624997 918.96227952 487.37415002424996 915 492.25634765625 915 C 497.13854528825004 915 501.09634765625003 918.96227952 501.09634765625003 923.85 C 501.09634765625003 928.73772048 497.13854528825004 932.7 492.25634765625 932.7 C 487.37415002424996 932.7 483.41634765624997 928.73772048 483.41634765624997 923.85 Z" stroke-miterlimit="10" stroke-dasharray=""/></g><g><path fill="none" stroke="#000000" paint-order="fill stroke markers" d=" M 492.25634765625 932.7 L 492.25634765625 950.3" stroke-miterlimit="10" stroke-dasharray=""/></g><g><path fill="none" stroke="#000000" paint-order="fill stroke markers" d=" M 482.89634765625 939.3 L 501.61634765625 939.3" stroke-miterlimit="10" stroke-dasharray=""/></g><g><path fill="none" stroke="#000000" paint-order="fill stroke markers" d=" M 492.25634765625 950.3 L 479.25634765625 968" stroke-miterlimit="10" stroke-dasharray=""/></g><g><path fill="none" stroke="#000000" paint-order="fill stroke markers" d=" M 492.25634765625 950.3 L 505.25634765625 968" stroke-miterlimit="10" stroke-dasharray=""/></g><g><g><path fill="none" stroke="none"/><text fill="#000000" stroke="none" font-family="Arial" font-size="13px" font-style="normal" font-weight="bold" text-decoration="undefined" x="642.75634765625" y="972.5" text-anchor="middle" dominant-baseline="central" transform="matrix(1 0 0 1 -150 10)">Inventory</text></g></g><g><path fill="none" stroke="#000000" paint-order="fill stroke markers" d=" M 1181 770 L 528 945" stroke-miterlimit="10" stroke-dasharray=""/></g><g><path fill="none" stroke="#000000" paint-order="fill stroke markers" d=" M 536.726607574412 938.3032604767533 L 528 945 L 538.9059533213483 946.4353334638929" stroke-miterlimit="10" stroke-dasharray=""/></g><g><path fill="none" stroke="#000000" paint-order="fill stroke markers" d=" M 1039 770 L 528 942" stroke-miterlimit="10" stroke-dasharray=""/></g><g><path fill="none" stroke="#000000" paint-order="fill stroke markers" d=" M 536.2888223236412 934.7684424577337 L 528 942 L 538.9745658497743 942.7475990964199" stroke-miterlimit="10" stroke-dasharray=""/></g><g><path fill="none" stroke="#000000" paint-order="fill stroke markers" d=" M 904 770 L 528 938" stroke-miterlimit="10" stroke-dasharray=""/></g><g><path fill="none" stroke="#000000" paint-order="fill stroke markers" d=" M 535.561379732988 930.010911407829 L 528 938 L 538.9958416033467 937.6975641652981" stroke-miterlimit="10" stroke-dasharray=""/></g><g><path fill="none" stroke="#000000" paint-order="fill stroke markers" d=" M 756 770 L 528 929" stroke-miterlimit="10" stroke-dasharray=""/></g><g><path fill="none" stroke="#000000" paint-order="fill stroke markers" d=" M 533.9279824882195 919.7339855590786 L 528 929 L 538.7437782619231 926.6396549704272" stroke-miterlimit="10" stroke-dasharray=""/></g><g><path fill="none" stroke="#000000" paint-order="fill stroke markers" d=" M 573 580 L 761 733" stroke-miterlimit="10" stroke-dasharray=""/></g><g><path fill="none" stroke="#000000" paint-order="fill stroke markers" d=" M 750.4606329513874 729.8501202856903 L 761 733 L 755.7748433964223 723.3202407846017" stroke-miterlimit="10" stroke-dasharray=""/></g><g><path fill="#C0C0C0" stroke="none" paint-order="stroke fill markers" d=" M 425 754.5 C 425 744.835016 483.87454879999996 737 556.5 737 C 629.1254512 737 688 744.835016 688 754.5 C 688 764.164984 629.1254512 772 556.5 772 C 483.87454879999996 772 425 764.164984 425 754.5 Z" fill-opacity="0.2"/></g><g><path fill="#ffffff" stroke="none" paint-order="stroke fill markers" d=" M 418 747.5 C 418 737.835016 476.87454879999996 730 549.5 730 C 622.1254512 730 681 737.835016 681 747.5 C 681 757.164984 622.1254512 765 549.5 765 C 476.87454879999996 765 418 757.164984 418 747.5 Z"/></g><g><path fill="none" stroke="#000000" paint-order="fill stroke markers" d=" M 418 747.5 C 418 737.835016 476.87454879999996 730 549.5 730 C 622.1254512 730 681 737.835016 681 747.5 C 681 757.164984 622.1254512 765 549.5 765 C 476.87454879999996 765 418 757.164984 418 747.5 Z" stroke-miterlimit="10" stroke-dasharray=""/></g><g><g><path fill="none" stroke="none"/><text fill="#000000" stroke="none" font-family="Arial" font-size="13px" font-style="normal" font-weight="bold" text-decoration="undefined" x="699.5" y="738.5" text-anchor="middle" dominant-baseline="central" transform="matrix(1 0 0 1 -150 10)">Manage cart</text></g></g><g><path fill="none" stroke="#000000" paint-order="fill stroke markers" d=" M 539 591 L 548 729" stroke-miterlimit="10" stroke-dasharray=""/></g><g><path fill="none" stroke="#000000" paint-order="fill stroke markers" d=" M 543.1380278627038 719.1328207203803 L 548 729 L 551.5392159115803 718.5849171519753" stroke-miterlimit="10" stroke-dasharray=""/></g><g><path fill="none" stroke="#000000" paint-order="fill stroke markers" d=" M 544 766 L 503 913" stroke-miterlimit="10" stroke-dasharray=""/></g><g><path fill="none" stroke="#000000" paint-order="fill stroke markers" d=" M 501.67552175089384 902.080029424598 L 503 913 L 509.7850376927472 904.3418672042986" stroke-miterlimit="10" stroke-dasharray=""/></g><g><path fill="none" stroke="#000000" paint-order="fill stroke markers" d=" M 604 766 L 1098 937" stroke-miterlimit="10" stroke-dasharray="3"/></g><g><path fill="none" stroke="#000000" paint-order="fill stroke markers" d=" M 1087.0194360637972 937.6536173520959 L 1098 937 L 1089.7733915174904 929.6977460414267" stroke-miterlimit="10" stroke-dasharray=""/></g><g><rect fill="#ffffff" stroke="none" x="983" y="806" width="55.65625" height="13" transform="matrix(1 0 0 1 -150 10)"/></g><g><g><path fill="none" stroke="none"/><text fill="#000000" stroke="none" font-family="Arial" font-size="13px" font-style="normal" font-weight="normal" text-decoration="undefined" x="1010.828125" y="812.5" text-anchor="middle" dominant-baseline="central" transform="matrix(1 0 0 1 -150 10)">«include»</text></g></g><g><path fill="#ffffff" stroke="none" paint-order="stroke fill markers" d=" M 1408.163173828125 523.85 C 1408.163173828125 518.96227952 1412.120976196125 515 1417.003173828125 515 C 1421.885371460125 515 1425.843173828125 518.96227952 1425.843173828125 523.85 C 1425.843173828125 528.73772048 1421.885371460125 532.7 1417.003173828125 532.7 C 1412.120976196125 532.7 1408.163173828125 528.73772048 1408.163173828125 523.85 Z"/></g><g><path fill="none" stroke="#000000" paint-order="fill stroke markers" d=" M 1408.163173828125 523.85 C 1408.163173828125 518.96227952 1412.120976196125 515 1417.003173828125 515 C 1421.885371460125 515 1425.843173828125 518.96227952 1425.843173828125 523.85 C 1425.843173828125 528.73772048 1421.885371460125 532.7 1417.003173828125 532.7 C 1412.120976196125 532.7 1408.163173828125 528.73772048 1408.163173828125 523.85 Z" stroke-miterlimit="10" stroke-dasharray=""/></g><g><path fill="none" stroke="#000000" paint-order="fill stroke markers" d=" M 1417.003173828125 532.7 L 1417.003173828125 550.3" stroke-miterlimit="10" stroke-dasharray=""/></g><g><path fill="none" stroke="#000000" paint-order="fill stroke markers" d=" M 1407.643173828125 539.3 L 1426.363173828125 539.3" stroke-miterlimit="10" stroke-dasharray=""/></g><g><path fill="none" stroke="#000000" paint-order="fill stroke markers" d=" M 1417.003173828125 550.3 L 1404.003173828125 568" stroke-miterlimit="10" stroke-dasharray=""/></g><g><path fill="none" stroke="#000000" paint-order="fill stroke markers" d=" M 1417.003173828125 550.3 L 1430.003173828125 568" stroke-miterlimit="10" stroke-dasharray=""/></g><g><g><path fill="none" stroke="none"/><text fill="#000000" stroke="none" font-family="Arial" font-size="13px" font-style="normal" font-weight="bold" text-decoration="undefined" x="1567.503173828125" y="572.5" text-anchor="middle" dominant-baseline="central" transform="matrix(1 0 0 1 -150 10)">Supplier</text></g></g><g><path fill="none" stroke="#000000" paint-order="fill stroke markers" d=" M 1385 546 L 852 405" stroke-miterlimit="10" stroke-dasharray=""/></g><g><path fill="none" stroke="#000000" paint-order="fill stroke markers" d=" M 862.9012678187646 403.52950350440176 L 852 405 L 860.7481584419278 411.66856235443055" stroke-miterlimit="10" stroke-dasharray=""/></g><g><path fill="#ffffff" stroke="none" paint-order="stroke fill markers" d=" M 892.8667871093751 523.85 C 892.8667871093751 518.96227952 896.824589477375 515 901.706787109375 515 C 906.588984741375 515 910.5467871093749 518.96227952 910.5467871093749 523.85 C 910.5467871093749 528.73772048 906.588984741375 532.7 901.706787109375 532.7 C 896.824589477375 532.7 892.8667871093751 528.73772048 892.8667871093751 523.85 Z"/></g><g><path fill="none" stroke="#000000" paint-order="fill stroke markers" d=" M 892.8667871093751 523.85 C 892.8667871093751 518.96227952 896.824589477375 515 901.706787109375 515 C 906.588984741375 515 910.5467871093749 518.96227952 910.5467871093749 523.85 C 910.5467871093749 528.73772048 906.588984741375 532.7 901.706787109375 532.7 C 896.824589477375 532.7 892.8667871093751 528.73772048 892.8667871093751 523.85 Z" stroke-miterlimit="10" stroke-dasharray=""/></g><g><path fill="none" stroke="#000000" paint-order="fill stroke markers" d=" M 901.706787109375 532.7 L 901.706787109375 550.3" stroke-miterlimit="10" stroke-dasharray=""/></g><g><path fill="none" stroke="#000000" paint-order="fill stroke markers" d=" M 892.3467871093751 539.3 L 911.0667871093749 539.3" stroke-miterlimit="10" stroke-dasharray=""/></g><g><path fill="none" stroke="#000000" paint-order="fill stroke markers" d=" M 901.706787109375 550.3 L 888.706787109375 568" stroke-miterlimit="10" stroke-dasharray=""/></g><g><path fill="none" stroke="#000000" paint-order="fill stroke markers" d=" M 901.706787109375 550.3 L 914.706787109375 568" stroke-miterlimit="10" stroke-dasharray=""/></g><g><g><path fill="none" stroke="none"/><text fill="#000000" stroke="none" font-family="Arial" font-size="13px" font-style="normal" font-weight="bold" text-decoration="undefined" x="1052.206787109375" y="572.5" text-anchor="middle" dominant-baseline="central" transform="matrix(1 0 0 1 -150 10)">Employee</text></g></g><g><path fill="none" stroke="#000000" paint-order="fill stroke markers" d=" M 876 513 L 812 410" stroke-miterlimit="10" stroke-dasharray=""/></g><g><path fill="none" stroke="#000000" paint-order="fill stroke markers" d=" M 820.9390912432287 416.4103547285022 L 812 410 L 813.7880867373972 420.85369733406753" stroke-miterlimit="10" stroke-dasharray=""/></g><g><path fill="#C0C0C0" stroke="none" paint-order="stroke fill markers" d=" M 1345 754.5 C 1345 744.835016 1383.7273648 737 1431.5 737 C 1479.2726352 737 1518 744.835016 1518 754.5 C 1518 764.164984 1479.2726352 772 1431.5 772 C 1383.7273648 772 1345 764.164984 1345 754.5 Z" fill-opacity="0.2"/></g><g><path fill="#ffffff" stroke="none" paint-order="stroke fill markers" d=" M 1338 747.5 C 1338 737.835016 1376.7273648 730 1424.5 730 C 1472.2726352 730 1511 737.835016 1511 747.5 C 1511 757.164984 1472.2726352 765 1424.5 765 C 1376.7273648 765 1338 757.164984 1338 747.5 Z"/></g><g><path fill="none" stroke="#000000" paint-order="fill stroke markers" d=" M 1338 747.5 C 1338 737.835016 1376.7273648 730 1424.5 730 C 1472.2726352 730 1511 737.835016 1511 747.5 C 1511 757.164984 1472.2726352 765 1424.5 765 C 1376.7273648 765 1338 757.164984 1338 747.5 Z" stroke-miterlimit="10" stroke-dasharray=""/></g><g><g><path fill="none" stroke="none"/><text fill="#000000" stroke="none" font-family="Arial" font-size="13px" font-style="normal" font-weight="bold" text-decoration="undefined" x="1574.5" y="738.5" text-anchor="middle" dominant-baseline="central" transform="matrix(1 0 0 1 -150 10)">User management</text></g></g><g><path fill="none" stroke="#000000" paint-order="fill stroke markers" d=" M 1186 578 L 1399 729" stroke-miterlimit="10" stroke-dasharray=""/></g><g><path fill="none" stroke="#000000" paint-order="fill stroke markers" d=" M 1388.274787992193 726.5566769784584 L 1399 729 L 1393.1438201367775 719.6884395824551" stroke-miterlimit="10" stroke-dasharray=""/></g><g><path fill="none" stroke="#000000" paint-order="fill stroke markers" d=" M 876 595 L 794 733" stroke-miterlimit="10" stroke-dasharray=""/></g><g><path fill="none" stroke="#000000" paint-order="fill stroke markers" d=" M 795.5725104377282 722.1129797041046 L 794 733 L 802.8102186721474 726.413646915861" stroke-miterlimit="10" stroke-dasharray=""/></g><g><path fill="#C0C0C0" stroke="none" paint-order="stroke fill markers" d=" M 257 754.5 C 257 744.835016 289.6832096 737 330 737 C 370.31679039999995 737 403 744.835016 403 754.5 C 403 764.164984 370.31679039999995 772 330 772 C 289.6832096 772 257 764.164984 257 754.5 Z" fill-opacity="0.2"/></g><g><path fill="#ffffff" stroke="none" paint-order="stroke fill markers" d=" M 250 747.5 C 250 737.835016 282.6832096 730 323 730 C 363.31679039999995 730 396 737.835016 396 747.5 C 396 757.164984 363.31679039999995 765 323 765 C 282.6832096 765 250 757.164984 250 747.5 Z"/></g><g><path fill="none" stroke="#000000" paint-order="fill stroke markers" d=" M 250 747.5 C 250 737.835016 282.6832096 730 323 730 C 363.31679039999995 730 396 737.835016 396 747.5 C 396 757.164984 363.31679039999995 765 323 765 C 282.6832096 765 250 757.164984 250 747.5 Z" stroke-miterlimit="10" stroke-dasharray=""/></g><g><g><path fill="none" stroke="none"/><text fill="#000000" stroke="none" font-family="Arial" font-size="13px" font-style="normal" font-weight="bold" text-decoration="undefined" x="473" y="738.5" text-anchor="middle" dominant-baseline="central" transform="matrix(1 0 0 1 -150 10)">Return product</text></g></g><g><path fill="#C0C0C0" stroke="none" paint-order="stroke fill markers" d=" M 17 754.5 C 17 744.835016 69.606536 737 134.5 737 C 199.393464 737 252 744.835016 252 754.5 C 252 764.164984 199.393464 772 134.5 772 C 69.606536 772 17 764.164984 17 754.5 Z" fill-opacity="0.2"/></g><g><path fill="#ffffff" stroke="none" paint-order="stroke fill markers" d=" M 10 747.5 C 10 737.835016 62.606536000000006 730 127.5 730 C 192.393464 730 245 737.835016 245 747.5 C 245 757.164984 192.393464 765 127.5 765 C 62.606536000000006 765 10 757.164984 10 747.5 Z"/></g><g><path fill="none" stroke="#000000" paint-order="fill stroke markers" d=" M 10 747.5 C 10 737.835016 62.606536000000006 730 127.5 730 C 192.393464 730 245 737.835016 245 747.5 C 245 757.164984 192.393464 765 127.5 765 C 62.606536000000006 765 10 757.164984 10 747.5 Z" stroke-miterlimit="10" stroke-dasharray=""/></g><g><g><path fill="none" stroke="none"/><text fill="#000000" stroke="none" font-family="Arial" font-size="13px" font-style="normal" font-weight="bold" text-decoration="undefined" x="277.5" y="738.5" text-anchor="middle" dominant-baseline="central" transform="matrix(1 0 0 1 -150 10)">Manage returned product</text></g></g><g><path fill="none" stroke="#000000" paint-order="fill stroke markers" d=" M 865 563 L 199 729" stroke-miterlimit="10" stroke-dasharray=""/></g><g><path fill="none" stroke="#000000" paint-order="fill stroke markers" d=" M 207.8429105823102 722.4576049925683 L 199 729 L 209.87905391313376 730.6267101632219" stroke-miterlimit="10" stroke-dasharray=""/></g><g><path fill="none" stroke="#000000" paint-order="fill stroke markers" d=" M 500 583 L 342 729" stroke-miterlimit="10" stroke-dasharray=""/></g><g><path fill="none" stroke="#000000" paint-order="fill stroke markers" d=" M 346.6070880539684 719.0112693667824 L 342 729 L 352.3208023706786 725.1946040382907" stroke-miterlimit="10" stroke-dasharray=""/></g><g><path fill="#C0C0C0" stroke="none" paint-order="stroke fill markers" d=" M 1537 754.5 C 1537 744.835016 1564.3106272 737 1598 737 C 1631.6893728 737 1659 744.835016 1659 754.5 C 1659 764.164984 1631.6893728 772 1598 772 C 1564.3106272 772 1537 764.164984 1537 754.5 Z" fill-opacity="0.2"/></g><g><path fill="#ffffff" stroke="none" paint-order="stroke fill markers" d=" M 1530 747.5 C 1530 737.835016 1557.3106272 730 1591 730 C 1624.6893728 730 1652 737.835016 1652 747.5 C 1652 757.164984 1624.6893728 765 1591 765 C 1557.3106272 765 1530 757.164984 1530 747.5 Z"/></g><g><path fill="none" stroke="#000000" paint-order="fill stroke markers" d=" M 1530 747.5 C 1530 737.835016 1557.3106272 730 1591 730 C 1624.6893728 730 1652 737.835016 1652 747.5 C 1652 757.164984 1624.6893728 765 1591 765 C 1557.3106272 765 1530 757.164984 1530 747.5 Z" stroke-miterlimit="10" stroke-dasharray=""/></g><g><g><path fill="none" stroke="none"/><text fill="#000000" stroke="none" font-family="Arial" font-size="13px" font-style="normal" font-weight="bold" text-decoration="undefined" x="1741" y="738.5" text-anchor="middle" dominant-baseline="central" transform="matrix(1 0 0 1 -150 10)">Edit product</text></g></g><g><path fill="none" stroke="#000000" paint-order="fill stroke markers" d=" M 220 766 L 1061 937" stroke-miterlimit="10" stroke-dasharray="3"/></g><g><path fill="none" stroke="#000000" paint-order="fill stroke markers" d=" M 1050.2023488245768 939.1001735866067 L 1061 937 L 1051.8798606482128 930.8499546177298" stroke-miterlimit="10" stroke-dasharray=""/></g><g><rect fill="#ffffff" stroke="none" x="769" y="805" width="55.65625" height="13" transform="matrix(1 0 0 1 -150 10)"/></g><g><g><path fill="none" stroke="none"/><text fill="#000000" stroke="none" font-family="Arial" font-size="13px" font-style="normal" font-weight="normal" text-decoration="undefined" x="796.828125" y="811.5" text-anchor="middle" dominant-baseline="central" transform="matrix(1 0 0 1 -150 10)">«include»</text></g></g><g><path fill="none" stroke="#000000" paint-order="fill stroke markers" d=" M 397 766 L 1078 937" stroke-miterlimit="10" stroke-dasharray="3"/></g><g><path fill="none" stroke="#000000" paint-order="fill stroke markers" d=" M 1067.1181272858107 938.6077456988535 L 1078 937 L 1069.168506125705 930.4422018978707" stroke-miterlimit="10" stroke-dasharray=""/></g><g><rect fill="#ffffff" stroke="none" x="867" y="805" width="55.65625" height="13" transform="matrix(1 0 0 1 -150 10)"/></g><g><g><path fill="none" stroke="none"/><text fill="#000000" stroke="none" font-family="Arial" font-size="13px" font-style="normal" font-weight="normal" text-decoration="undefined" x="894.828125" y="811.5" text-anchor="middle" dominant-baseline="central" transform="matrix(1 0 0 1 -150 10)">«include»</text></g></g><g><path fill="none" stroke="#000000" paint-order="fill stroke markers" d=" M 1399 766 L 1174 937" stroke-miterlimit="10" stroke-dasharray="3"/></g><g><path fill="none" stroke="#000000" paint-order="fill stroke markers" d=" M 1179.5440287542551 927.4992765974378 L 1174 937 L 1184.6382462713564 934.2021943830974" stroke-miterlimit="10" stroke-dasharray=""/></g><g><rect fill="#ffffff" stroke="none" x="1427" y="858" width="55.65625" height="13" transform="matrix(1 0 0 1 -150 10)"/></g><g><g><path fill="none" stroke="none"/><text fill="#000000" stroke="none" font-family="Arial" font-size="13px" font-style="normal" font-weight="normal" text-decoration="undefined" x="1454.828125" y="864.5" text-anchor="middle" dominant-baseline="central" transform="matrix(1 0 0 1 -150 10)">«include»</text></g></g><g><path fill="none" stroke="#000000" paint-order="fill stroke markers" d=" M 1551 766 L 1188 937" stroke-miterlimit="10" stroke-dasharray="3"/></g><g><path fill="none" stroke="#000000" paint-order="fill stroke markers" d=" M 1195.3997399054317 928.8609675432541 L 1188 937 L 1198.9875713086099 936.477241223685" stroke-miterlimit="10" stroke-dasharray=""/></g><g><rect fill="#ffffff" stroke="none" x="1504" y="862" width="55.65625" height="13" transform="matrix(1 0 0 1 -150 10)"/></g><g><g><path fill="none" stroke="none"/><text fill="#000000" stroke="none" font-family="Arial" font-size="13px" font-style="normal" font-weight="normal" text-decoration="undefined" x="1531.828125" y="868.5" text-anchor="middle" dominant-baseline="central" transform="matrix(1 0 0 1 -150 10)">«include»</text></g></g><g><path fill="none" stroke="#000000" paint-order="fill stroke markers" d=" M 1529 759 L 528 947" stroke-miterlimit="10" stroke-dasharray=""/></g><g><path fill="none" stroke="#000000" paint-order="fill stroke markers" d=" M 537.2110316732844 940.9869395883834 L 528 947 L 538.765058750642 949.2613071651649" stroke-miterlimit="10" stroke-dasharray=""/></g><g><path fill="none" stroke="#000000" paint-order="fill stroke markers" d=" M 1186 569 L 1550 729" stroke-miterlimit="10" stroke-dasharray=""/></g><g><path fill="none" stroke="#000000" paint-order="fill stroke markers" d=" M 1539.0025279826834 728.7641839099264 L 1550 729 L 1542.39036011705 721.0568658042422" stroke-miterlimit="10" stroke-dasharray=""/></g><g><path fill="#C0C0C0" stroke="none" paint-order="stroke fill markers" d=" M 433 394.5 C 433 384.835016 467.69792800000005 377 510.5 377 C 553.302072 377 588 384.835016 588 394.5 C 588 404.164984 553.302072 412 510.5 412 C 467.69792800000005 412 433 404.164984 433 394.5 Z" fill-opacity="0.2"/></g><g><path fill="#ffffff" stroke="none" paint-order="stroke fill markers" d=" M 426 387.5 C 426 377.835016 460.69792800000005 370 503.5 370 C 546.302072 370 581 377.835016 581 387.5 C 581 397.164984 546.302072 405 503.5 405 C 460.69792800000005 405 426 397.164984 426 387.5 Z"/></g><g><path fill="none" stroke="#000000" paint-order="fill stroke markers" d=" M 426 387.5 C 426 377.835016 460.69792800000005 370 503.5 370 C 546.302072 370 581 377.835016 581 387.5 C 581 397.164984 546.302072 405 503.5 405 C 460.69792800000005 405 426 397.164984 426 387.5 Z" stroke-miterlimit="10" stroke-dasharray=""/></g><g><g><path fill="none" stroke="none"/><text fill="#000000" stroke="none" font-family="Arial" font-size="13px" font-style="normal" font-weight="bold" text-decoration="undefined" x="653.5" y="378.5" text-anchor="middle" dominant-baseline="central" transform="matrix(1 0 0 1 -150 10)">Reset password</text></g></g><g><path fill="none" stroke="#000000" paint-order="fill stroke markers" d=" M 865 539 L 548 406" stroke-miterlimit="10" stroke-dasharray=""/></g><g><path fill="none" stroke="#000000" paint-order="fill stroke markers" d=" M 558.9998859645209 406.0500875986172 L 548 406 L 555.7426766771559 413.81351123842705" stroke-miterlimit="10" stroke-dasharray=""/></g><g><path fill="none" stroke="#000000" paint-order="fill stroke markers" d=" M 528 509 L 507 406" stroke-miterlimit="10" stroke-dasharray=""/></g><g><path fill="none" stroke="#000000" paint-order="fill stroke markers" d=" M 513.1548970471237 415.1168658177747 L 507 406 L 504.90557179660993 416.7987670824425" stroke-miterlimit="10" stroke-dasharray=""/></g><g><path fill="none" stroke="#000000" paint-order="fill stroke markers" d=" M 1385 548 L 582 401" stroke-miterlimit="10" stroke-dasharray=""/></g><g><path fill="none" stroke="#000000" paint-order="fill stroke markers" d=" M 592.7545641307688 398.6892965665882 L 582 401 L 591.2385392926487 406.9707111584957" stroke-miterlimit="10" stroke-dasharray=""/></g><g><path fill="none" stroke="#000000" paint-order="fill stroke markers" d=" M 525 406 L 1129 937" stroke-miterlimit="10" stroke-dasharray="3"/></g><g><path fill="none" stroke="#000000" paint-order="fill stroke markers" d=" M 1118.5880940672532 933.4514489086906 L 1129 937 L 1124.1468752499302 927.1284661698265" stroke-miterlimit="10" stroke-dasharray=""/></g><g><rect fill="#ffffff" stroke="none" x="969" y="632" width="55.65625" height="13" transform="matrix(1 0 0 1 -150 10)"/></g><g><g><path fill="none" stroke="none"/><text fill="#000000" stroke="none" font-family="Arial" font-size="13px" font-style="normal" font-weight="normal" text-decoration="undefined" x="996.828125" y="638.5" text-anchor="middle" dominant-baseline="central" transform="matrix(1 0 0 1 -150 10)">«include»</text></g></g><g><path fill="none" stroke="#000000" paint-order="fill stroke markers" d=" M 938 592 L 1078 733" stroke-miterlimit="10" stroke-dasharray=""/></g><g><path fill="none" stroke="#000000" paint-order="fill stroke markers" d=" M 1067.8523698896363 728.7543430257215 L 1078 733 L 1073.8266747730934 722.8224090988847" stroke-miterlimit="10" stroke-dasharray=""/></g><g><path fill="none" stroke="#000000" paint-order="fill stroke markers" d=" M 1385 567 L 989 733" stroke-miterlimit="10" stroke-dasharray=""/></g><g><path fill="none" stroke="#000000" paint-order="fill stroke markers" d=" M 996.7451112412343 725.1889020067018 L 989 733 L 999.9999010392946 732.9533403201472" stroke-miterlimit="10" stroke-dasharray=""/></g><g><path fill="none" stroke="#000000" paint-order="fill stroke markers" d=" M 1385 564 L 841 733" stroke-miterlimit="10" stroke-dasharray=""/></g><g><path fill="none" stroke="#000000" paint-order="fill stroke markers" d=" M 849.4562752927003 725.964986981244 L 841 733 L 851.9539950143467 734.0049841917506" stroke-miterlimit="10" stroke-dasharray=""/></g><g><path fill="#ffffff" stroke="none" paint-order="stroke fill markers" d=" M 210.17586914062503 515.85 C 210.17586914062503 510.96227952000004 214.133671508625 507 219.015869140625 507 C 223.898066772625 507 227.85586914062497 510.96227952000004 227.85586914062497 515.85 C 227.85586914062497 520.73772048 223.898066772625 524.7 219.015869140625 524.7 C 214.133671508625 524.7 210.17586914062503 520.73772048 210.17586914062503 515.85 Z"/></g><g><path fill="none" stroke="#000000" paint-order="fill stroke markers" d=" M 210.17586914062503 515.85 C 210.17586914062503 510.96227952000004 214.133671508625 507 219.015869140625 507 C 223.898066772625 507 227.85586914062497 510.96227952000004 227.85586914062497 515.85 C 227.85586914062497 520.73772048 223.898066772625 524.7 219.015869140625 524.7 C 214.133671508625 524.7 210.17586914062503 520.73772048 210.17586914062503 515.85 Z" stroke-miterlimit="10" stroke-dasharray=""/></g><g><path fill="none" stroke="#000000" paint-order="fill stroke markers" d=" M 219.015869140625 524.7 L 219.015869140625 542.3" stroke-miterlimit="10" stroke-dasharray=""/></g><g><path fill="none" stroke="#000000" paint-order="fill stroke markers" d=" M 209.655869140625 531.3 L 228.375869140625 531.3" stroke-miterlimit="10" stroke-dasharray=""/></g><g><path fill="none" stroke="#000000" paint-order="fill stroke markers" d=" M 219.015869140625 542.3 L 206.015869140625 560" stroke-miterlimit="10" stroke-dasharray=""/></g><g><path fill="none" stroke="#000000" paint-order="fill stroke markers" d=" M 219.015869140625 542.3 L 232.015869140625 560" stroke-miterlimit="10" stroke-dasharray=""/></g><g><g><path fill="none" stroke="none"/><text fill="#000000" stroke="none" font-family="Arial" font-size="13px" font-style="normal" font-weight="bold" text-decoration="undefined" x="369.515869140625" y="564.5" text-anchor="middle" dominant-baseline="central" transform="matrix(1 0 0 1 -150 10)">Shipping service</text></g></g><g><path fill="#ffffff" stroke="none" paint-order="stroke fill markers" d=" M 377.47127929687497 515.85 C 377.47127929687497 510.96227952000004 381.42908166487496 507 386.311279296875 507 C 391.19347692887504 507 395.15127929687503 510.96227952000004 395.15127929687503 515.85 C 395.15127929687503 520.73772048 391.19347692887504 524.7 386.311279296875 524.7 C 381.42908166487496 524.7 377.47127929687497 520.73772048 377.47127929687497 515.85 Z"/></g><g><path fill="none" stroke="#000000" paint-order="fill stroke markers" d=" M 377.47127929687497 515.85 C 377.47127929687497 510.96227952000004 381.42908166487496 507 386.311279296875 507 C 391.19347692887504 507 395.15127929687503 510.96227952000004 395.15127929687503 515.85 C 395.15127929687503 520.73772048 391.19347692887504 524.7 386.311279296875 524.7 C 381.42908166487496 524.7 377.47127929687497 520.73772048 377.47127929687497 515.85 Z" stroke-miterlimit="10" stroke-dasharray=""/></g><g><path fill="none" stroke="#000000" paint-order="fill stroke markers" d=" M 386.311279296875 524.7 L 386.311279296875 542.3" stroke-miterlimit="10" stroke-dasharray=""/></g><g><path fill="none" stroke="#000000" paint-order="fill stroke markers" d=" M 376.951279296875 531.3 L 395.671279296875 531.3" stroke-miterlimit="10" stroke-dasharray=""/></g><g><path fill="none" stroke="#000000" paint-order="fill stroke markers" d=" M 386.311279296875 542.3 L 373.311279296875 560" stroke-miterlimit="10" stroke-dasharray=""/></g><g><path fill="none" stroke="#000000" paint-order="fill stroke markers" d=" M 386.311279296875 542.3 L 399.311279296875 560" stroke-miterlimit="10" stroke-dasharray=""/></g><g><g><path fill="none" stroke="none"/><text fill="#000000" stroke="none" font-family="Arial" font-size="13px" font-style="normal" font-weight="bold" text-decoration="undefined" x="536.811279296875" y="564.5" text-anchor="middle" dominant-baseline="central" transform="matrix(1 0 0 1 -150 10)">Payment service</text></g></g><g><path fill="#ffffff" stroke="none" paint-order="stroke fill markers" d=" M 703.71810546875 523.85 C 703.71810546875 518.96227952 707.67590783675 515 712.55810546875 515 C 717.44030310075 515 721.39810546875 518.96227952 721.39810546875 523.85 C 721.39810546875 528.73772048 717.44030310075 532.7 712.55810546875 532.7 C 707.67590783675 532.7 703.71810546875 528.73772048 703.71810546875 523.85 Z"/></g><g><path fill="none" stroke="#000000" paint-order="fill stroke markers" d=" M 703.71810546875 523.85 C 703.71810546875 518.96227952 707.67590783675 515 712.55810546875 515 C 717.44030310075 515 721.39810546875 518.96227952 721.39810546875 523.85 C 721.39810546875 528.73772048 717.44030310075 532.7 712.55810546875 532.7 C 707.67590783675 532.7 703.71810546875 528.73772048 703.71810546875 523.85 Z" stroke-miterlimit="10" stroke-dasharray=""/></g><g><path fill="none" stroke="#000000" paint-order="fill stroke markers" d=" M 712.55810546875 532.7 L 712.55810546875 550.3" stroke-miterlimit="10" stroke-dasharray=""/></g><g><path fill="none" stroke="#000000" paint-order="fill stroke markers" d=" M 703.19810546875 539.3 L 721.91810546875 539.3" stroke-miterlimit="10" stroke-dasharray=""/></g><g><path fill="none" stroke="#000000" paint-order="fill stroke markers" d=" M 712.55810546875 550.3 L 699.55810546875 568" stroke-miterlimit="10" stroke-dasharray=""/></g><g><path fill="none" stroke="#000000" paint-order="fill stroke markers" d=" M 712.55810546875 550.3 L 725.55810546875 568" stroke-miterlimit="10" stroke-dasharray=""/></g><g><g><path fill="none" stroke="none"/><text fill="#000000" stroke="none" font-family="Arial" font-size="13px" font-style="normal" font-weight="bold" text-decoration="undefined" x="863.05810546875" y="572.5" text-anchor="middle" dominant-baseline="central" transform="matrix(1 0 0 1 -150 10)">Email service</text></g></g><g><path fill="#ffffff" stroke="none" paint-order="stroke fill markers" d=" M 786.77181640625 19.85 C 786.77181640625 14.96227952 790.72961877425 11 795.61181640625 11 C 800.49401403825 11 804.45181640625 14.96227952 804.45181640625 19.85 C 804.45181640625 24.73772048 800.49401403825 28.7 795.61181640625 28.7 C 790.72961877425 28.7 786.77181640625 24.73772048 786.77181640625 19.85 Z"/></g><g><path fill="none" stroke="#000000" paint-order="fill stroke markers" d=" M 786.77181640625 19.85 C 786.77181640625 14.96227952 790.72961877425 11 795.61181640625 11 C 800.49401403825 11 804.45181640625 14.96227952 804.45181640625 19.85 C 804.45181640625 24.73772048 800.49401403825 28.7 795.61181640625 28.7 C 790.72961877425 28.7 786.77181640625 24.73772048 786.77181640625 19.85 Z" stroke-miterlimit="10" stroke-dasharray=""/></g><g><path fill="none" stroke="#000000" paint-order="fill stroke markers" d=" M 795.61181640625 28.7 L 795.61181640625 46.3" stroke-miterlimit="10" stroke-dasharray=""/></g><g><path fill="none" stroke="#000000" paint-order="fill stroke markers" d=" M 786.25181640625 35.3 L 804.97181640625 35.3" stroke-miterlimit="10" stroke-dasharray=""/></g><g><path fill="none" stroke="#000000" paint-order="fill stroke markers" d=" M 795.61181640625 46.3 L 782.61181640625 64" stroke-miterlimit="10" stroke-dasharray=""/></g><g><path fill="none" stroke="#000000" paint-order="fill stroke markers" d=" M 795.61181640625 46.3 L 808.61181640625 64" stroke-miterlimit="10" stroke-dasharray=""/></g><g><g><path fill="none" stroke="none"/><text fill="#000000" stroke="none" font-family="Arial" font-size="13px" font-style="normal" font-weight="bold" text-decoration="undefined" x="946.11181640625" y="68.5" text-anchor="middle" dominant-baseline="central" transform="matrix(1 0 0 1 -150 10)">Google authentication</text></g></g><g><path fill="#ffffff" stroke="none" paint-order="stroke fill markers" d=" M 1002.7254296875001 19.85 C 1002.7254296875001 14.96227952 1006.6832320555 11 1011.5654296875 11 C 1016.4476273195 11 1020.4054296874999 14.96227952 1020.4054296874999 19.85 C 1020.4054296874999 24.73772048 1016.4476273195 28.7 1011.5654296875 28.7 C 1006.6832320555 28.7 1002.7254296875001 24.73772048 1002.7254296875001 19.85 Z"/></g><g><path fill="none" stroke="#000000" paint-order="fill stroke markers" d=" M 1002.7254296875001 19.85 C 1002.7254296875001 14.96227952 1006.6832320555 11 1011.5654296875 11 C 1016.4476273195 11 1020.4054296874999 14.96227952 1020.4054296874999 19.85 C 1020.4054296874999 24.73772048 1016.4476273195 28.7 1011.5654296875 28.7 C 1006.6832320555 28.7 1002.7254296875001 24.73772048 1002.7254296875001 19.85 Z" stroke-miterlimit="10" stroke-dasharray=""/></g><g><path fill="none" stroke="#000000" paint-order="fill stroke markers" d=" M 1011.5654296875 28.7 L 1011.5654296875 46.3" stroke-miterlimit="10" stroke-dasharray=""/></g><g><path fill="none" stroke="#000000" paint-order="fill stroke markers" d=" M 1002.2054296875001 35.3 L 1020.9254296874999 35.3" stroke-miterlimit="10" stroke-dasharray=""/></g><g><path fill="none" stroke="#000000" paint-order="fill stroke markers" d=" M 1011.5654296875 46.3 L 998.5654296875 64" stroke-miterlimit="10" stroke-dasharray=""/></g><g><path fill="none" stroke="#000000" paint-order="fill stroke markers" d=" M 1011.5654296875 46.3 L 1024.5654296875 64" stroke-miterlimit="10" stroke-dasharray=""/></g><g><g><path fill="none" stroke="none"/><text fill="#000000" stroke="none" font-family="Arial" font-size="13px" font-style="normal" font-weight="bold" text-decoration="undefined" x="1162.0654296875" y="68.5" text-anchor="middle" dominant-baseline="central" transform="matrix(1 0 0 1 -150 10)">Facebook authentication</text></g></g><g><path fill="#ffffff" stroke="none" paint-order="stroke fill markers" d=" M 913.8467675781251 155.85 C 913.8467675781251 150.96227952 917.804569946125 147 922.686767578125 147 C 927.568965210125 147 931.5267675781249 150.96227952 931.5267675781249 155.85 C 931.5267675781249 160.73772047999998 927.568965210125 164.7 922.686767578125 164.7 C 917.804569946125 164.7 913.8467675781251 160.73772047999998 913.8467675781251 155.85 Z"/></g><g><path fill="none" stroke="#000000" paint-order="fill stroke markers" d=" M 913.8467675781251 155.85 C 913.8467675781251 150.96227952 917.804569946125 147 922.686767578125 147 C 927.568965210125 147 931.5267675781249 150.96227952 931.5267675781249 155.85 C 931.5267675781249 160.73772047999998 927.568965210125 164.7 922.686767578125 164.7 C 917.804569946125 164.7 913.8467675781251 160.73772047999998 913.8467675781251 155.85 Z" stroke-miterlimit="10" stroke-dasharray=""/></g><g><path fill="none" stroke="#000000" paint-order="fill stroke markers" d=" M 922.686767578125 164.7 L 922.686767578125 182.3" stroke-miterlimit="10" stroke-dasharray=""/></g><g><path fill="none" stroke="#000000" paint-order="fill stroke markers" d=" M 913.3267675781251 171.3 L 932.0467675781249 171.3" stroke-miterlimit="10" stroke-dasharray=""/></g><g><path fill="none" stroke="#000000" paint-order="fill stroke markers" d=" M 922.686767578125 182.3 L 909.686767578125 200" stroke-miterlimit="10" stroke-dasharray=""/></g><g><path fill="none" stroke="#000000" paint-order="fill stroke markers" d=" M 922.686767578125 182.3 L 935.686767578125 200" stroke-miterlimit="10" stroke-dasharray=""/></g><g><g><path fill="none" stroke="none"/><text fill="#000000" stroke="none" font-family="Arial" font-size="13px" font-style="normal" font-weight="bold" text-decoration="undefined" x="1073.186767578125" y="204.5" text-anchor="middle" dominant-baseline="central" transform="matrix(1 0 0 1 -150 10)">External authentication provider</text></g></g><g><path fill="none" stroke="#000000" paint-order="fill stroke markers" d=" M 984 91 L 949 145" stroke-miterlimit="10" stroke-dasharray=""/></g><g><path fill="#FFFFFF" stroke="none" paint-order="stroke fill markers" d=" M 952.9900065223096 123.36484693948465 L 949 145 L 967.1197241100031 132.5229972278044"/></g><g><path fill="none" stroke="#000000" paint-order="fill stroke markers" d=" M 952.9900065223096 123.36484693948465 L 949 145 L 967.1197241100031 132.5229972278044 L 952.9900065223096 123.36484693948465" stroke-miterlimit="10" stroke-dasharray=""/></g><g><path fill="none" stroke="#000000" paint-order="fill stroke markers" d=" M 833 91 L 884 145" stroke-miterlimit="10" stroke-dasharray=""/></g><g><path fill="#FFFFFF" stroke="none" paint-order="stroke fill markers" d=" M 863.9233870207619 136.0039113342582 L 884 145 L 876.1648861188244 124.44249551942141"/></g><g><path fill="none" stroke="#000000" paint-order="fill stroke markers" d=" M 863.9233870207619 136.0039113342582 L 884 145 L 876.1648861188244 124.44249551942141 L 863.9233870207619 136.0039113342582" stroke-miterlimit="10" stroke-dasharray=""/></g><g><path fill="none" stroke="#000000" paint-order="fill stroke markers" d=" M 811 373 L 898 227" stroke-miterlimit="10" stroke-dasharray=""/></g><g><path fill="none" stroke="#000000" paint-order="fill stroke markers" d=" M 896.413922921731 237.885052112957 L 898 227 L 889.1815799798305 233.57536830511225" stroke-miterlimit="10" stroke-dasharray=""/></g><g><path fill="none" stroke="#000000" paint-order="fill stroke markers" d=" M 1030 373 L 946 227" stroke-miterlimit="10" stroke-dasharray=""/></g><g><path fill="none" stroke="#000000" paint-order="fill stroke markers" d=" M 954.7167843138236 233.70952093865716 L 946 227 L 947.4193495442075 237.9080450526828" stroke-miterlimit="10" stroke-dasharray=""/></g><g><path fill="none" stroke="#000000" paint-order="fill stroke markers" d=" M 1121 554 L 938 554" stroke-miterlimit="10" stroke-dasharray=""/></g><g><path fill="#FFFFFF" stroke="none" paint-order="stroke fill markers" d=" M 958.3253497152482 545.580964487968 L 938 554 L 958.3253497152482 562.419035512032"/></g><g><path fill="none" stroke="#000000" paint-order="fill stroke markers" d=" M 958.3253497152482 545.580964487968 L 938 554 L 958.3253497152482 562.419035512032 L 958.3253497152482 545.580964487968" stroke-miterlimit="10" stroke-dasharray=""/></g><g><path fill="none" stroke="#000000" paint-order="fill stroke markers" d=" M 519 729 L 277 581" stroke-miterlimit="10" stroke-dasharray=""/></g><g><path fill="none" stroke="#000000" paint-order="fill stroke markers" d=" M 287.86610764169825 582.7110536867751 L 277 581 L 283.47360073365485 589.8933960634407" stroke-miterlimit="10" stroke-dasharray=""/></g><g><path fill="none" stroke="#000000" paint-order="fill stroke markers" d=" M 534 729 L 419 587" stroke-miterlimit="10" stroke-dasharray=""/></g><g><path fill="none" stroke="#000000" paint-order="fill stroke markers" d=" M 428.6672263573122 592.2483077802743 L 419 587 L 422.12464729133467 597.5468753337069" stroke-miterlimit="10" stroke-dasharray=""/></g><g><path fill="none" stroke="#000000" paint-order="fill stroke markers" d=" M 527 406 L 665 516" stroke-miterlimit="10" stroke-dasharray=""/></g><g><path fill="none" stroke="#000000" paint-order="fill stroke markers" d=" M 654.4292172762403 512.9572130197693 L 665 516 L 659.6769031610072 506.37375254615256" stroke-miterlimit="10" stroke-dasharray=""/></g><g><path fill="none" stroke="#000000" paint-order="fill stroke markers" d=" M 790 410 L 734 513" stroke-miterlimit="10" stroke-dasharray=""/></g><g><path fill="none" stroke="#000000" paint-order="fill stroke markers" d=" M 735.156009347926 502.0609121775393 L 734 513 L 742.5525252282906 506.0823188697764" stroke-miterlimit="10" stroke-dasharray=""/></g><g><path fill="none" stroke="#000000" paint-order="fill stroke markers" d=" M 564 729 L 677 595" stroke-miterlimit="10" stroke-dasharray=""/></g><g><path fill="none" stroke="#000000" paint-order="fill stroke markers" d=" M 673.66654149083 605.4827503245876 L 677 595 L 667.2304650433605 600.0553127233634" stroke-miterlimit="10" stroke-dasharray=""/></g></svg>