<svg version="1.1" xmlns="http://www.w3.org/2000/svg" xmlns:xlink="http://www.w3.org/1999/xlink" width="259.67724609375" height="580"><defs/><g><path fill="#ffffff" stroke="none" paint-order="stroke fill markers" d=" M 32.88998046874997 499.85 C 32.88998046874997 494.96227952000004 36.84778283674996 491 41.72998046875 491 C 46.61217810075004 491 50.56998046875003 494.96227952000004 50.56998046875003 499.85 C 50.56998046875003 504.73772048 46.61217810075004 508.70000000000005 41.72998046875 508.70000000000005 C 36.84778283674996 508.70000000000005 32.88998046874997 504.73772048 32.88998046874997 499.85 Z"/></g><g><path fill="none" stroke="#000000" paint-order="fill stroke markers" d=" M 32.88998046874997 499.85 C 32.88998046874997 494.96227952000004 36.84778283674996 491 41.72998046875 491 C 46.61217810075004 491 50.56998046875003 494.96227952000004 50.56998046875003 499.85 C 50.56998046875003 504.73772048 46.61217810075004 508.70000000000005 41.72998046875 508.70000000000005 C 36.84778283674996 508.70000000000005 32.88998046874997 504.73772048 32.88998046874997 499.85 Z" stroke-miterlimit="10" stroke-dasharray=""/></g><g><path fill="none" stroke="#000000" paint-order="fill stroke markers" d=" M 41.72998046875 508.70000000000005 L 41.72998046875 526.3" stroke-miterlimit="10" stroke-dasharray=""/></g><g><path fill="none" stroke="#000000" paint-order="fill stroke markers" d=" M 32.369980468749986 515.3 L 51.089980468750014 515.3" stroke-miterlimit="10" stroke-dasharray=""/></g><g><path fill="none" stroke="#000000" paint-order="fill stroke markers" d=" M 41.72998046875 526.3 L 28.72998046875 544" stroke-miterlimit="10" stroke-dasharray=""/></g><g><path fill="none" stroke="#000000" paint-order="fill stroke markers" d=" M 41.72998046875 526.3 L 54.72998046875 544" stroke-miterlimit="10" stroke-dasharray=""/></g><g><g><path fill="none" stroke="none"/><text fill="#000000" stroke="none" font-family="Arial" font-size="13px" font-style="normal" font-weight="bold" text-decoration="undefined" x="528.22998046875" y="668.5" text-anchor="middle" dominant-baseline="central" transform="matrix(1 0 0 1 -486 -110)">Manager</text></g></g><g><path fill="#ffffff" stroke="none" paint-order="stroke fill markers" d=" M 204.49862304687497 499.85 C 204.49862304687497 494.96227952000004 208.45642541487496 491 213.338623046875 491 C 218.22082067887504 491 222.17862304687503 494.96227952000004 222.17862304687503 499.85 C 222.17862304687503 504.73772048 218.22082067887504 508.70000000000005 213.338623046875 508.70000000000005 C 208.45642541487496 508.70000000000005 204.49862304687497 504.73772048 204.49862304687497 499.85 Z"/></g><g><path fill="none" stroke="#000000" paint-order="fill stroke markers" d=" M 204.49862304687497 499.85 C 204.49862304687497 494.96227952000004 208.45642541487496 491 213.338623046875 491 C 218.22082067887504 491 222.17862304687503 494.96227952000004 222.17862304687503 499.85 C 222.17862304687503 504.73772048 218.22082067887504 508.70000000000005 213.338623046875 508.70000000000005 C 208.45642541487496 508.70000000000005 204.49862304687497 504.73772048 204.49862304687497 499.85 Z" stroke-miterlimit="10" stroke-dasharray=""/></g><g><path fill="none" stroke="#000000" paint-order="fill stroke markers" d=" M 213.338623046875 508.70000000000005 L 213.338623046875 526.3" stroke-miterlimit="10" stroke-dasharray=""/></g><g><path fill="none" stroke="#000000" paint-order="fill stroke markers" d=" M 203.978623046875 515.3 L 222.698623046875 515.3" stroke-miterlimit="10" stroke-dasharray=""/></g><g><path fill="none" stroke="#000000" paint-order="fill stroke markers" d=" M 213.338623046875 526.3 L 200.338623046875 544" stroke-miterlimit="10" stroke-dasharray=""/></g><g><path fill="none" stroke="#000000" paint-order="fill stroke markers" d=" M 213.338623046875 526.3 L 226.338623046875 544" stroke-miterlimit="10" stroke-dasharray=""/></g><g><g><path fill="none" stroke="none"/><text fill="#000000" stroke="none" font-family="Arial" font-size="13px" font-style="normal" font-weight="bold" text-decoration="undefined" x="699.838623046875" y="668.5" text-anchor="middle" dominant-baseline="central" transform="matrix(1 0 0 1 -486 -110)">Customer</text></g></g><g><path fill="#C0C0C0" stroke="none" paint-order="stroke fill markers" d=" M 49 221 C 49 205.53602560000002 84.81721600000003 193 129 193 C 173.18278399999997 193 209 205.53602560000002 209 221 C 209 236.46397439999998 173.18278399999997 249 129 249 C 84.81721600000003 249 49 236.46397439999998 49 221 Z" fill-opacity="0.2"/></g><g><path fill="#ffffff" stroke="none" paint-order="stroke fill markers" d=" M 42 214 C 42 198.53602560000002 77.81721600000003 186 122 186 C 166.18278399999997 186 202 198.53602560000002 202 214 C 202 229.46397439999998 166.18278399999997 242 122 242 C 77.81721600000003 242 42 229.46397439999998 42 214 Z"/></g><g><path fill="none" stroke="#000000" paint-order="fill stroke markers" d=" M 42 214 C 42 198.53602560000002 77.81721600000003 186 122 186 C 166.18278399999997 186 202 198.53602560000002 202 214 C 202 229.46397439999998 166.18278399999997 242 122 242 C 77.81721600000003 242 42 229.46397439999998 42 214 Z" stroke-miterlimit="10" stroke-dasharray=""/></g><g><g><path fill="none" stroke="none"/><text fill="#000000" stroke="none" font-family="Arial" font-size="13px" font-style="normal" font-weight="bold" text-decoration="undefined" x="608" y="325" text-anchor="middle" dominant-baseline="central" transform="matrix(1 0 0 1 -486 -110)">EZElectronics</text></g></g><g><path fill="#ffffff" stroke="none" paint-order="stroke fill markers" d=" M 113.15999999999997 19.849999999999994 C 113.15999999999997 14.962279519999996 117.11780236799996 11 122 11 C 126.88219763200004 11 130.84000000000003 14.962279519999996 130.84000000000003 19.849999999999994 C 130.84000000000003 24.73772047999998 126.88219763200004 28.69999999999999 122 28.69999999999999 C 117.11780236799996 28.69999999999999 113.15999999999997 24.73772047999998 113.15999999999997 19.849999999999994 Z"/></g><g><path fill="none" stroke="#000000" paint-order="fill stroke markers" d=" M 113.15999999999997 19.849999999999994 C 113.15999999999997 14.962279519999996 117.11780236799996 11 122 11 C 126.88219763200004 11 130.84000000000003 14.962279519999996 130.84000000000003 19.849999999999994 C 130.84000000000003 24.73772047999998 126.88219763200004 28.69999999999999 122 28.69999999999999 C 117.11780236799996 28.69999999999999 113.15999999999997 24.73772047999998 113.15999999999997 19.849999999999994 Z" stroke-miterlimit="10" stroke-dasharray=""/></g><g><path fill="none" stroke="#000000" paint-order="fill stroke markers" d=" M 122 28.69999999999999 L 122 46.30000000000001" stroke-miterlimit="10" stroke-dasharray=""/></g><g><path fill="none" stroke="#000000" paint-order="fill stroke markers" d=" M 112.63999999999999 35.30000000000001 L 131.36 35.30000000000001" stroke-miterlimit="10" stroke-dasharray=""/></g><g><path fill="none" stroke="#000000" paint-order="fill stroke markers" d=" M 122 46.30000000000001 L 109 64" stroke-miterlimit="10" stroke-dasharray=""/></g><g><path fill="none" stroke="#000000" paint-order="fill stroke markers" d=" M 122 46.30000000000001 L 135 64" stroke-miterlimit="10" stroke-dasharray=""/></g><g><g><path fill="none" stroke="none"/><text fill="#000000" stroke="none" font-family="Arial" font-size="13px" font-style="normal" font-weight="bold" text-decoration="undefined" x="608.5" y="188.5" text-anchor="middle" dominant-baseline="central" transform="matrix(1 0 0 1 -486 -110)">Inventory</text></g></g><g><path fill="none" stroke="#000000" paint-order="fill stroke markers" d=" M 122 185 L 122 91" stroke-miterlimit="10" stroke-dasharray=""/></g><g><path fill="#ffffff" stroke="none" paint-order="stroke fill markers" d=" M 114.74862304687497 339.85 C 114.74862304687497 334.96227952000004 118.70642541487496 331 123.588623046875 331 C 128.47082067887504 331 132.42862304687503 334.96227952000004 132.42862304687503 339.85 C 132.42862304687503 344.73772048 128.47082067887504 348.7 123.588623046875 348.7 C 118.70642541487496 348.7 114.74862304687497 344.73772048 114.74862304687497 339.85 Z"/></g><g><path fill="none" stroke="#000000" paint-order="fill stroke markers" d=" M 114.74862304687497 339.85 C 114.74862304687497 334.96227952000004 118.70642541487496 331 123.588623046875 331 C 128.47082067887504 331 132.42862304687503 334.96227952000004 132.42862304687503 339.85 C 132.42862304687503 344.73772048 128.47082067887504 348.7 123.588623046875 348.7 C 118.70642541487496 348.7 114.74862304687497 344.73772048 114.74862304687497 339.85 Z" stroke-miterlimit="10" stroke-dasharray=""/></g><g><path fill="none" stroke="#000000" paint-order="fill stroke markers" d=" M 123.588623046875 348.7 L 123.588623046875 366.3" stroke-miterlimit="10" stroke-dasharray=""/></g><g><path fill="none" stroke="#000000" paint-order="fill stroke markers" d=" M 114.22862304687499 355.3 L 132.948623046875 355.3" stroke-miterlimit="10" stroke-dasharray=""/></g><g><path fill="none" stroke="#000000" paint-order="fill stroke markers" d=" M 123.588623046875 366.3 L 110.588623046875 384" stroke-miterlimit="10" stroke-dasharray=""/></g><g><path fill="none" stroke="#000000" paint-order="fill stroke markers" d=" M 123.588623046875 366.3 L 136.588623046875 384" stroke-miterlimit="10" stroke-dasharray=""/></g><g><g><path fill="none" stroke="none"/><text fill="#000000" stroke="none" font-family="Arial" font-size="13px" font-style="normal" font-weight="bold" text-decoration="undefined" x="610.088623046875" y="508.5" text-anchor="middle" dominant-baseline="central" transform="matrix(1 0 0 1 -486 -110)">User</text></g></g><g><path fill="none" stroke="#000000" paint-order="fill stroke markers" d=" M 62 489 L 102 411" stroke-miterlimit="10" stroke-dasharray=""/></g><g><path fill="#FFFFFF" stroke="none" paint-order="stroke fill markers" d=" M 100.21660937536262 432.92759717524825 L 102 411 L 85.23379973806937 425.24410505355945"/></g><g><path fill="none" stroke="#000000" paint-order="fill stroke markers" d=" M 100.21660937536262 432.92759717524825 L 102 411 L 85.23379973806937 425.24410505355945 L 100.21660937536262 432.92759717524825" stroke-miterlimit="10" stroke-dasharray=""/></g><g><path fill="none" stroke="#000000" paint-order="fill stroke markers" d=" M 190 489 L 146 411" stroke-miterlimit="10" stroke-dasharray=""/></g><g><path fill="#FFFFFF" stroke="none" paint-order="stroke fill markers" d=" M 163.31907359704485 424.56649143073275 L 146 411 L 148.65347629675898 432.8393924719196"/></g><g><path fill="none" stroke="#000000" paint-order="fill stroke markers" d=" M 163.31907359704485 424.56649143073275 L 146 411 L 148.65347629675898 432.8393924719196 L 163.31907359704485 424.56649143073275" stroke-miterlimit="10" stroke-dasharray=""/></g><g><path fill="none" stroke="#000000" paint-order="fill stroke markers" d=" M 123 329 L 122 243" stroke-miterlimit="10" stroke-dasharray=""/></g></svg>