<svg version="1.1" xmlns="http://www.w3.org/2000/svg" xmlns:xlink="http://www.w3.org/1999/xlink" width="475.67724609375" height="244"><defs/><g><path fill="#ffffff" stroke="none" paint-order="stroke fill markers" d=" M 32.889980468750025 19.850000000000023 C 32.889980468750025 14.962279520000038 36.847782836750014 11 41.72998046875 11 C 46.612178100749986 11 50.569980468749975 14.962279520000038 50.569980468749975 19.850000000000023 C 50.569980468749975 24.737720480000007 46.612178100749986 28.69999999999999 41.72998046875 28.69999999999999 C 36.847782836750014 28.69999999999999 32.889980468750025 24.737720480000007 32.889980468750025 19.850000000000023 Z"/></g><g><path fill="none" stroke="#000000" paint-order="fill stroke markers" d=" M 32.889980468750025 19.850000000000023 C 32.889980468750025 14.962279520000038 36.847782836750014 11 41.72998046875 11 C 46.612178100749986 11 50.569980468749975 14.962279520000038 50.569980468749975 19.850000000000023 C 50.569980468749975 24.737720480000007 46.612178100749986 28.69999999999999 41.72998046875 28.69999999999999 C 36.847782836750014 28.69999999999999 32.889980468750025 24.737720480000007 32.889980468750025 19.850000000000023 Z" stroke-miterlimit="10" stroke-dasharray=""/></g><g><path fill="none" stroke="#000000" paint-order="fill stroke markers" d=" M 41.72998046875 28.69999999999999 L 41.72998046875 46.30000000000001" stroke-miterlimit="10" stroke-dasharray=""/></g><g><path fill="none" stroke="#000000" paint-order="fill stroke markers" d=" M 32.369980468749986 35.30000000000001 L 51.089980468750014 35.30000000000001" stroke-miterlimit="10" stroke-dasharray=""/></g><g><path fill="none" stroke="#000000" paint-order="fill stroke markers" d=" M 41.72998046875 46.30000000000001 L 28.72998046875 64" stroke-miterlimit="10" stroke-dasharray=""/></g><g><path fill="none" stroke="#000000" paint-order="fill stroke markers" d=" M 41.72998046875 46.30000000000001 L 54.72998046875 64" stroke-miterlimit="10" stroke-dasharray=""/></g><g><g><path fill="none" stroke="none"/><text fill="#000000" stroke="none" font-family="Arial" font-size="13px" font-style="normal" font-weight="bold" text-decoration="undefined" x="416.22998046875" y="356.5" text-anchor="middle" dominant-baseline="central" transform="matrix(1 0 0 1 -374 -278)">Manager</text></g></g><g><path fill="#ffffff" stroke="none" paint-order="stroke fill markers" d=" M 420.49862304687497 19.850000000000023 C 420.49862304687497 14.962279520000038 424.45642541487496 11 429.338623046875 11 C 434.22082067887504 11 438.17862304687503 14.962279520000038 438.17862304687503 19.850000000000023 C 438.17862304687503 24.737720480000007 434.22082067887504 28.69999999999999 429.338623046875 28.69999999999999 C 424.45642541487496 28.69999999999999 420.49862304687497 24.737720480000007 420.49862304687497 19.850000000000023 Z"/></g><g><path fill="none" stroke="#000000" paint-order="fill stroke markers" d=" M 420.49862304687497 19.850000000000023 C 420.49862304687497 14.962279520000038 424.45642541487496 11 429.338623046875 11 C 434.22082067887504 11 438.17862304687503 14.962279520000038 438.17862304687503 19.850000000000023 C 438.17862304687503 24.737720480000007 434.22082067887504 28.69999999999999 429.338623046875 28.69999999999999 C 424.45642541487496 28.69999999999999 420.49862304687497 24.737720480000007 420.49862304687497 19.850000000000023 Z" stroke-miterlimit="10" stroke-dasharray=""/></g><g><path fill="none" stroke="#000000" paint-order="fill stroke markers" d=" M 429.338623046875 28.69999999999999 L 429.338623046875 46.30000000000001" stroke-miterlimit="10" stroke-dasharray=""/></g><g><path fill="none" stroke="#000000" paint-order="fill stroke markers" d=" M 419.978623046875 35.30000000000001 L 438.698623046875 35.30000000000001" stroke-miterlimit="10" stroke-dasharray=""/></g><g><path fill="none" stroke="#000000" paint-order="fill stroke markers" d=" M 429.338623046875 46.30000000000001 L 416.338623046875 64" stroke-miterlimit="10" stroke-dasharray=""/></g><g><path fill="none" stroke="#000000" paint-order="fill stroke markers" d=" M 429.338623046875 46.30000000000001 L 442.338623046875 64" stroke-miterlimit="10" stroke-dasharray=""/></g><g><g><path fill="none" stroke="none"/><text fill="#000000" stroke="none" font-family="Arial" font-size="13px" font-style="normal" font-weight="bold" text-decoration="undefined" x="803.838623046875" y="356.5" text-anchor="middle" dominant-baseline="central" transform="matrix(1 0 0 1 -374 -278)">Customer</text></g></g><g><path fill="#C0C0C0" stroke="none" paint-order="stroke fill markers" d=" M 161 53 C 161 37.536025600000016 196.81721600000003 25 241 25 C 285.18278399999997 25 321 37.536025600000016 321 53 C 321 68.46397439999998 285.18278399999997 81 241 81 C 196.81721600000003 81 161 68.46397439999998 161 53 Z" fill-opacity="0.2"/></g><g><path fill="#ffffff" stroke="none" paint-order="stroke fill markers" d=" M 154 46 C 154 30.536025600000016 189.81721600000003 18 234 18 C 278.18278399999997 18 314 30.536025600000016 314 46 C 314 61.463974399999984 278.18278399999997 74 234 74 C 189.81721600000003 74 154 61.463974399999984 154 46 Z"/></g><g><path fill="none" stroke="#000000" paint-order="fill stroke markers" d=" M 154 46 C 154 30.536025600000016 189.81721600000003 18 234 18 C 278.18278399999997 18 314 30.536025600000016 314 46 C 314 61.463974399999984 278.18278399999997 74 234 74 C 189.81721600000003 74 154 61.463974399999984 154 46 Z" stroke-miterlimit="10" stroke-dasharray=""/></g><g><g><path fill="none" stroke="none"/><text fill="#000000" stroke="none" font-family="Arial" font-size="13px" font-style="normal" font-weight="bold" text-decoration="undefined" x="608" y="325" text-anchor="middle" dominant-baseline="central" transform="matrix(1 0 0 1 -374 -278)">EZElectronics</text></g></g><g><path fill="none" stroke="#000000" paint-order="fill stroke markers" d=" M 74 49 L 153 48" stroke-miterlimit="10" stroke-dasharray=""/></g><g><path fill="none" stroke="#000000" paint-order="fill stroke markers" d=" M 315 48 L 393 49" stroke-miterlimit="10" stroke-dasharray=""/></g><g><path fill="#ffffff" stroke="none" paint-order="stroke fill markers" d=" M 225.15999999999997 163.85000000000002 C 225.15999999999997 158.96227952000004 229.11780236799996 155 234 155 C 238.88219763200004 155 242.84000000000003 158.96227952000004 242.84000000000003 163.85000000000002 C 242.84000000000003 168.73772048 238.88219763200004 172.7 234 172.7 C 229.11780236799996 172.7 225.15999999999997 168.73772048 225.15999999999997 163.85000000000002 Z"/></g><g><path fill="none" stroke="#000000" paint-order="fill stroke markers" d=" M 225.15999999999997 163.85000000000002 C 225.15999999999997 158.96227952000004 229.11780236799996 155 234 155 C 238.88219763200004 155 242.84000000000003 158.96227952000004 242.84000000000003 163.85000000000002 C 242.84000000000003 168.73772048 238.88219763200004 172.7 234 172.7 C 229.11780236799996 172.7 225.15999999999997 168.73772048 225.15999999999997 163.85000000000002 Z" stroke-miterlimit="10" stroke-dasharray=""/></g><g><path fill="none" stroke="#000000" paint-order="fill stroke markers" d=" M 234 172.7 L 234 190.3" stroke-miterlimit="10" stroke-dasharray=""/></g><g><path fill="none" stroke="#000000" paint-order="fill stroke markers" d=" M 224.64 179.3 L 243.36 179.3" stroke-miterlimit="10" stroke-dasharray=""/></g><g><path fill="none" stroke="#000000" paint-order="fill stroke markers" d=" M 234 190.3 L 221 208" stroke-miterlimit="10" stroke-dasharray=""/></g><g><path fill="none" stroke="#000000" paint-order="fill stroke markers" d=" M 234 190.3 L 247 208" stroke-miterlimit="10" stroke-dasharray=""/></g><g><g><path fill="none" stroke="none"/><text fill="#000000" stroke="none" font-family="Arial" font-size="13px" font-style="normal" font-weight="bold" text-decoration="undefined" x="608.5" y="500.5" text-anchor="middle" dominant-baseline="central" transform="matrix(1 0 0 1 -374 -278)">Inventory</text></g></g><g><path fill="none" stroke="#000000" paint-order="fill stroke markers" d=" M 234 75 L 234 153" stroke-miterlimit="10" stroke-dasharray=""/></g></svg>
