<svg version="1.1" xmlns="http://www.w3.org/2000/svg" xmlns:xlink="http://www.w3.org/1999/xlink" width="813" height="199"><defs/><g><path fill="#C0C0C0" stroke="none" paint-order="stroke fill markers" d=" M 161 147 L 302.9580078125 147 L 302.9580078125 181 L 161 181" fill-opacity="0.2"/></g><g><path fill="#C0C0C0" stroke="none" paint-order="stroke fill markers" d=" M 161 147 L 171 137 L 312.9580078125 137 L 302.9580078125 147" fill-opacity="0.2"/></g><g><path fill="#C0C0C0" stroke="none" paint-order="stroke fill markers" d=" M 312.9580078125 137 L 302.9580078125 147 L 302.9580078125 181 L 312.9580078125 171" fill-opacity="0.2"/></g><g><path fill="#ffffff" stroke="none" paint-order="stroke fill markers" d=" M 154 140 L 295.9580078125 140 L 295.9580078125 174 L 154 174"/></g><g><path fill="#ffffff" stroke="none" paint-order="stroke fill markers" d=" M 154 140 L 164 130 L 305.9580078125 130 L 295.9580078125 140"/></g><g><path fill="#ffffff" stroke="none" paint-order="stroke fill markers" d=" M 305.9580078125 130 L 295.9580078125 140 L 295.9580078125 174 L 305.9580078125 164"/></g><g><path fill="none" stroke="#000000" paint-order="fill stroke markers" d=" M 154 140 L 295.9580078125 140 L 295.9580078125 174 L 154 174 L 154 140" stroke-miterlimit="10" stroke-dasharray=""/></g><g><path fill="none" stroke="#000000" paint-order="fill stroke markers" d=" M 154 140 L 164 130 L 305.9580078125 130 L 295.9580078125 140 L 154 140" stroke-miterlimit="10" stroke-dasharray=""/></g><g><path fill="none" stroke="#000000" paint-order="fill stroke markers" d=" M 305.9580078125 130 L 295.9580078125 140 L 295.9580078125 174 L 305.9580078125 164 L 305.9580078125 130" stroke-miterlimit="10" stroke-dasharray=""/></g><g><g><path fill="none" stroke="none"/><text fill="#000000" stroke="none" font-family="Arial" font-size="13px" font-style="normal" font-weight="bold" text-decoration="undefined" x="239.97900390625" y="295.5" text-anchor="middle" dominant-baseline="central" transform="matrix(1 0 0 1 -14 -142)">EZElectronics server</text></g></g><g><path fill="#C0C0C0" stroke="none" paint-order="stroke fill markers" d=" M 457 147 L 573.6435546875 147 L 573.6435546875 181 L 457 181" fill-opacity="0.2"/></g><g><path fill="#C0C0C0" stroke="none" paint-order="stroke fill markers" d=" M 457 147 L 467 137 L 583.6435546875 137 L 573.6435546875 147" fill-opacity="0.2"/></g><g><path fill="#C0C0C0" stroke="none" paint-order="stroke fill markers" d=" M 583.6435546875 137 L 573.6435546875 147 L 573.6435546875 181 L 583.6435546875 171" fill-opacity="0.2"/></g><g><path fill="#ffffff" stroke="none" paint-order="stroke fill markers" d=" M 450 140 L 566.6435546875 140 L 566.6435546875 174 L 450 174"/></g><g><path fill="#ffffff" stroke="none" paint-order="stroke fill markers" d=" M 450 140 L 460 130 L 576.6435546875 130 L 566.6435546875 140"/></g><g><path fill="#ffffff" stroke="none" paint-order="stroke fill markers" d=" M 576.6435546875 130 L 566.6435546875 140 L 566.6435546875 174 L 576.6435546875 164"/></g><g><path fill="none" stroke="#000000" paint-order="fill stroke markers" d=" M 450 140 L 566.6435546875 140 L 566.6435546875 174 L 450 174 L 450 140" stroke-miterlimit="10" stroke-dasharray=""/></g><g><path fill="none" stroke="#000000" paint-order="fill stroke markers" d=" M 450 140 L 460 130 L 576.6435546875 130 L 566.6435546875 140 L 450 140" stroke-miterlimit="10" stroke-dasharray=""/></g><g><path fill="none" stroke="#000000" paint-order="fill stroke markers" d=" M 576.6435546875 130 L 566.6435546875 140 L 566.6435546875 174 L 576.6435546875 164 L 576.6435546875 130" stroke-miterlimit="10" stroke-dasharray=""/></g><g><g><path fill="none" stroke="none"/><text fill="#000000" stroke="none" font-family="Arial" font-size="13px" font-style="normal" font-weight="bold" text-decoration="undefined" x="523.32177734375" y="295.5" text-anchor="middle" dominant-baseline="central" transform="matrix(1 0 0 1 -14 -142)">Manager device</text></g></g><g><path fill="#C0C0C0" stroke="none" paint-order="stroke fill markers" d=" M 457 43 L 580.86083984375 43 L 580.86083984375 77 L 457 77" fill-opacity="0.2"/></g><g><path fill="#C0C0C0" stroke="none" paint-order="stroke fill markers" d=" M 457 43 L 467 33 L 590.86083984375 33 L 580.86083984375 43" fill-opacity="0.2"/></g><g><path fill="#C0C0C0" stroke="none" paint-order="stroke fill markers" d=" M 590.86083984375 33 L 580.86083984375 43 L 580.86083984375 77 L 590.86083984375 67" fill-opacity="0.2"/></g><g><path fill="#ffffff" stroke="none" paint-order="stroke fill markers" d=" M 450 36 L 573.86083984375 36 L 573.86083984375 70 L 450 70"/></g><g><path fill="#ffffff" stroke="none" paint-order="stroke fill markers" d=" M 450 36 L 460 26 L 583.86083984375 26 L 573.86083984375 36"/></g><g><path fill="#ffffff" stroke="none" paint-order="stroke fill markers" d=" M 583.86083984375 26 L 573.86083984375 36 L 573.86083984375 70 L 583.86083984375 60"/></g><g><path fill="none" stroke="#000000" paint-order="fill stroke markers" d=" M 450 36 L 573.86083984375 36 L 573.86083984375 70 L 450 70 L 450 36" stroke-miterlimit="10" stroke-dasharray=""/></g><g><path fill="none" stroke="#000000" paint-order="fill stroke markers" d=" M 450 36 L 460 26 L 583.86083984375 26 L 573.86083984375 36 L 450 36" stroke-miterlimit="10" stroke-dasharray=""/></g><g><path fill="none" stroke="#000000" paint-order="fill stroke markers" d=" M 583.86083984375 26 L 573.86083984375 36 L 573.86083984375 70 L 583.86083984375 60 L 583.86083984375 26" stroke-miterlimit="10" stroke-dasharray=""/></g><g><g><path fill="none" stroke="none"/><text fill="#000000" stroke="none" font-family="Arial" font-size="13px" font-style="normal" font-weight="bold" text-decoration="undefined" x="526.930419921875" y="191.5" text-anchor="middle" dominant-baseline="central" transform="matrix(1 0 0 1 -14 -142)">Customer device</text></g></g><g><path fill="#C0C0C0" stroke="none" paint-order="stroke fill markers" d=" M 724.154052734375 17 L 752.154052734375 17 L 764.154052734375 29 L 764.154052734375 67 L 724.154052734375 67" fill-opacity="0.2"/></g><g><path fill="#ffffff" stroke="none" paint-order="stroke fill markers" d=" M 717.154052734375 10 L 745.154052734375 10 L 757.154052734375 22 L 757.154052734375 60 L 717.154052734375 60"/></g><g><path fill="none" stroke="#000000" paint-order="fill stroke markers" d=" M 717.154052734375 10 L 745.154052734375 10 L 757.154052734375 22 L 757.154052734375 60 L 717.154052734375 60 L 717.154052734375 10" stroke-miterlimit="10" stroke-dasharray=""/></g><g><path fill="none" stroke="#000000" paint-order="fill stroke markers" d=" M 745.154052734375 10 L 745.154052734375 22 L 757.154052734375 22 L 745.154052734375 10" stroke-miterlimit="10" stroke-dasharray=""/></g><g><g><path fill="none" stroke="none"/><text fill="#000000" stroke="none" font-family="Arial" font-size="13px" font-style="normal" font-weight="bold" text-decoration="undefined" x="751.654052734375" y="215.5" text-anchor="middle" dominant-baseline="central" transform="matrix(1 0 0 1 -14 -142)">Customer Browser</text></g></g><g><path fill="none" stroke="#000000" paint-order="fill stroke markers" d=" M 673 47 L 586 48" stroke-miterlimit="10" stroke-dasharray="3"/></g><g><path fill="none" stroke="#000000" paint-order="fill stroke markers" d=" M 596.1136215231649 43.673955653697476 L 586 48 L 596.2103856543683 52.09243506839985" stroke-miterlimit="10" stroke-dasharray=""/></g><g><rect fill="#ffffff" stroke="none" x="617" y="212" width="52.76806640625" height="13" transform="matrix(1 0 0 1 -14 -142)"/></g><g><g><path fill="none" stroke="none"/><text fill="#000000" stroke="none" font-family="Arial" font-size="13px" font-style="normal" font-weight="normal" text-decoration="undefined" x="643.384033203125" y="218.5" text-anchor="middle" dominant-baseline="central" transform="matrix(1 0 0 1 -14 -142)">«deploy»</text></g></g><g><path fill="#C0C0C0" stroke="none" paint-order="stroke fill markers" d=" M 725 121 L 753 121 L 765 133 L 765 171 L 725 171" fill-opacity="0.2"/></g><g><path fill="#ffffff" stroke="none" paint-order="stroke fill markers" d=" M 718 114 L 746 114 L 758 126 L 758 164 L 718 164"/></g><g><path fill="none" stroke="#000000" paint-order="fill stroke markers" d=" M 718 114 L 746 114 L 758 126 L 758 164 L 718 164 L 718 114" stroke-miterlimit="10" stroke-dasharray=""/></g><g><path fill="none" stroke="#000000" paint-order="fill stroke markers" d=" M 746 114 L 746 126 L 758 126 L 746 114" stroke-miterlimit="10" stroke-dasharray=""/></g><g><g><path fill="none" stroke="none"/><text fill="#000000" stroke="none" font-family="Arial" font-size="13px" font-style="normal" font-weight="bold" text-decoration="undefined" x="752.5" y="319.5" text-anchor="middle" dominant-baseline="central" transform="matrix(1 0 0 1 -14 -142)">Manager Browser</text></g></g><g><path fill="none" stroke="#000000" paint-order="fill stroke markers" d=" M 673 151 L 579 152" stroke-miterlimit="10" stroke-dasharray="3"/></g><g><path fill="none" stroke="#000000" paint-order="fill stroke markers" d=" M 589.1173202643603 147.68261298140135 L 579 152 L 589.2068794042232 156.10117212850736" stroke-miterlimit="10" stroke-dasharray=""/></g><g><rect fill="#ffffff" stroke="none" x="614" y="316" width="52.76806640625" height="13" transform="matrix(1 0 0 1 -14 -142)"/></g><g><g><path fill="none" stroke="none"/><text fill="#000000" stroke="none" font-family="Arial" font-size="13px" font-style="normal" font-weight="normal" text-decoration="undefined" x="640.384033203125" y="322.5" text-anchor="middle" dominant-baseline="central" transform="matrix(1 0 0 1 -14 -142)">«deploy»</text></g></g><g><path fill="#C0C0C0" stroke="none" paint-order="stroke fill markers" d=" M 217.525390625 17 L 245.525390625 17 L 257.525390625 29 L 257.525390625 67 L 217.525390625 67" fill-opacity="0.2"/></g><g><path fill="#ffffff" stroke="none" paint-order="stroke fill markers" d=" M 210.525390625 10 L 238.525390625 10 L 250.525390625 22 L 250.525390625 60 L 210.525390625 60"/></g><g><path fill="none" stroke="#000000" paint-order="fill stroke markers" d=" M 210.525390625 10 L 238.525390625 10 L 250.525390625 22 L 250.525390625 60 L 210.525390625 60 L 210.525390625 10" stroke-miterlimit="10" stroke-dasharray=""/></g><g><path fill="none" stroke="#000000" paint-order="fill stroke markers" d=" M 238.525390625 10 L 238.525390625 22 L 250.525390625 22 L 238.525390625 10" stroke-miterlimit="10" stroke-dasharray=""/></g><g><g><path fill="none" stroke="none"/><text fill="#000000" stroke="none" font-family="Arial" font-size="13px" font-style="normal" font-weight="bold" text-decoration="undefined" x="245.025390625" y="215.5" text-anchor="middle" dominant-baseline="central" transform="matrix(1 0 0 1 -14 -142)">EZElectronics backend</text></g></g><g><path fill="none" stroke="#000000" paint-order="fill stroke markers" d=" M 230 86 L 230 129" stroke-miterlimit="10" stroke-dasharray="3"/></g><g><path fill="none" stroke="#000000" paint-order="fill stroke markers" d=" M 225.790482243984 118.83732514237585 L 230 129 L 234.209517756016 118.83732514237585" stroke-miterlimit="10" stroke-dasharray=""/></g><g><rect fill="#ffffff" stroke="none" x="247" y="242" width="52.76806640625" height="13" transform="matrix(1 0 0 1 -14 -142)"/></g><g><g><path fill="none" stroke="none"/><text fill="#000000" stroke="none" font-family="Arial" font-size="13px" font-style="normal" font-weight="normal" text-decoration="undefined" x="273.384033203125" y="248.5" text-anchor="middle" dominant-baseline="central" transform="matrix(1 0 0 1 -14 -142)">«deploy»</text></g></g><g><path fill="none" stroke="#000000" paint-order="fill stroke markers" d=" M 293 129 L 451 72" stroke-miterlimit="10" stroke-dasharray=""/></g><g><rect fill="#ffffff" stroke="none" x="355" y="221" width="50.95263671875" height="13" transform="matrix(1 0 0 1 -14 -142)"/></g><g><g><path fill="none" stroke="none"/><text fill="#000000" stroke="none" font-family="Arial" font-size="13px" font-style="normal" font-weight="normal" text-decoration="undefined" x="380.476318359375" y="227.5" text-anchor="middle" dominant-baseline="central" transform="matrix(1 0 0 1 -14 -142)">+internet</text></g></g><g><path fill="none" stroke="#000000" paint-order="fill stroke markers" d=" M 308 152 L 449 152" stroke-miterlimit="10" stroke-dasharray=""/></g><g><rect fill="#ffffff" stroke="none" x="367" y="273" width="50.95263671875" height="13" transform="matrix(1 0 0 1 -14 -142)"/></g><g><g><path fill="none" stroke="none"/><text fill="#000000" stroke="none" font-family="Arial" font-size="13px" font-style="normal" font-weight="normal" text-decoration="undefined" x="392.476318359375" y="279.5" text-anchor="middle" dominant-baseline="central" transform="matrix(1 0 0 1 -14 -142)">+internet</text></g></g><g><path fill="#C0C0C0" stroke="none" paint-order="stroke fill markers" d=" M 31.25634765625 113 L 59.25634765625 113 L 71.25634765625 125 L 71.25634765625 163 L 31.25634765625 163" fill-opacity="0.2"/></g><g><path fill="#ffffff" stroke="none" paint-order="stroke fill markers" d=" M 24.25634765625 106 L 52.25634765625 106 L 64.25634765625 118 L 64.25634765625 156 L 24.25634765625 156"/></g><g><path fill="none" stroke="#000000" paint-order="fill stroke markers" d=" M 24.25634765625 106 L 52.25634765625 106 L 64.25634765625 118 L 64.25634765625 156 L 24.25634765625 156 L 24.25634765625 106" stroke-miterlimit="10" stroke-dasharray=""/></g><g><path fill="none" stroke="#000000" paint-order="fill stroke markers" d=" M 52.25634765625 106 L 52.25634765625 118 L 64.25634765625 118 L 52.25634765625 106" stroke-miterlimit="10" stroke-dasharray=""/></g><g><g><path fill="none" stroke="none"/><text fill="#000000" stroke="none" font-family="Arial" font-size="13px" font-style="normal" font-weight="bold" text-decoration="undefined" x="58.75634765625" y="311.5" text-anchor="middle" dominant-baseline="central" transform="matrix(1 0 0 1 -14 -142)">Inventory</text></g></g><g><path fill="none" stroke="#000000" paint-order="fill stroke markers" d=" M 80 145 L 153 148" stroke-miterlimit="10" stroke-dasharray="3"/></g><g><path fill="none" stroke="#000000" paint-order="fill stroke markers" d=" M 142.67304803425324 151.78867563894812 L 153 148 L 143.0187440000162 143.37674047204922" stroke-miterlimit="10" stroke-dasharray=""/></g><g><rect fill="#ffffff" stroke="none" x="118" y="267" width="24.654296875" height="13" transform="matrix(1 0 0 1 -14 -142)"/></g><g><g><path fill="none" stroke="none"/><text fill="#000000" stroke="none" font-family="Arial" font-size="13px" font-style="normal" font-weight="normal" text-decoration="undefined" x="130.3271484375" y="273.5" text-anchor="middle" dominant-baseline="central" transform="matrix(1 0 0 1 -14 -142)">+file</text></g></g><g><rect fill="#ffffff" stroke="none" x="105" y="252" width="52.76806640625" height="13" transform="matrix(1 0 0 1 -14 -142)"/></g><g><g><path fill="none" stroke="none"/><text fill="#000000" stroke="none" font-family="Arial" font-size="13px" font-style="normal" font-weight="normal" text-decoration="undefined" x="131.384033203125" y="258.5" text-anchor="middle" dominant-baseline="central" transform="matrix(1 0 0 1 -14 -142)">«deploy»</text></g></g></svg>