<svg version="1.1" xmlns="http://www.w3.org/2000/svg" xmlns:xlink="http://www.w3.org/1999/xlink" width="680" height="345"><defs/><g><rect fill="#C0C0C0" stroke="none" x="111" y="143" width="172.931640625" height="118" transform="matrix(1 0 0 1 -86 -126)" fill-opacity="0.2"/></g><g><rect fill="#ffffff" stroke="none" x="104" y="136" width="172.931640625" height="118" transform="matrix(1 0 0 1 -86 -126)"/></g><g><path fill="none" stroke="#000000" paint-order="fill stroke markers" d=" M 18 10 L 190.931640625 10 L 190.931640625 128 L 18 128 L 18 10 Z Z" stroke-miterlimit="10" stroke-dasharray=""/></g><g><path fill="none" stroke="#000000" paint-order="fill stroke markers" d=" M 18 35 L 190.931640625 35" stroke-miterlimit="10" stroke-dasharray=""/></g><g><path fill="none" stroke="#000000" paint-order="fill stroke markers" d=" M 18 118 L 190.931640625 118" stroke-miterlimit="10" stroke-dasharray=""/></g><g><g><path fill="none" stroke="none"/><text fill="#000000" stroke="none" font-family="Arial" font-size="13px" font-style="normal" font-weight="bold" text-decoration="undefined" x="190.9658203125" y="149.5" text-anchor="middle" dominant-baseline="central" transform="matrix(1 0 0 1 -86 -126)">User</text></g></g><g><g><path fill="none" stroke="none"/><text fill="#000000" stroke="none" font-family="Arial" font-size="13px" font-style="normal" font-weight="normal" text-decoration="undefined" x="109" y="172.5" text-anchor="start" dominant-baseline="central" transform="matrix(1 0 0 1 -86 -126)">+username</text></g></g><g><g><path fill="none" stroke="none"/><text fill="#000000" stroke="none" font-family="Arial" font-size="13px" font-style="normal" font-weight="normal" text-decoration="undefined" x="109" y="187.5" text-anchor="start" dominant-baseline="central" transform="matrix(1 0 0 1 -86 -126)">+password</text></g></g><g><g><path fill="none" stroke="none"/><text fill="#000000" stroke="none" font-family="Arial" font-size="13px" font-style="normal" font-weight="normal" text-decoration="undefined" x="109" y="202.5" text-anchor="start" dominant-baseline="central" transform="matrix(1 0 0 1 -86 -126)">+name</text></g></g><g><g><path fill="none" stroke="none"/><text fill="#000000" stroke="none" font-family="Arial" font-size="13px" font-style="normal" font-weight="normal" text-decoration="undefined" x="109" y="217.5" text-anchor="start" dominant-baseline="central" transform="matrix(1 0 0 1 -86 -126)">+surname</text></g></g><g><g><path fill="none" stroke="none"/><text fill="#000000" stroke="none" font-family="Arial" font-size="13px" font-style="normal" font-weight="normal" text-decoration="undefined" x="109" y="232.5" text-anchor="start" dominant-baseline="central" transform="matrix(1 0 0 1 -86 -126)">+role: Manager or Customer</text></g></g><g><rect fill="#C0C0C0" stroke="none" x="399" y="327" width="95.66162109375" height="103" transform="matrix(1 0 0 1 -86 -126)" fill-opacity="0.2"/></g><g><rect fill="#ffffff" stroke="none" x="392" y="320" width="95.66162109375" height="103" transform="matrix(1 0 0 1 -86 -126)"/></g><g><path fill="none" stroke="#000000" paint-order="fill stroke markers" d=" M 306 194 L 401.66162109375 194 L 401.66162109375 297 L 306 297 L 306 194 Z Z" stroke-miterlimit="10" stroke-dasharray=""/></g><g><path fill="none" stroke="#000000" paint-order="fill stroke markers" d=" M 306 219 L 401.66162109375 219" stroke-miterlimit="10" stroke-dasharray=""/></g><g><path fill="none" stroke="#000000" paint-order="fill stroke markers" d=" M 306 287 L 401.66162109375 287" stroke-miterlimit="10" stroke-dasharray=""/></g><g><g><path fill="none" stroke="none"/><text fill="#000000" stroke="none" font-family="Arial" font-size="13px" font-style="normal" font-weight="bold" text-decoration="undefined" x="440.330810546875" y="333.5" text-anchor="middle" dominant-baseline="central" transform="matrix(1 0 0 1 -86 -126)">Cart</text></g></g><g><g><path fill="none" stroke="none"/><text fill="#000000" stroke="none" font-family="Arial" font-size="13px" font-style="normal" font-weight="normal" text-decoration="undefined" x="397" y="356.5" text-anchor="start" dominant-baseline="central" transform="matrix(1 0 0 1 -86 -126)">+id</text></g></g><g><g><path fill="none" stroke="none"/><text fill="#000000" stroke="none" font-family="Arial" font-size="13px" font-style="normal" font-weight="normal" text-decoration="undefined" x="397" y="371.5" text-anchor="start" dominant-baseline="central" transform="matrix(1 0 0 1 -86 -126)">+paid: boolean</text></g></g><g><g><path fill="none" stroke="none"/><text fill="#000000" stroke="none" font-family="Arial" font-size="13px" font-style="normal" font-weight="normal" text-decoration="undefined" x="397" y="386.5" text-anchor="start" dominant-baseline="central" transform="matrix(1 0 0 1 -86 -126)">+paymentDate</text></g></g><g><g><path fill="none" stroke="none"/><text fill="#000000" stroke="none" font-family="Arial" font-size="13px" font-style="normal" font-weight="normal" text-decoration="undefined" x="397" y="401.5" text-anchor="start" dominant-baseline="central" transform="matrix(1 0 0 1 -86 -126)">+total</text></g></g><g><rect fill="#C0C0C0" stroke="none" x="623" y="151" width="94.931640625" height="163" transform="matrix(1 0 0 1 -86 -126)" fill-opacity="0.2"/></g><g><rect fill="#ffffff" stroke="none" x="616" y="144" width="94.931640625" height="163" transform="matrix(1 0 0 1 -86 -126)"/></g><g><path fill="none" stroke="#000000" paint-order="fill stroke markers" d=" M 530 18 L 624.931640625 18 L 624.931640625 181 L 530 181 L 530 18 Z Z" stroke-miterlimit="10" stroke-dasharray=""/></g><g><path fill="none" stroke="#000000" paint-order="fill stroke markers" d=" M 530 43 L 624.931640625 43" stroke-miterlimit="10" stroke-dasharray=""/></g><g><path fill="none" stroke="#000000" paint-order="fill stroke markers" d=" M 530 171 L 624.931640625 171" stroke-miterlimit="10" stroke-dasharray=""/></g><g><g><path fill="none" stroke="none"/><text fill="#000000" stroke="none" font-family="Arial" font-size="13px" font-style="normal" font-weight="bold" text-decoration="undefined" x="663.9658203125" y="157.5" text-anchor="middle" dominant-baseline="central" transform="matrix(1 0 0 1 -86 -126)">Product</text></g></g><g><g><path fill="none" stroke="none"/><text fill="#000000" stroke="none" font-family="Arial" font-size="13px" font-style="normal" font-weight="normal" text-decoration="undefined" x="621" y="180.5" text-anchor="start" dominant-baseline="central" transform="matrix(1 0 0 1 -86 -126)">+code</text></g></g><g><g><path fill="none" stroke="none"/><text fill="#000000" stroke="none" font-family="Arial" font-size="13px" font-style="normal" font-weight="normal" text-decoration="undefined" x="621" y="195.5" text-anchor="start" dominant-baseline="central" transform="matrix(1 0 0 1 -86 -126)">+model</text></g></g><g><g><path fill="none" stroke="none"/><text fill="#000000" stroke="none" font-family="Arial" font-size="13px" font-style="normal" font-weight="normal" text-decoration="undefined" x="621" y="210.5" text-anchor="start" dominant-baseline="central" transform="matrix(1 0 0 1 -86 -126)">+details</text></g></g><g><g><path fill="none" stroke="none"/><text fill="#000000" stroke="none" font-family="Arial" font-size="13px" font-style="normal" font-weight="normal" text-decoration="undefined" x="621" y="225.5" text-anchor="start" dominant-baseline="central" transform="matrix(1 0 0 1 -86 -126)">+quantity</text></g></g><g><g><path fill="none" stroke="none"/><text fill="#000000" stroke="none" font-family="Arial" font-size="13px" font-style="normal" font-weight="normal" text-decoration="undefined" x="621" y="240.5" text-anchor="start" dominant-baseline="central" transform="matrix(1 0 0 1 -86 -126)">+arrivalDate</text></g></g><g><g><path fill="none" stroke="none"/><text fill="#000000" stroke="none" font-family="Arial" font-size="13px" font-style="normal" font-weight="normal" text-decoration="undefined" x="621" y="255.5" text-anchor="start" dominant-baseline="central" transform="matrix(1 0 0 1 -86 -126)">+sellingPrice</text></g></g><g><g><path fill="none" stroke="none"/><text fill="#000000" stroke="none" font-family="Arial" font-size="13px" font-style="normal" font-weight="normal" text-decoration="undefined" x="621" y="270.5" text-anchor="start" dominant-baseline="central" transform="matrix(1 0 0 1 -86 -126)">+sold: boolean</text></g></g><g><g><path fill="none" stroke="none"/><text fill="#000000" stroke="none" font-family="Arial" font-size="13px" font-style="normal" font-weight="normal" text-decoration="undefined" x="621" y="285.5" text-anchor="start" dominant-baseline="central" transform="matrix(1 0 0 1 -86 -126)">+sellingDate</text></g></g><g><rect fill="#C0C0C0" stroke="none" x="215" y="327" width="70.67724609375" height="45" transform="matrix(1 0 0 1 -86 -126)" fill-opacity="0.2"/></g><g><rect fill="#ffffff" stroke="none" x="208" y="320" width="70.67724609375" height="45" transform="matrix(1 0 0 1 -86 -126)"/></g><g><path fill="none" stroke="#000000" paint-order="fill stroke markers" d=" M 122 194 L 192.67724609375 194 L 192.67724609375 239 L 122 239 L 122 194 Z Z" stroke-miterlimit="10" stroke-dasharray=""/></g><g><path fill="none" stroke="#000000" paint-order="fill stroke markers" d=" M 122 219 L 192.67724609375 219" stroke-miterlimit="10" stroke-dasharray=""/></g><g><path fill="none" stroke="#000000" paint-order="fill stroke markers" d=" M 122 229 L 192.67724609375 229" stroke-miterlimit="10" stroke-dasharray=""/></g><g><g><path fill="none" stroke="none"/><text fill="#000000" stroke="none" font-family="Arial" font-size="13px" font-style="normal" font-weight="bold" text-decoration="undefined" x="243.838623046875" y="333.5" text-anchor="middle" dominant-baseline="central" transform="matrix(1 0 0 1 -86 -126)">Customer</text></g></g><g><rect fill="#C0C0C0" stroke="none" x="103" y="327" width="63.4599609375" height="45" transform="matrix(1 0 0 1 -86 -126)" fill-opacity="0.2"/></g><g><rect fill="#ffffff" stroke="none" x="96" y="320" width="63.4599609375" height="45" transform="matrix(1 0 0 1 -86 -126)"/></g><g><path fill="none" stroke="#000000" paint-order="fill stroke markers" d=" M 10 194 L 73.4599609375 194 L 73.4599609375 239 L 10 239 L 10 194 Z Z" stroke-miterlimit="10" stroke-dasharray=""/></g><g><path fill="none" stroke="#000000" paint-order="fill stroke markers" d=" M 10 219 L 73.4599609375 219" stroke-miterlimit="10" stroke-dasharray=""/></g><g><path fill="none" stroke="#000000" paint-order="fill stroke markers" d=" M 10 229 L 73.4599609375 229" stroke-miterlimit="10" stroke-dasharray=""/></g><g><g><path fill="none" stroke="none"/><text fill="#000000" stroke="none" font-family="Arial" font-size="13px" font-style="normal" font-weight="bold" text-decoration="undefined" x="128.22998046875" y="333.5" text-anchor="middle" dominant-baseline="central" transform="matrix(1 0 0 1 -86 -126)">Manager</text></g></g><g><path fill="none" stroke="#000000" paint-order="fill stroke markers" d=" M 149 193 L 126 129" stroke-miterlimit="10" stroke-dasharray=""/></g><g><path fill="#FFFFFF" stroke="none" paint-order="stroke fill markers" d=" M 140.79694883835492 145.28036563087903 L 126 129 L 124.9510659266802 150.9749798022621"/></g><g><path fill="none" stroke="#000000" paint-order="fill stroke markers" d=" M 140.79694883835492 145.28036563087903 L 126 129 L 124.9510659266802 150.9749798022621 L 140.79694883835492 145.28036563087903" stroke-miterlimit="10" stroke-dasharray=""/></g><g><path fill="none" stroke="#000000" paint-order="fill stroke markers" d=" M 51 193 L 78 129" stroke-miterlimit="10" stroke-dasharray=""/></g><g><path fill="#FFFFFF" stroke="none" paint-order="stroke fill markers" d=" M 77.85652388378566 150.99953214511788 L 78 129 L 62.34252870254221 144.45456542803083"/></g><g><path fill="none" stroke="#000000" paint-order="fill stroke markers" d=" M 77.85652388378566 150.99953214511788 L 78 129 L 62.34252870254221 144.45456542803083 L 77.85652388378566 150.99953214511788" stroke-miterlimit="10" stroke-dasharray=""/></g><g><path fill="none" stroke="#000000" paint-order="fill stroke markers" d=" M 305 238 L 194 221" stroke-miterlimit="10" stroke-dasharray=""/></g><g><rect fill="#ffffff" stroke="none" x="302" y="363" width="61.0517578125" height="13" transform="matrix(1 0 0 1 -86 -126)"/></g><g><g><path fill="none" stroke="none"/><text fill="#000000" stroke="none" font-family="Arial" font-size="13px" font-style="normal" font-weight="normal" text-decoration="undefined" x="332.52587890625" y="369.5" text-anchor="middle" dominant-baseline="central" transform="matrix(1 0 0 1 -86 -126)">+customer</text></g></g><g><rect fill="#ffffff" stroke="none" x="362" y="342" width="19.5126953125" height="13" transform="matrix(1 0 0 1 -86 -126)"/></g><g><g><path fill="none" stroke="none"/><text fill="#000000" stroke="none" font-family="Arial" font-size="13px" font-style="normal" font-weight="normal" text-decoration="undefined" x="371.75634765625" y="348.5" text-anchor="middle" dominant-baseline="central" transform="matrix(1 0 0 1 -86 -126)">0..*</text></g></g><g><rect fill="#ffffff" stroke="none" x="300" y="331" width="7.22998046875" height="13" transform="matrix(1 0 0 1 -86 -126)"/></g><g><g><path fill="none" stroke="none"/><text fill="#000000" stroke="none" font-family="Arial" font-size="13px" font-style="normal" font-weight="normal" text-decoration="undefined" x="303.614990234375" y="337.5" text-anchor="middle" dominant-baseline="central" transform="matrix(1 0 0 1 -86 -126)">1</text></g></g><g><path fill="none" stroke="#000000" paint-order="fill stroke markers" d=" M 529 130 L 403 213" stroke-miterlimit="10" stroke-dasharray=""/></g><g><rect fill="#ffffff" stroke="none" x="532" y="303" width="57.45263671875" height="13" transform="matrix(1 0 0 1 -86 -126)"/></g><g><g><path fill="none" stroke="none"/><text fill="#000000" stroke="none" font-family="Arial" font-size="13px" font-style="normal" font-weight="normal" text-decoration="undefined" x="560.726318359375" y="309.5" text-anchor="middle" dominant-baseline="central" transform="matrix(1 0 0 1 -86 -126)">+products</text></g></g><g><rect fill="#ffffff" stroke="none" x="581" y="251" width="19.5126953125" height="13" transform="matrix(1 0 0 1 -86 -126)"/></g><g><g><path fill="none" stroke="none"/><text fill="#000000" stroke="none" font-family="Arial" font-size="13px" font-style="normal" font-weight="normal" text-decoration="undefined" x="590.75634765625" y="257.5" text-anchor="middle" dominant-baseline="central" transform="matrix(1 0 0 1 -86 -126)">0..*</text></g></g><g><rect fill="#ffffff" stroke="none" x="491" y="310" width="19.5126953125" height="13" transform="matrix(1 0 0 1 -86 -126)"/></g><g><g><path fill="none" stroke="none"/><text fill="#000000" stroke="none" font-family="Arial" font-size="13px" font-style="normal" font-weight="normal" text-decoration="undefined" x="500.75634765625" y="316.5" text-anchor="middle" dominant-baseline="central" transform="matrix(1 0 0 1 -86 -126)">0..*</text></g></g><g><path fill="#ffffff" stroke="none" paint-order="stroke fill markers" d=" M 10 258 L 99 258 L 109 268 L 109 334 L 10 334 L 10 258"/></g><g><path fill="none" stroke="#000000" paint-order="fill stroke markers" d=" M 10 258 L 99 258 L 109 268 L 109 334 L 10 334 L 10 258 L 10 258" stroke-miterlimit="10" stroke-dasharray=""/></g><g><path fill="none" stroke="#000000" paint-order="fill stroke markers" d=" M 99 258 L 99 268 L 109 268 L 99 258" stroke-miterlimit="10" stroke-dasharray=""/></g><g><g><path fill="none" stroke="none"/><text fill="#000000" stroke="none" font-family="Arial" font-size="13px" font-style="normal" font-weight="normal" text-decoration="undefined" x="101" y="389" text-anchor="start" dominant-baseline="text-before-edge" transform="matrix(1 0 0 1 -86 -126)">Person who</text><text fill="#000000" stroke="none" font-family="Arial" font-size="13px" font-style="normal" font-weight="normal" text-decoration="undefined" x="101" y="402" text-anchor="start" dominant-baseline="text-before-edge" transform="matrix(1 0 0 1 -86 -126)">manages</text><text fill="#000000" stroke="none" font-family="Arial" font-size="13px" font-style="normal" font-weight="normal" text-decoration="undefined" x="101" y="415" text-anchor="start" dominant-baseline="text-before-edge" transform="matrix(1 0 0 1 -86 -126)">inventory and</text><text fill="#000000" stroke="none" font-family="Arial" font-size="13px" font-style="normal" font-weight="normal" text-decoration="undefined" x="101" y="428" text-anchor="start" dominant-baseline="text-before-edge" transform="matrix(1 0 0 1 -86 -126)">orders (cart</text><text fill="#000000" stroke="none" font-family="Arial" font-size="13px" font-style="normal" font-weight="normal" text-decoration="undefined" x="101" y="441" text-anchor="start" dominant-baseline="text-before-edge" transform="matrix(1 0 0 1 -86 -126)">that are sold)</text></g></g><g><path fill="none" stroke="#000000" paint-order="fill stroke markers" d=" M 47 240 L 51 257" stroke-miterlimit="10" stroke-dasharray="3"/></g><g><path fill="#ffffff" stroke="none" paint-order="stroke fill markers" d=" M 122 258 L 211 258 L 221 268 L 221 308 L 122 308 L 122 258"/></g><g><path fill="none" stroke="#000000" paint-order="fill stroke markers" d=" M 122 258 L 211 258 L 221 268 L 221 308 L 122 308 L 122 258 L 122 258" stroke-miterlimit="10" stroke-dasharray=""/></g><g><path fill="none" stroke="#000000" paint-order="fill stroke markers" d=" M 211 258 L 211 268 L 221 268 L 211 258" stroke-miterlimit="10" stroke-dasharray=""/></g><g><g><path fill="none" stroke="none"/><text fill="#000000" stroke="none" font-family="Arial" font-size="13px" font-style="normal" font-weight="normal" text-decoration="undefined" x="213" y="389" text-anchor="start" dominant-baseline="text-before-edge" transform="matrix(1 0 0 1 -86 -126)">Person who</text><text fill="#000000" stroke="none" font-family="Arial" font-size="13px" font-style="normal" font-weight="normal" text-decoration="undefined" x="213" y="402" text-anchor="start" dominant-baseline="text-before-edge" transform="matrix(1 0 0 1 -86 -126)">can add carts</text><text fill="#000000" stroke="none" font-family="Arial" font-size="13px" font-style="normal" font-weight="normal" text-decoration="undefined" x="213" y="415" text-anchor="start" dominant-baseline="text-before-edge" transform="matrix(1 0 0 1 -86 -126)">and pay them</text></g></g><g><path fill="none" stroke="#000000" paint-order="fill stroke markers" d=" M 162 240 L 166 257" stroke-miterlimit="10" stroke-dasharray="3"/></g><g><path fill="#ffffff" stroke="none" paint-order="stroke fill markers" d=" M 378 18 L 467 18 L 477 28 L 477 81 L 378 81 L 378 18"/></g><g><path fill="none" stroke="#000000" paint-order="fill stroke markers" d=" M 378 18 L 467 18 L 477 28 L 477 81 L 378 81 L 378 18 L 378 18" stroke-miterlimit="10" stroke-dasharray=""/></g><g><path fill="none" stroke="#000000" paint-order="fill stroke markers" d=" M 467 18 L 467 28 L 477 28 L 467 18" stroke-miterlimit="10" stroke-dasharray=""/></g><g><g><path fill="none" stroke="none"/><text fill="#000000" stroke="none" font-family="Arial" font-size="13px" font-style="normal" font-weight="normal" text-decoration="undefined" x="469" y="149" text-anchor="start" dominant-baseline="text-before-edge" transform="matrix(1 0 0 1 -86 -126)">The list of</text><text fill="#000000" stroke="none" font-family="Arial" font-size="13px" font-style="normal" font-weight="normal" text-decoration="undefined" x="469" y="162" text-anchor="start" dominant-baseline="text-before-edge" transform="matrix(1 0 0 1 -86 -126)">products added</text><text fill="#000000" stroke="none" font-family="Arial" font-size="13px" font-style="normal" font-weight="normal" text-decoration="undefined" x="469" y="175" text-anchor="start" dominant-baseline="text-before-edge" transform="matrix(1 0 0 1 -86 -126)">to the cart</text></g></g><g><path fill="none" stroke="#000000" paint-order="fill stroke markers" d=" M 466 171 L 438 83" stroke-miterlimit="10" stroke-dasharray="3"/></g><g><path fill="#ffffff" stroke="none" paint-order="stroke fill markers" d=" M 234 18 L 323 18 L 333 28 L 333 133 L 234 133 L 234 18"/></g><g><path fill="none" stroke="#000000" paint-order="fill stroke markers" d=" M 234 18 L 323 18 L 333 28 L 333 133 L 234 133 L 234 18 L 234 18" stroke-miterlimit="10" stroke-dasharray=""/></g><g><path fill="none" stroke="#000000" paint-order="fill stroke markers" d=" M 323 18 L 323 28 L 333 28 L 323 18" stroke-miterlimit="10" stroke-dasharray=""/></g><g><g><path fill="none" stroke="none"/><text fill="#000000" stroke="none" font-family="Arial" font-size="13px" font-style="normal" font-weight="normal" text-decoration="undefined" x="325" y="149" text-anchor="start" dominant-baseline="text-before-edge" transform="matrix(1 0 0 1 -86 -126)">Object that</text><text fill="#000000" stroke="none" font-family="Arial" font-size="13px" font-style="normal" font-weight="normal" text-decoration="undefined" x="325" y="162" text-anchor="start" dominant-baseline="text-before-edge" transform="matrix(1 0 0 1 -86 -126)">represents the</text><text fill="#000000" stroke="none" font-family="Arial" font-size="13px" font-style="normal" font-weight="normal" text-decoration="undefined" x="325" y="175" text-anchor="start" dominant-baseline="text-before-edge" transform="matrix(1 0 0 1 -86 -126)">ongoing order</text><text fill="#000000" stroke="none" font-family="Arial" font-size="13px" font-style="normal" font-weight="normal" text-decoration="undefined" x="325" y="188" text-anchor="start" dominant-baseline="text-before-edge" transform="matrix(1 0 0 1 -86 -126)">of the customer</text><text fill="#000000" stroke="none" font-family="Arial" font-size="13px" font-style="normal" font-weight="normal" text-decoration="undefined" x="325" y="201" text-anchor="start" dominant-baseline="text-before-edge" transform="matrix(1 0 0 1 -86 -126)">(if not paid) or</text><text fill="#000000" stroke="none" font-family="Arial" font-size="13px" font-style="normal" font-weight="normal" text-decoration="undefined" x="325" y="214" text-anchor="start" dominant-baseline="text-before-edge" transform="matrix(1 0 0 1 -86 -126)">past invoices (if</text><text fill="#000000" stroke="none" font-family="Arial" font-size="13px" font-style="normal" font-weight="normal" text-decoration="undefined" x="325" y="227" text-anchor="start" dominant-baseline="text-before-edge" transform="matrix(1 0 0 1 -86 -126)">paid)</text></g></g><g><path fill="none" stroke="#000000" paint-order="fill stroke markers" d=" M 332 193 L 308 135" stroke-miterlimit="10" stroke-dasharray="3"/></g><g><rect fill="#C0C0C0" stroke="none" x="559" y="383" width="66.34814453125" height="45" transform="matrix(1 0 0 1 -86 -126)" fill-opacity="0.2"/></g><g><rect fill="#ffffff" stroke="none" x="552" y="376" width="66.34814453125" height="45" transform="matrix(1 0 0 1 -86 -126)"/></g><g><path fill="none" stroke="#000000" paint-order="fill stroke markers" d=" M 466 250 L 532.34814453125 250 L 532.34814453125 295 L 466 295 L 466 250 Z Z" stroke-miterlimit="10" stroke-dasharray=""/></g><g><path fill="none" stroke="#000000" paint-order="fill stroke markers" d=" M 466 275 L 532.34814453125 275" stroke-miterlimit="10" stroke-dasharray=""/></g><g><path fill="none" stroke="#000000" paint-order="fill stroke markers" d=" M 466 285 L 532.34814453125 285" stroke-miterlimit="10" stroke-dasharray=""/></g><g><g><path fill="none" stroke="none"/><text fill="#000000" stroke="none" font-family="Arial" font-size="13px" font-style="normal" font-weight="bold" text-decoration="undefined" x="585.674072265625" y="389.5" text-anchor="middle" dominant-baseline="central" transform="matrix(1 0 0 1 -86 -126)">Category</text></g></g><g><path fill="none" stroke="#000000" paint-order="fill stroke markers" d=" M 540 182 L 509 249" stroke-miterlimit="10" stroke-dasharray=""/></g><g><rect fill="#ffffff" stroke="none" x="596" y="316" width="19.5126953125" height="13" transform="matrix(1 0 0 1 -86 -126)"/></g><g><g><path fill="none" stroke="none"/><text fill="#000000" stroke="none" font-family="Arial" font-size="13px" font-style="normal" font-weight="normal" text-decoration="undefined" x="605.75634765625" y="322.5" text-anchor="middle" dominant-baseline="central" transform="matrix(1 0 0 1 -86 -126)">0..*</text></g></g><g><rect fill="#ffffff" stroke="none" x="589" y="344" width="7.22998046875" height="13" transform="matrix(1 0 0 1 -86 -126)"/></g><g><g><path fill="none" stroke="none"/><text fill="#000000" stroke="none" font-family="Arial" font-size="13px" font-style="normal" font-weight="normal" text-decoration="undefined" x="592.614990234375" y="350.5" text-anchor="middle" dominant-baseline="central" transform="matrix(1 0 0 1 -86 -126)">1</text></g></g><g><path fill="#ffffff" stroke="none" paint-order="stroke fill markers" d=" M 570 234 L 659 234 L 669 244 L 669 297 L 570 297 L 570 234"/></g><g><path fill="none" stroke="#000000" paint-order="fill stroke markers" d=" M 570 234 L 659 234 L 669 244 L 669 297 L 570 297 L 570 234 L 570 234" stroke-miterlimit="10" stroke-dasharray=""/></g><g><path fill="none" stroke="#000000" paint-order="fill stroke markers" d=" M 659 234 L 659 244 L 669 244 L 659 234" stroke-miterlimit="10" stroke-dasharray=""/></g><g><g><path fill="none" stroke="none"/><text fill="#000000" stroke="none" font-family="Arial" font-size="13px" font-style="normal" font-weight="normal" text-decoration="undefined" x="661" y="365" text-anchor="start" dominant-baseline="text-before-edge" transform="matrix(1 0 0 1 -86 -126)">One of</text><text fill="#000000" stroke="none" font-family="Arial" font-size="13px" font-style="normal" font-weight="normal" text-decoration="undefined" x="661" y="378" text-anchor="start" dominant-baseline="text-before-edge" transform="matrix(1 0 0 1 -86 -126)">Smartphone,</text><text fill="#000000" stroke="none" font-family="Arial" font-size="13px" font-style="normal" font-weight="normal" text-decoration="undefined" x="661" y="391" text-anchor="start" dominant-baseline="text-before-edge" transform="matrix(1 0 0 1 -86 -126)">Laptop,</text><text fill="#000000" stroke="none" font-family="Arial" font-size="13px" font-style="normal" font-weight="normal" text-decoration="undefined" x="661" y="404" text-anchor="start" dominant-baseline="text-before-edge" transform="matrix(1 0 0 1 -86 -126)">Appliance</text></g></g><g><path fill="none" stroke="#000000" paint-order="fill stroke markers" d=" M 533 270 L 569 269" stroke-miterlimit="10" stroke-dasharray="3"/></g></svg>
