<svg version="1.1" xmlns="http://www.w3.org/2000/svg" xmlns:xlink="http://www.w3.org/1999/xlink" width="1250" height="639"><defs/><g><path fill="#ffffff" stroke="none" paint-order="stroke fill markers" d=" M 260.49862304687497 155.85 C 260.49862304687497 150.96227952 264.456425414875 147 269.338623046875 147 C 274.220820678875 147 278.178623046875 150.96227952 278.178623046875 155.85 C 278.178623046875 160.73772047999998 274.220820678875 164.7 269.338623046875 164.7 C 264.456425414875 164.7 260.49862304687497 160.73772047999998 260.49862304687497 155.85 Z"/></g><g><path fill="none" stroke="#000000" paint-order="fill stroke markers" d=" M 260.49862304687497 155.85 C 260.49862304687497 150.96227952 264.456425414875 147 269.338623046875 147 C 274.220820678875 147 278.178623046875 150.96227952 278.178623046875 155.85 C 278.178623046875 160.73772047999998 274.220820678875 164.7 269.338623046875 164.7 C 264.456425414875 164.7 260.49862304687497 160.73772047999998 260.49862304687497 155.85 Z" stroke-miterlimit="10" stroke-dasharray=""/></g><g><path fill="none" stroke="#000000" paint-order="fill stroke markers" d=" M 269.338623046875 164.7 L 269.338623046875 182.3" stroke-miterlimit="10" stroke-dasharray=""/></g><g><path fill="none" stroke="#000000" paint-order="fill stroke markers" d=" M 259.978623046875 171.3 L 278.698623046875 171.3" stroke-miterlimit="10" stroke-dasharray=""/></g><g><path fill="none" stroke="#000000" paint-order="fill stroke markers" d=" M 269.338623046875 182.3 L 256.338623046875 200" stroke-miterlimit="10" stroke-dasharray=""/></g><g><path fill="none" stroke="#000000" paint-order="fill stroke markers" d=" M 269.338623046875 182.3 L 282.338623046875 200" stroke-miterlimit="10" stroke-dasharray=""/></g><g><g><path fill="none" stroke="none"/><text fill="#000000" stroke="none" font-family="Arial" font-size="13px" font-style="normal" font-weight="bold" text-decoration="undefined" x="259.838623046875" y="220.5" text-anchor="middle" dominant-baseline="central" transform="matrix(1 0 0 1 10 -6)">Customer</text></g></g><g><path fill="#ffffff" stroke="none" paint-order="stroke fill markers" d=" M 816.88998046875 155.85 C 816.88998046875 150.96227952 820.84778283675 147 825.72998046875 147 C 830.61217810075 147 834.56998046875 150.96227952 834.56998046875 155.85 C 834.56998046875 160.73772047999998 830.61217810075 164.7 825.72998046875 164.7 C 820.84778283675 164.7 816.88998046875 160.73772047999998 816.88998046875 155.85 Z"/></g><g><path fill="none" stroke="#000000" paint-order="fill stroke markers" d=" M 816.88998046875 155.85 C 816.88998046875 150.96227952 820.84778283675 147 825.72998046875 147 C 830.61217810075 147 834.56998046875 150.96227952 834.56998046875 155.85 C 834.56998046875 160.73772047999998 830.61217810075 164.7 825.72998046875 164.7 C 820.84778283675 164.7 816.88998046875 160.73772047999998 816.88998046875 155.85 Z" stroke-miterlimit="10" stroke-dasharray=""/></g><g><path fill="none" stroke="#000000" paint-order="fill stroke markers" d=" M 825.72998046875 164.7 L 825.72998046875 182.3" stroke-miterlimit="10" stroke-dasharray=""/></g><g><path fill="none" stroke="#000000" paint-order="fill stroke markers" d=" M 816.36998046875 171.3 L 835.08998046875 171.3" stroke-miterlimit="10" stroke-dasharray=""/></g><g><path fill="none" stroke="#000000" paint-order="fill stroke markers" d=" M 825.72998046875 182.3 L 812.72998046875 200" stroke-miterlimit="10" stroke-dasharray=""/></g><g><path fill="none" stroke="#000000" paint-order="fill stroke markers" d=" M 825.72998046875 182.3 L 838.72998046875 200" stroke-miterlimit="10" stroke-dasharray=""/></g><g><g><path fill="none" stroke="none"/><text fill="#000000" stroke="none" font-family="Arial" font-size="13px" font-style="normal" font-weight="bold" text-decoration="undefined" x="816.22998046875" y="220.5" text-anchor="middle" dominant-baseline="central" transform="matrix(1 0 0 1 10 -6)">Manager</text></g></g><g><path fill="#C0C0C0" stroke="none" paint-order="stroke fill markers" d=" M 545 34.5 C 545 24.835016 582.3842192 17 628.5 17 C 674.6157808 17 712 24.835016 712 34.5 C 712 44.164984000000004 674.6157808 52 628.5 52 C 582.3842192 52 545 44.164984000000004 545 34.5 Z" fill-opacity="0.2"/></g><g><path fill="#ffffff" stroke="none" paint-order="stroke fill markers" d=" M 538 27.5 C 538 17.835016 575.3842192 10 621.5 10 C 667.6157808 10 705 17.835016 705 27.5 C 705 37.164984000000004 667.6157808 45 621.5 45 C 575.3842192 45 538 37.164984000000004 538 27.5 Z"/></g><g><path fill="none" stroke="#000000" paint-order="fill stroke markers" d=" M 538 27.5 C 538 17.835016 575.3842192 10 621.5 10 C 667.6157808 10 705 17.835016 705 27.5 C 705 37.164984000000004 667.6157808 45 621.5 45 C 575.3842192 45 538 37.164984000000004 538 27.5 Z" stroke-miterlimit="10" stroke-dasharray=""/></g><g><g><path fill="none" stroke="none"/><text fill="#000000" stroke="none" font-family="Arial" font-size="13px" font-style="normal" font-weight="bold" text-decoration="undefined" x="611.5" y="34.5" text-anchor="middle" dominant-baseline="central" transform="matrix(1 0 0 1 10 -6)">User Registration</text></g></g><g><path fill="none" stroke="#000000" paint-order="fill stroke markers" d=" M 306 169 L 579 46" stroke-miterlimit="10" stroke-dasharray=""/></g><g><path fill="none" stroke="#000000" paint-order="fill stroke markers" d=" M 571.4635352472717 54.012596272799684 L 579 46 L 568.0051535077657 46.3366758265791" stroke-miterlimit="10" stroke-dasharray=""/></g><g><path fill="none" stroke="#000000" paint-order="fill stroke markers" d=" M 793 161 L 645 46" stroke-miterlimit="10" stroke-dasharray=""/></g><g><path fill="none" stroke="#000000" paint-order="fill stroke markers" d=" M 655.6076874431172 48.91152315964234 L 645 46 L 650.4420099539708 55.559525493500345" stroke-miterlimit="10" stroke-dasharray=""/></g><g><path fill="#C0C0C0" stroke="none" paint-order="stroke fill markers" d=" M 337 34.5 C 337 24.835016 359.8334752 17 388 17 C 416.1665248 17 439 24.835016 439 34.5 C 439 44.164984000000004 416.1665248 52 388 52 C 359.8334752 52 337 44.164984000000004 337 34.5 Z" fill-opacity="0.2"/></g><g><path fill="#ffffff" stroke="none" paint-order="stroke fill markers" d=" M 330 27.5 C 330 17.835016 352.8334752 10 381 10 C 409.1665248 10 432 17.835016 432 27.5 C 432 37.164984000000004 409.1665248 45 381 45 C 352.8334752 45 330 37.164984000000004 330 27.5 Z"/></g><g><path fill="none" stroke="#000000" paint-order="fill stroke markers" d=" M 330 27.5 C 330 17.835016 352.8334752 10 381 10 C 409.1665248 10 432 17.835016 432 27.5 C 432 37.164984000000004 409.1665248 45 381 45 C 352.8334752 45 330 37.164984000000004 330 27.5 Z" stroke-miterlimit="10" stroke-dasharray=""/></g><g><g><path fill="none" stroke="none"/><text fill="#000000" stroke="none" font-family="Arial" font-size="13px" font-style="normal" font-weight="bold" text-decoration="undefined" x="371" y="34.5" text-anchor="middle" dominant-baseline="central" transform="matrix(1 0 0 1 10 -6)">Login</text></g></g><g><path fill="none" stroke="#000000" paint-order="fill stroke markers" d=" M 298 145 L 368 46" stroke-miterlimit="10" stroke-dasharray=""/></g><g><path fill="none" stroke="#000000" paint-order="fill stroke markers" d=" M 365.5698918013118 56.72821393069081 L 368 46 L 358.6956611932791 51.867646834102025" stroke-miterlimit="10" stroke-dasharray=""/></g><g><path fill="none" stroke="#000000" paint-order="fill stroke markers" d=" M 793 175 L 433 46" stroke-miterlimit="10" stroke-dasharray=""/></g><g><path fill="none" stroke="#000000" paint-order="fill stroke markers" d=" M 443.9870012296863 45.4653936224923 L 433 46 L 441.14700686921736 53.39095927961485" stroke-miterlimit="10" stroke-dasharray=""/></g><g><path fill="#C0C0C0" stroke="none" paint-order="stroke fill markers" d=" M 321 618.5 C 321 608.835016 373.1588208 601 437.5 601 C 501.8411792 601 554 608.835016 554 618.5 C 554 628.164984 501.8411792 636 437.5 636 C 373.1588208 636 321 628.164984 321 618.5 Z" fill-opacity="0.2"/></g><g><path fill="#ffffff" stroke="none" paint-order="stroke fill markers" d=" M 314 611.5 C 314 601.835016 366.1588208 594 430.5 594 C 494.8411792 594 547 601.835016 547 611.5 C 547 621.164984 494.8411792 629 430.5 629 C 366.1588208 629 314 621.164984 314 611.5 Z"/></g><g><path fill="none" stroke="#000000" paint-order="fill stroke markers" d=" M 314 611.5 C 314 601.835016 366.1588208 594 430.5 594 C 494.8411792 594 547 601.835016 547 611.5 C 547 621.164984 494.8411792 629 430.5 629 C 366.1588208 629 314 621.164984 314 611.5 Z" stroke-miterlimit="10" stroke-dasharray=""/></g><g><g><path fill="none" stroke="none"/><text fill="#000000" stroke="none" font-family="Arial" font-size="13px" font-style="normal" font-weight="bold" text-decoration="undefined" x="420.5" y="618.5" text-anchor="middle" dominant-baseline="central" transform="matrix(1 0 0 1 10 -6)">Authorize &amp; Authenticate</text></g></g><g><path fill="#C0C0C0" stroke="none" paint-order="stroke fill markers" d=" M 793 378.5 C 793 368.835016 823.8923488 361 862 361 C 900.1076512 361 931 368.835016 931 378.5 C 931 388.164984 900.1076512 396 862 396 C 823.8923488 396 793 388.164984 793 378.5 Z" fill-opacity="0.2"/></g><g><path fill="#ffffff" stroke="none" paint-order="stroke fill markers" d=" M 786 371.5 C 786 361.835016 816.8923488 354 855 354 C 893.1076512 354 924 361.835016 924 371.5 C 924 381.164984 893.1076512 389 855 389 C 816.8923488 389 786 381.164984 786 371.5 Z"/></g><g><path fill="none" stroke="#000000" paint-order="fill stroke markers" d=" M 786 371.5 C 786 361.835016 816.8923488 354 855 354 C 893.1076512 354 924 361.835016 924 371.5 C 924 381.164984 893.1076512 389 855 389 C 816.8923488 389 786 381.164984 786 371.5 Z" stroke-miterlimit="10" stroke-dasharray=""/></g><g><g><path fill="none" stroke="none"/><text fill="#000000" stroke="none" font-family="Arial" font-size="13px" font-style="normal" font-weight="bold" text-decoration="undefined" x="845" y="378.5" text-anchor="middle" dominant-baseline="central" transform="matrix(1 0 0 1 10 -6)">Add a product</text></g></g><g><path fill="none" stroke="#000000" paint-order="fill stroke markers" d=" M 832 227 L 852 353" stroke-miterlimit="10" stroke-dasharray=""/></g><g><path fill="none" stroke="#000000" paint-order="fill stroke markers" d=" M 846.2493531265166 343.6228970072578 L 852 353 L 854.5642917136033 342.30306548549794" stroke-miterlimit="10" stroke-dasharray=""/></g><g><path fill="none" stroke="#000000" paint-order="fill stroke markers" d=" M 821 390 L 462 593" stroke-miterlimit="10" stroke-dasharray="3"/></g><g><path fill="none" stroke="#000000" paint-order="fill stroke markers" d=" M 468.77433265895326 584.3334887627235 L 462 593 L 472.91832542626696 591.6620276960517" stroke-miterlimit="10" stroke-dasharray=""/></g><g><rect fill="#ffffff" stroke="none" x="618" y="517" width="55.65625" height="13" transform="matrix(1 0 0 1 10 -6)"/></g><g><g><path fill="none" stroke="none"/><text fill="#000000" stroke="none" font-family="Arial" font-size="13px" font-style="normal" font-weight="normal" text-decoration="undefined" x="645.828125" y="523.5" text-anchor="middle" dominant-baseline="central" transform="matrix(1 0 0 1 10 -6)">«include»</text></g></g><g><path fill="#C0C0C0" stroke="none" paint-order="stroke fill markers" d=" M 945 378.5 C 945 368.835016 975.220776 361 1012.5 361 C 1049.7792239999999 361 1080 368.835016 1080 378.5 C 1080 388.164984 1049.7792239999999 396 1012.5 396 C 975.220776 396 945 388.164984 945 378.5 Z" fill-opacity="0.2"/></g><g><path fill="#ffffff" stroke="none" paint-order="stroke fill markers" d=" M 938 371.5 C 938 361.835016 968.220776 354 1005.5 354 C 1042.7792239999999 354 1073 361.835016 1073 371.5 C 1073 381.164984 1042.7792239999999 389 1005.5 389 C 968.220776 389 938 381.164984 938 371.5 Z"/></g><g><path fill="none" stroke="#000000" paint-order="fill stroke markers" d=" M 938 371.5 C 938 361.835016 968.220776 354 1005.5 354 C 1042.7792239999999 354 1073 361.835016 1073 371.5 C 1073 381.164984 1042.7792239999999 389 1005.5 389 C 968.220776 389 938 381.164984 938 371.5 Z" stroke-miterlimit="10" stroke-dasharray=""/></g><g><g><path fill="none" stroke="none"/><text fill="#000000" stroke="none" font-family="Arial" font-size="13px" font-style="normal" font-weight="bold" text-decoration="undefined" x="995.5" y="378.5" text-anchor="middle" dominant-baseline="central" transform="matrix(1 0 0 1 10 -6)">Sell a product</text></g></g><g><path fill="none" stroke="#000000" paint-order="fill stroke markers" d=" M 858 220 L 987 353" stroke-miterlimit="10" stroke-dasharray=""/></g><g><path fill="none" stroke="#000000" paint-order="fill stroke markers" d=" M 976.9027692853091 348.63583548725495 L 987 353 L 982.9461100116126 342.77424936926127" stroke-miterlimit="10" stroke-dasharray=""/></g><g><path fill="none" stroke="#000000" paint-order="fill stroke markers" d=" M 959 390 L 473 593" stroke-miterlimit="10" stroke-dasharray="3"/></g><g><path fill="none" stroke="#000000" paint-order="fill stroke markers" d=" M 480.75505214037963 585.1987714877723 L 473 593 L 483.9999515394997 592.9673483743356" stroke-miterlimit="10" stroke-dasharray=""/></g><g><rect fill="#ffffff" stroke="none" x="690" y="518" width="55.65625" height="13" transform="matrix(1 0 0 1 10 -6)"/></g><g><g><path fill="none" stroke="none"/><text fill="#000000" stroke="none" font-family="Arial" font-size="13px" font-style="normal" font-weight="normal" text-decoration="undefined" x="717.828125" y="524.5" text-anchor="middle" dominant-baseline="central" transform="matrix(1 0 0 1 10 -6)">«include»</text></g></g><g><path fill="#C0C0C0" stroke="none" paint-order="stroke fill markers" d=" M 1089 378.5 C 1089 368.835016 1124.3695008 361 1168 361 C 1211.6304992 361 1247 368.835016 1247 378.5 C 1247 388.164984 1211.6304992 396 1168 396 C 1124.3695008 396 1089 388.164984 1089 378.5 Z" fill-opacity="0.2"/></g><g><path fill="#ffffff" stroke="none" paint-order="stroke fill markers" d=" M 1082 371.5 C 1082 361.835016 1117.3695008 354 1161 354 C 1204.6304992 354 1240 361.835016 1240 371.5 C 1240 381.164984 1204.6304992 389 1161 389 C 1117.3695008 389 1082 381.164984 1082 371.5 Z"/></g><g><path fill="none" stroke="#000000" paint-order="fill stroke markers" d=" M 1082 371.5 C 1082 361.835016 1117.3695008 354 1161 354 C 1204.6304992 354 1240 361.835016 1240 371.5 C 1240 381.164984 1204.6304992 389 1161 389 C 1117.3695008 389 1082 381.164984 1082 371.5 Z" stroke-miterlimit="10" stroke-dasharray=""/></g><g><g><path fill="none" stroke="none"/><text fill="#000000" stroke="none" font-family="Arial" font-size="13px" font-style="normal" font-weight="bold" text-decoration="undefined" x="1151" y="378.5" text-anchor="middle" dominant-baseline="central" transform="matrix(1 0 0 1 10 -6)">Delete a product</text></g></g><g><path fill="none" stroke="#000000" paint-order="fill stroke markers" d=" M 858 204 L 1128 353" stroke-miterlimit="10" stroke-dasharray=""/></g><g><path fill="none" stroke="#000000" paint-order="fill stroke markers" d=" M 1117.0683858806992 351.7753315768319 L 1128 353 L 1121.136152873655 344.40421018020066" stroke-miterlimit="10" stroke-dasharray=""/></g><g><path fill="none" stroke="#000000" paint-order="fill stroke markers" d=" M 1103 390 L 485 593" stroke-miterlimit="10" stroke-dasharray="3"/></g><g><path fill="none" stroke="#000000" paint-order="fill stroke markers" d=" M 493.34144743763585 585.8292082274578 L 485 593 L 495.9688095369047 593.8277785592222" stroke-miterlimit="10" stroke-dasharray=""/></g><g><rect fill="#ffffff" stroke="none" x="766" y="519" width="55.65625" height="13" transform="matrix(1 0 0 1 10 -6)"/></g><g><g><path fill="none" stroke="none"/><text fill="#000000" stroke="none" font-family="Arial" font-size="13px" font-style="normal" font-weight="normal" text-decoration="undefined" x="793.828125" y="525.5" text-anchor="middle" dominant-baseline="central" transform="matrix(1 0 0 1 10 -6)">«include»</text></g></g><g><path fill="#C0C0C0" stroke="none" paint-order="stroke fill markers" d=" M 617 378.5 C 617 368.835016 653.7126464 361 699 361 C 744.2873536 361 781 368.835016 781 378.5 C 781 388.164984 744.2873536 396 699 396 C 653.7126464 396 617 388.164984 617 378.5 Z" fill-opacity="0.2"/></g><g><path fill="#ffffff" stroke="none" paint-order="stroke fill markers" d=" M 610 371.5 C 610 361.835016 646.7126464 354 692 354 C 737.2873536 354 774 361.835016 774 371.5 C 774 381.164984 737.2873536 389 692 389 C 646.7126464 389 610 381.164984 610 371.5 Z"/></g><g><path fill="none" stroke="#000000" paint-order="fill stroke markers" d=" M 610 371.5 C 610 361.835016 646.7126464 354 692 354 C 737.2873536 354 774 361.835016 774 371.5 C 774 381.164984 737.2873536 389 692 389 C 646.7126464 389 610 381.164984 610 371.5 Z" stroke-miterlimit="10" stroke-dasharray=""/></g><g><g><path fill="none" stroke="none"/><text fill="#000000" stroke="none" font-family="Arial" font-size="13px" font-style="normal" font-weight="bold" text-decoration="undefined" x="682" y="378.5" text-anchor="middle" dominant-baseline="central" transform="matrix(1 0 0 1 10 -6)">Search a product</text></g></g><g><path fill="#ffffff" stroke="none" paint-order="stroke fill markers" d=" M 547.41634765625 155.85 C 547.41634765625 150.96227952 551.37415002425 147 556.25634765625 147 C 561.13854528825 147 565.09634765625 150.96227952 565.09634765625 155.85 C 565.09634765625 160.73772047999998 561.13854528825 164.7 556.25634765625 164.7 C 551.37415002425 164.7 547.41634765625 160.73772047999998 547.41634765625 155.85 Z"/></g><g><path fill="none" stroke="#000000" paint-order="fill stroke markers" d=" M 547.41634765625 155.85 C 547.41634765625 150.96227952 551.37415002425 147 556.25634765625 147 C 561.13854528825 147 565.09634765625 150.96227952 565.09634765625 155.85 C 565.09634765625 160.73772047999998 561.13854528825 164.7 556.25634765625 164.7 C 551.37415002425 164.7 547.41634765625 160.73772047999998 547.41634765625 155.85 Z" stroke-miterlimit="10" stroke-dasharray=""/></g><g><path fill="none" stroke="#000000" paint-order="fill stroke markers" d=" M 556.25634765625 164.7 L 556.25634765625 182.3" stroke-miterlimit="10" stroke-dasharray=""/></g><g><path fill="none" stroke="#000000" paint-order="fill stroke markers" d=" M 546.89634765625 171.3 L 565.61634765625 171.3" stroke-miterlimit="10" stroke-dasharray=""/></g><g><path fill="none" stroke="#000000" paint-order="fill stroke markers" d=" M 556.25634765625 182.3 L 543.25634765625 200" stroke-miterlimit="10" stroke-dasharray=""/></g><g><path fill="none" stroke="#000000" paint-order="fill stroke markers" d=" M 556.25634765625 182.3 L 569.25634765625 200" stroke-miterlimit="10" stroke-dasharray=""/></g><g><g><path fill="none" stroke="none"/><text fill="#000000" stroke="none" font-family="Arial" font-size="13px" font-style="normal" font-weight="bold" text-decoration="undefined" x="546.75634765625" y="220.5" text-anchor="middle" dominant-baseline="central" transform="matrix(1 0 0 1 10 -6)">Inventory</text></g></g><g><path fill="none" stroke="#000000" paint-order="fill stroke markers" d=" M 1102 353 L 592 197" stroke-miterlimit="10" stroke-dasharray=""/></g><g><path fill="none" stroke="#000000" paint-order="fill stroke markers" d=" M 602.9495043091487 195.9472154142776 L 592 197 L 600.4868998673234 203.99803762793738" stroke-miterlimit="10" stroke-dasharray=""/></g><g><path fill="none" stroke="#000000" paint-order="fill stroke markers" d=" M 961 353 L 592 201" stroke-miterlimit="10" stroke-dasharray=""/></g><g><path fill="none" stroke="#000000" paint-order="fill stroke markers" d=" M 602.9999789628985 200.9784868460685 L 592 201 L 599.7933718146045 208.76294762054516" stroke-miterlimit="10" stroke-dasharray=""/></g><g><path fill="none" stroke="#000000" paint-order="fill stroke markers" d=" M 826 353 L 592 208" stroke-miterlimit="10" stroke-dasharray=""/></g><g><path fill="none" stroke="#000000" paint-order="fill stroke markers" d=" M 602.8558852863847 209.77475481372923 L 592 208 L 598.4213289380546 216.93121126551733" stroke-miterlimit="10" stroke-dasharray=""/></g><g><path fill="none" stroke="#000000" paint-order="fill stroke markers" d=" M 679 353 L 586 227" stroke-miterlimit="10" stroke-dasharray=""/></g><g><path fill="none" stroke="#000000" paint-order="fill stroke markers" d=" M 595.4219966802553 232.67679298171566 L 586 227 L 588.6482589321624 237.67645655768908" stroke-miterlimit="10" stroke-dasharray=""/></g><g><path fill="none" stroke="#000000" paint-order="fill stroke markers" d=" M 796 227 L 705 353" stroke-miterlimit="10" stroke-dasharray=""/></g><g><path fill="none" stroke="#000000" paint-order="fill stroke markers" d=" M 707.5375815245478 342.29669770555495 L 705 353 L 714.3627187373131 347.2259634703298" stroke-miterlimit="10" stroke-dasharray=""/></g><g><path fill="none" stroke="#000000" paint-order="fill stroke markers" d=" M 306 202 L 651 353" stroke-miterlimit="10" stroke-dasharray=""/></g><g><path fill="none" stroke="#000000" paint-order="fill stroke markers" d=" M 640.0021699803494 352.7815169139908 L 651 353 L 643.3778506864597 345.0688689430764" stroke-miterlimit="10" stroke-dasharray=""/></g><g><path fill="#C0C0C0" stroke="none" paint-order="stroke fill markers" d=" M 489 378.5 C 489 368.835016 514.5197664 361 546 361 C 577.4802336 361 603 368.835016 603 378.5 C 603 388.164984 577.4802336 396 546 396 C 514.5197664 396 489 388.164984 489 378.5 Z" fill-opacity="0.2"/></g><g><path fill="#ffffff" stroke="none" paint-order="stroke fill markers" d=" M 482 371.5 C 482 361.835016 507.5197664 354 539 354 C 570.4802336 354 596 361.835016 596 371.5 C 596 381.164984 570.4802336 389 539 389 C 507.5197664 389 482 381.164984 482 371.5 Z"/></g><g><path fill="none" stroke="#000000" paint-order="fill stroke markers" d=" M 482 371.5 C 482 361.835016 507.5197664 354 539 354 C 570.4802336 354 596 361.835016 596 371.5 C 596 381.164984 570.4802336 389 539 389 C 507.5197664 389 482 381.164984 482 371.5 Z" stroke-miterlimit="10" stroke-dasharray=""/></g><g><g><path fill="none" stroke="none"/><text fill="#000000" stroke="none" font-family="Arial" font-size="13px" font-style="normal" font-weight="bold" text-decoration="undefined" x="529" y="378.5" text-anchor="middle" dominant-baseline="central" transform="matrix(1 0 0 1 10 -6)">Add to Cart</text></g></g><g><path fill="none" stroke="#000000" paint-order="fill stroke markers" d=" M 306 211 L 513 353" stroke-miterlimit="10" stroke-dasharray=""/></g><g><path fill="none" stroke="#000000" paint-order="fill stroke markers" d=" M 502.23837458517454 350.72240951201 L 513 353 L 507.0008813714111 343.7798820137637" stroke-miterlimit="10" stroke-dasharray=""/></g><g><path fill="none" stroke="#000000" paint-order="fill stroke markers" d=" M 530 390 L 438 593" stroke-miterlimit="10" stroke-dasharray="3"/></g><g><path fill="none" stroke="#000000" paint-order="fill stroke markers" d=" M 438.3608937632715 582.0059217898165 L 438 593 L 446.02917768261324 585.4812031719812" stroke-miterlimit="10" stroke-dasharray=""/></g><g><rect fill="#ffffff" stroke="none" x="474" y="503" width="55.65625" height="13" transform="matrix(1 0 0 1 10 -6)"/></g><g><g><path fill="none" stroke="none"/><text fill="#000000" stroke="none" font-family="Arial" font-size="13px" font-style="normal" font-weight="normal" text-decoration="undefined" x="501.828125" y="509.5" text-anchor="middle" dominant-baseline="central" transform="matrix(1 0 0 1 10 -6)">«include»</text></g></g><g><path fill="none" stroke="#000000" paint-order="fill stroke markers" d=" M 671 390 L 450 593" stroke-miterlimit="10" stroke-dasharray="3"/></g><g><path fill="none" stroke="#000000" paint-order="fill stroke markers" d=" M 454.63677564914803 583.0250157103147 L 450 593 L 460.332074537819 589.2253164708875" stroke-miterlimit="10" stroke-dasharray=""/></g><g><rect fill="#ffffff" stroke="none" x="543" y="512" width="55.65625" height="13" transform="matrix(1 0 0 1 10 -6)"/></g><g><g><path fill="none" stroke="none"/><text fill="#000000" stroke="none" font-family="Arial" font-size="13px" font-style="normal" font-weight="normal" text-decoration="undefined" x="570.828125" y="518.5" text-anchor="middle" dominant-baseline="central" transform="matrix(1 0 0 1 10 -6)">«include»</text></g></g><g><path fill="none" stroke="#000000" paint-order="fill stroke markers" d=" M 541 353 L 552 227" stroke-miterlimit="10" stroke-dasharray=""/></g><g><path fill="none" stroke="#000000" paint-order="fill stroke markers" d=" M 555.3097114564534 237.49027216401086 L 552 227 L 546.9225768309644 236.75806199829356" stroke-miterlimit="10" stroke-dasharray=""/></g><g><path fill="#C0C0C0" stroke="none" paint-order="stroke fill markers" d=" M 217 378.5 C 217 368.835016 275.8745488 361 348.5 361 C 421.1254512 361 480 368.835016 480 378.5 C 480 388.164984 421.1254512 396 348.5 396 C 275.8745488 396 217 388.164984 217 378.5 Z" fill-opacity="0.2"/></g><g><path fill="#ffffff" stroke="none" paint-order="stroke fill markers" d=" M 210 371.5 C 210 361.835016 268.8745488 354 341.5 354 C 414.1254512 354 473 361.835016 473 371.5 C 473 381.164984 414.1254512 389 341.5 389 C 268.8745488 389 210 381.164984 210 371.5 Z"/></g><g><path fill="none" stroke="#000000" paint-order="fill stroke markers" d=" M 210 371.5 C 210 361.835016 268.8745488 354 341.5 354 C 414.1254512 354 473 361.835016 473 371.5 C 473 381.164984 414.1254512 389 341.5 389 C 268.8745488 389 210 381.164984 210 371.5 Z" stroke-miterlimit="10" stroke-dasharray=""/></g><g><g><path fill="none" stroke="none"/><text fill="#000000" stroke="none" font-family="Arial" font-size="13px" font-style="normal" font-weight="bold" text-decoration="undefined" x="331.5" y="378.5" text-anchor="middle" dominant-baseline="central" transform="matrix(1 0 0 1 10 -6)">Remove a Product from Cart</text></g></g><g><path fill="none" stroke="#000000" paint-order="fill stroke markers" d=" M 285 227 L 334 353" stroke-miterlimit="10" stroke-dasharray=""/></g><g><path fill="none" stroke="#000000" paint-order="fill stroke markers" d=" M 326.3932862809778 345.05406352927236 L 334 353 L 334.23986670806363 342.00261558540564" stroke-miterlimit="10" stroke-dasharray=""/></g><g><path fill="none" stroke="#000000" paint-order="fill stroke markers" d=" M 362 353 L 521 216" stroke-miterlimit="10" stroke-dasharray=""/></g><g><path fill="none" stroke="#000000" paint-order="fill stroke markers" d=" M 516.0488049288623 225.8227118133203 L 521 216 L 510.55327025738114 219.44468252306112" stroke-miterlimit="10" stroke-dasharray=""/></g><g><path fill="none" stroke="#000000" paint-order="fill stroke markers" d=" M 348 390 L 423 593" stroke-miterlimit="10" stroke-dasharray="3"/></g><g><path fill="none" stroke="#000000" paint-order="fill stroke markers" d=" M 415.5293635637112 584.9259928637142 L 423 593 L 423.42664751353715 582.0082771187047" stroke-miterlimit="10" stroke-dasharray=""/></g><g><rect fill="#ffffff" stroke="none" x="376" y="480" width="55.65625" height="13" transform="matrix(1 0 0 1 10 -6)"/></g><g><g><path fill="none" stroke="none"/><text fill="#000000" stroke="none" font-family="Arial" font-size="13px" font-style="normal" font-weight="normal" text-decoration="undefined" x="403.828125" y="486.5" text-anchor="middle" dominant-baseline="central" transform="matrix(1 0 0 1 10 -6)">«include»</text></g></g><g><path fill="#C0C0C0" stroke="none" paint-order="stroke fill markers" d=" M 17 378.5 C 17 368.835016 58.6375136 361 110 361 C 161.3624864 361 203 368.835016 203 378.5 C 203 388.164984 161.3624864 396 110 396 C 58.6375136 396 17 388.164984 17 378.5 Z" fill-opacity="0.2"/></g><g><path fill="#ffffff" stroke="none" paint-order="stroke fill markers" d=" M 10 371.5 C 10 361.835016 51.6375136 354 103 354 C 154.3624864 354 196 361.835016 196 371.5 C 196 381.164984 154.3624864 389 103 389 C 51.6375136 389 10 381.164984 10 371.5 Z"/></g><g><path fill="none" stroke="#000000" paint-order="fill stroke markers" d=" M 10 371.5 C 10 361.835016 51.6375136 354 103 354 C 154.3624864 354 196 361.835016 196 371.5 C 196 381.164984 154.3624864 389 103 389 C 51.6375136 389 10 381.164984 10 371.5 Z" stroke-miterlimit="10" stroke-dasharray=""/></g><g><g><path fill="none" stroke="none"/><text fill="#000000" stroke="none" font-family="Arial" font-size="13px" font-style="normal" font-weight="bold" text-decoration="undefined" x="93" y="378.5" text-anchor="middle" dominant-baseline="central" transform="matrix(1 0 0 1 10 -6)">Pay the current cart</text></g></g><g><path fill="none" stroke="#000000" paint-order="fill stroke markers" d=" M 233 226 L 119 353" stroke-miterlimit="10" stroke-dasharray=""/></g><g><path fill="none" stroke="#000000" paint-order="fill stroke markers" d=" M 122.65600854216912 342.6253384855415 L 119 353 L 128.92118194163243 348.249194922855" stroke-miterlimit="10" stroke-dasharray=""/></g><g><path fill="none" stroke="#000000" paint-order="fill stroke markers" d=" M 147 353 L 521 200" stroke-miterlimit="10" stroke-dasharray=""/></g><g><path fill="none" stroke="#000000" paint-order="fill stroke markers" d=" M 513.1878289056893 207.7440288476488 L 521 200 L 510.0001055315467 199.9518161553001" stroke-miterlimit="10" stroke-dasharray=""/></g><g><path fill="none" stroke="#000000" paint-order="fill stroke markers" d=" M 129 390 L 405 593" stroke-miterlimit="10" stroke-dasharray="3"/></g><g><path fill="none" stroke="#000000" paint-order="fill stroke markers" d=" M 394.3191163229865 590.3696532779678 L 405 593 L 399.3074107269398 583.5875387188983" stroke-miterlimit="10" stroke-dasharray=""/></g><g><rect fill="#ffffff" stroke="none" x="247" y="466" width="55.65625" height="13" transform="matrix(1 0 0 1 10 -6)"/></g><g><g><path fill="none" stroke="none"/><text fill="#000000" stroke="none" font-family="Arial" font-size="13px" font-style="normal" font-weight="normal" text-decoration="undefined" x="274.828125" y="472.5" text-anchor="middle" dominant-baseline="central" transform="matrix(1 0 0 1 10 -6)">«include»</text></g></g></svg>
